<svg width="20" height="19" viewBox="0 0 20 19" fill="none" xmlns="http://www.w3.org/2000/svg">
<g clip-path="url(#clip0_776_1677)">
<g clip-path="url(#clip1_776_1677)">
<path d="M0.5 3.28184C0.5 1.46933 1.96933 0 3.78184 0H15.8882C17.7007 0 19.17 1.46933 19.17 3.28184V15.3882C19.17 17.2007 17.7007 18.67 15.8882 18.67H3.78184C1.96933 18.67 0.5 17.2007 0.5 15.3882V3.28184Z" fill="#00005B"/>
<path fill-rule="evenodd" clip-rule="evenodd" d="M10.2773 13.1433L7.76794 5.6385C7.75919 5.6019 7.73934 5.5664 7.704 5.54115C7.66829 5.51565 7.62742 5.50827 7.59152 5.50827H5.96405C5.92562 5.50827 5.87869 5.51795 5.84208 5.55456C5.80596 5.59068 5.79605 5.63683 5.79579 5.67497C5.78809 5.94963 5.75752 6.14976 5.70886 6.28184L5.70824 6.28352L3.46407 13.1322L3.46336 13.1346C3.44905 13.1823 3.43991 13.2494 3.47992 13.3066C3.52125 13.3656 3.58894 13.3777 3.63909 13.3777H4.80157C4.84991 13.3777 4.90177 13.367 4.94449 13.3328C4.98585 13.2997 5.00657 13.2543 5.01416 13.2081L5.62961 11.2387H7.96175L8.6161 13.2469L8.61938 13.2534C8.6381 13.2909 8.66556 13.3235 8.70331 13.3462C8.74081 13.3687 8.78236 13.3777 8.82374 13.3777H10.1257C10.1711 13.3777 10.2374 13.3646 10.2729 13.3008C10.3036 13.2454 10.2909 13.1841 10.2773 13.1433ZM7.63445 9.93731H5.96944C6.37491 8.61433 6.6483 7.68517 6.78837 7.1528C6.83981 7.33511 6.90174 7.54616 6.97409 7.78584C7.09818 8.1969 7.23389 8.63892 7.38121 9.11189C7.49686 9.48318 7.58121 9.75815 7.63445 9.93731Z" fill="#9999FF"/>
<path d="M14.7459 13.2419C14.7249 13.1839 14.7079 13.1127 14.6942 13.0294C14.3001 13.3328 13.8115 13.4823 13.2347 13.4823C12.5923 13.4823 12.0934 13.3002 11.7572 12.9201C11.4231 12.5423 11.2646 11.9857 11.2646 11.2681V7.71087C11.2646 7.66469 11.2762 7.61195 11.3167 7.57146C11.3572 7.53097 11.4099 7.51936 11.4561 7.51936H12.7C12.746 7.51936 12.7974 7.5331 12.8351 7.57625C12.8707 7.61688 12.8799 7.66768 12.8799 7.71087V11.1751C12.8799 11.5363 12.9536 11.7889 13.0845 11.9499C13.2122 12.107 13.4071 12.1925 13.6881 12.1925C14.0433 12.1925 14.3296 12.0695 14.5544 11.8235V7.71087C14.5544 7.66469 14.566 7.61195 14.6065 7.57146C14.647 7.53097 14.6997 7.51936 14.7459 7.51936H15.9782C16.0214 7.51936 16.0722 7.52852 16.1128 7.56407C16.1559 7.60183 16.1697 7.65326 16.1697 7.69925V12.0353C16.1697 12.3942 16.1887 12.7764 16.2268 13.1821C16.2367 13.229 16.2346 13.2899 16.1873 13.3372L16.176 13.3485L16.1617 13.3556C16.1238 13.3746 16.0759 13.3777 16.0363 13.3777H14.9552C14.9127 13.3777 14.8683 13.3698 14.8289 13.3462C14.7881 13.3217 14.7606 13.2849 14.7459 13.2419Z" fill="#9999FF"/>
</g>
</g>
<defs>
<clipPath id="clip0_776_1677">
<rect width="19" height="19" fill="white" transform="translate(0.5)"/>
</clipPath>
<clipPath id="clip1_776_1677">
<rect width="18.67" height="18.67" fill="white" transform="translate(0.5)"/>
</clipPath>
</defs>
</svg>
