<svg width="17" height="19" viewBox="0 0 17 19" fill="none" xmlns="http://www.w3.org/2000/svg">
<g clip-path="url(#clip0_776_1612)">
<g clip-path="url(#clip1_776_1612)">
<path fill-rule="evenodd" clip-rule="evenodd" d="M15.5 17L8.5 19L1.5 17L0 0H17C16.5 5.66602 16 11.334 15.5 17ZM15.9082 1H1.0918L2.43555 16.2266L8.5 17.9609L14.5645 16.2266L15.9082 1ZM4.40039 11H6.40039L6.44922 12.25L8.5 12.9492L10.5508 12.25L10.6992 10H6.30078L6.19922 8H10.8008L10.9492 6H4.05078L3.90039 4H13.0508L12.8008 8L12.4492 13.75L8.5 15.0508L4.55078 13.75L4.40039 11Z" fill="black"/>
</g>
</g>
<defs>
<clipPath id="clip0_776_1612">
<rect width="17" height="19" fill="white"/>
</clipPath>
<clipPath id="clip1_776_1612">
<rect width="17" height="19" fill="white"/>
</clipPath>
</defs>
</svg>
