<svg width="17" height="19" viewBox="0 0 17 19" fill="none" xmlns="http://www.w3.org/2000/svg">
<g clip-path="url(#clip0_776_1615)">
<g clip-path="url(#clip1_776_1615)">
<path d="M17 0H0L1.5 17L8.5 19L15.5 17L17 0Z" fill="#0277BD"/>
<path d="M8.5 1.5V17.45L14.1 15.85L15.35 1.5H8.5Z" fill="#039BE5"/>
<path d="M13.05 4H8.5V6H10.95L10.8 8H8.5V10H10.7L10.55 12.25L8.5 12.95V15.05L12.45 13.75L12.8 8L13.05 4Z" fill="white"/>
<path d="M8.50039 4V6H4.05039L3.90039 4H8.50039ZM6.20039 8L6.30039 10H8.50039V8H6.20039ZM6.40039 11H4.40039L4.55039 13.75L8.50039 15.05V12.95L6.45039 12.25L6.40039 11Z" fill="#EEEEEE"/>
</g>
</g>
<defs>
<clipPath id="clip0_776_1615">
<rect width="17" height="19" fill="white"/>
</clipPath>
<clipPath id="clip1_776_1615">
<rect width="17" height="19" fill="white"/>
</clipPath>
</defs>
</svg>
