<svg width="14" height="19" viewBox="0 0 14 19" fill="none" xmlns="http://www.w3.org/2000/svg">
<path fill-rule="evenodd" clip-rule="evenodd" d="M10.2329 7.06612C9.60557 7.06612 9.00391 7.32254 8.5603 7.77898C8.11669 8.23543 7.86747 8.8545 7.86747 9.5C7.86747 10.1455 8.11669 10.7646 8.5603 11.221C9.00391 11.6775 9.60557 11.9339 10.2329 11.9339C10.8603 11.9339 11.462 11.6775 11.9056 11.221C12.3492 10.7646 12.5984 10.1455 12.5984 9.5C12.5984 8.8545 12.3492 8.23543 11.9056 7.77898C11.462 7.32254 10.8603 7.06612 10.2329 7.06612ZM7.80491 7.00175C8.44886 6.33917 9.32225 5.96694 10.2329 5.96694C11.1436 5.96694 12.017 6.33917 12.6609 7.00175C13.3049 7.66433 13.6667 8.56298 13.6667 9.5C13.6667 10.437 13.3049 11.3357 12.6609 11.9982C12.017 12.6608 11.1436 13.0331 10.2329 13.0331C9.32225 13.0331 8.44886 12.6608 7.80491 11.9982C7.16096 11.3357 6.7992 10.437 6.7992 9.5C6.7992 8.56298 7.16096 7.66433 7.80491 7.00175Z" fill="black"/>
<path fill-rule="evenodd" clip-rule="evenodd" d="M4.43373 13.0331C3.80638 13.0331 3.20471 13.2895 2.7611 13.7459C2.31749 14.2024 2.06827 14.8214 2.06827 15.4669C2.06827 16.1124 2.31749 16.7315 2.7611 17.188C3.20471 17.6444 3.80638 17.9008 4.43373 17.9008C5.06109 17.9008 5.66276 17.6444 6.10637 17.188C6.54998 16.7315 6.7992 16.1124 6.7992 15.4669V13.0331H4.43373ZM2.00572 12.9687C2.64967 12.3061 3.52305 11.9339 4.43373 11.9339H7.86747V15.4669C7.86747 16.404 7.5057 17.3026 6.86175 17.9652C6.2178 18.6278 5.34442 19 4.43373 19C3.52305 19 2.64967 18.6278 2.00572 17.9652C1.36177 17.3026 1 16.404 1 15.4669C1 14.5299 1.36177 13.6313 2.00572 12.9687Z" fill="black"/>
<path fill-rule="evenodd" clip-rule="evenodd" d="M6.7992 0H10.2329C11.1436 0 12.017 0.372232 12.6609 1.03481C13.3049 1.69739 13.6667 2.59603 13.6667 3.53306C13.6667 4.47008 13.3049 5.36873 12.6609 6.03131C12.017 6.69388 11.1436 7.06612 10.2329 7.06612H6.7992V0ZM7.86747 1.09917V5.96694H10.2329C10.8603 5.96694 11.462 5.71052 11.9056 5.25407C12.3492 4.79763 12.5984 4.17856 12.5984 3.53306C12.5984 2.88755 12.3492 2.26848 11.9056 1.81204C11.462 1.3556 10.8603 1.09917 10.2329 1.09917H7.86747Z" fill="black"/>
<path fill-rule="evenodd" clip-rule="evenodd" d="M2.00572 1.03481C2.64967 0.372232 3.52305 0 4.43373 0H7.86747V7.06612H4.43373C3.52305 7.06612 2.64967 6.69388 2.00572 6.03131C1.36177 5.36873 1 4.47008 1 3.53306C1 2.59603 1.36177 1.69739 2.00572 1.03481ZM4.43373 1.09917C3.80638 1.09917 3.20471 1.3556 2.7611 1.81204C2.31749 2.26848 2.06827 2.88755 2.06827 3.53306C2.06827 4.17856 2.31749 4.79763 2.7611 5.25407C3.20471 5.71052 3.80638 5.96694 4.43373 5.96694H6.7992V1.09917H4.43373Z" fill="black"/>
<path fill-rule="evenodd" clip-rule="evenodd" d="M2.00572 7.00175C2.64967 6.33917 3.52305 5.96694 4.43373 5.96694H7.86747V13.0331H4.43373C3.52305 13.0331 2.64967 12.6608 2.00572 11.9982C1.36177 11.3357 1 10.437 1 9.5C1 8.56298 1.36177 7.66433 2.00572 7.00175ZM4.43373 7.06612C3.80638 7.06612 3.20471 7.32254 2.7611 7.77898C2.31749 8.23543 2.06827 8.8545 2.06827 9.5C2.06827 10.1455 2.31749 10.7646 2.7611 11.221C3.20471 11.6775 3.80638 11.9339 4.43373 11.9339H6.7992V7.06612H4.43373Z" fill="black"/>
</svg>
