<svg width="14" height="19" viewBox="0 0 14 19" fill="none" xmlns="http://www.w3.org/2000/svg">
<g clip-path="url(#clip0_776_1578)">
<g clip-path="url(#clip1_776_1578)">
<path d="M6.83398 9.49998C6.83398 8.66013 7.16761 7.85467 7.76148 7.26081C8.35534 6.66694 9.1608 6.33331 10.0007 6.33331C10.8405 6.33331 11.646 6.66694 12.2398 7.26081C12.8337 7.85467 13.1673 8.66013 13.1673 9.49998C13.1673 10.3398 12.8337 11.1453 12.2398 11.7392C11.646 12.333 10.8405 12.6666 10.0007 12.6666C9.1608 12.6666 8.35534 12.333 7.76148 11.7392C7.16761 11.1453 6.83398 10.3398 6.83398 9.49998Z" fill="#1ABCFE"/>
<path d="M0.5 15.8334C0.5 14.9935 0.83363 14.188 1.4275 13.5942C2.02136 13.0003 2.82681 12.6667 3.66667 12.6667H6.83333V15.8334C6.83333 16.6732 6.4997 17.4787 5.90584 18.0725C5.31197 18.6664 4.50652 19 3.66667 19C2.82681 19 2.02136 18.6664 1.4275 18.0725C0.83363 17.4787 0.5 16.6732 0.5 15.8334H0.5Z" fill="#0ACF83"/>
<path d="M6.83398 0V6.33333H10.0007C10.8405 6.33333 11.646 5.9997 12.2398 5.40584C12.8337 4.81197 13.1673 4.00652 13.1673 3.16667C13.1673 2.32681 12.8337 1.52136 12.2398 0.927495C11.646 0.33363 10.8405 0 10.0007 0L6.83398 0Z" fill="#FF7262"/>
<path d="M0.5 3.16667C0.5 4.00652 0.83363 4.81197 1.4275 5.40584C2.02136 5.9997 2.82681 6.33333 3.66667 6.33333H6.83333V0H3.66667C2.82681 0 2.02136 0.33363 1.4275 0.927495C0.83363 1.52136 0.5 2.32681 0.5 3.16667H0.5Z" fill="#F24E1E"/>
<path d="M0.5 9.49998C0.5 10.3398 0.83363 11.1453 1.4275 11.7392C2.02136 12.333 2.82681 12.6666 3.66667 12.6666H6.83333V6.33331H3.66667C2.82681 6.33331 2.02136 6.66694 1.4275 7.26081C0.83363 7.85467 0.5 8.66013 0.5 9.49998H0.5Z" fill="#A259FF"/>
</g>
</g>
<defs>
<clipPath id="clip0_776_1578">
<rect width="12.6667" height="19" fill="white" transform="translate(0.5)"/>
</clipPath>
<clipPath id="clip1_776_1578">
<rect width="12.6667" height="19" fill="white" transform="translate(0.5)"/>
</clipPath>
</defs>
</svg>
