<svg width="17" height="19" viewBox="0 0 17 19" fill="none" xmlns="http://www.w3.org/2000/svg">
<g clip-path="url(#clip0_776_1605)">
<g clip-path="url(#clip1_776_1605)">
<path d="M0 0L1.5 17L8.5 19L15.5 17C16 11.3335 16.5 5.6665 17 0H0ZM1.0918 1H15.9082L14.5645 16.2275L8.5 17.96L2.43555 16.2275L1.0918 1ZM4.77539 4L4.29492 10H10.79L10.585 12.5L8.5 12.8096L6.44043 12.5L6.34961 11.5H4.41992L4.61523 14L8.49512 15L12.3799 14L12.875 8H6.54492L6.70508 6H10.8848L11 7H12.8496L12.5 4H4.77539Z" fill="black"/>
</g>
</g>
<defs>
<clipPath id="clip0_776_1605">
<rect width="17.0003" height="19" fill="white"/>
</clipPath>
<clipPath id="clip1_776_1605">
<rect width="17.0003" height="19" fill="white"/>
</clipPath>
</defs>
</svg>
