<svg width="20" height="19" viewBox="0 0 20 19" fill="none" xmlns="http://www.w3.org/2000/svg">
<g clip-path="url(#clip0_776_1633)">
<g clip-path="url(#clip1_776_1633)">
<path d="M1 3.28184C1 1.74547 2.24547 0.5 3.78184 0.5H15.8882C17.4245 0.5 18.67 1.74547 18.67 3.28184V15.3882C18.67 16.9245 17.4245 18.17 15.8882 18.17H3.78184C2.24547 18.17 1 16.9245 1 15.3882V3.28184Z" stroke="black"/>
<path d="M9.60216 11.3656H6.75271L6.17057 13.2688C6.16268 13.3016 6.14358 13.3307 6.11657 13.351C6.08956 13.3712 6.05633 13.3814 6.0226 13.3798H4.57931C4.49709 13.3798 4.46828 13.3346 4.49286 13.2441L6.95283 6.13959C6.97757 6.06561 7.00221 5.98131 7.02674 5.8867C7.06063 5.74864 7.07725 5.60691 7.07623 5.46475C7.07455 5.45303 7.07563 5.44107 7.07937 5.42984C7.08311 5.4186 7.08942 5.40839 7.09779 5.40002C7.10616 5.39164 7.11636 5.38532 7.1276 5.38157C7.13883 5.37782 7.15078 5.37673 7.1625 5.37839H9.12379C9.18125 5.37839 9.2143 5.39906 9.22244 5.44009L12.03 13.2564C12.0546 13.3388 12.0299 13.3799 11.9559 13.3798H10.3523C10.3248 13.3829 10.297 13.3758 10.2743 13.3599C10.2516 13.344 10.2355 13.3204 10.2289 13.2935L9.60216 11.3656ZM7.18094 10.0528H9.26877C9.21944 9.88842 9.04976 9.50839 8.984 9.3027C8.91807 9.09726 8.82783 8.93364 8.75376 8.69921C8.67969 8.46488 8.60568 8.23052 8.53172 7.99613C8.45765 7.76171 8.38982 7.53554 8.32823 7.31762C8.26653 7.0998 8.21102 6.90039 8.1617 6.71937H8.14933C8.07995 7.05255 7.99345 7.38194 7.89016 7.70621C7.77491 8.07632 7.65776 8.45461 7.5387 8.8411C7.41938 9.22771 7.29587 9.724 7.18094 10.0528Z" fill="black"/>
<path d="M13.6985 6.66624C13.5727 6.67128 13.4472 6.64971 13.3303 6.60295C13.2134 6.55618 13.1076 6.48527 13.02 6.39485C12.9326 6.3005 12.8647 6.18981 12.8202 6.06914C12.7757 5.94846 12.7556 5.82019 12.7608 5.69169C12.7564 5.56446 12.7788 5.43772 12.8266 5.31975C12.8745 5.20179 12.9467 5.09524 13.0385 5.00708C13.1294 4.91981 13.2367 4.85145 13.3542 4.80593C13.4717 4.76041 13.5971 4.73864 13.7231 4.74189C13.8513 4.73484 13.9796 4.7548 14.0997 4.80049C14.2197 4.84617 14.3288 4.91655 14.42 5.00708C14.5051 5.09893 14.5713 5.20669 14.6147 5.32417C14.6581 5.44165 14.6779 5.56654 14.6729 5.69169C14.6781 5.82069 14.6573 5.94942 14.6117 6.07022C14.5661 6.19101 14.4967 6.30141 14.4076 6.39485C14.3146 6.48661 14.2035 6.55809 14.0815 6.6048C13.9594 6.6515 13.829 6.67242 13.6985 6.66624ZM12.8998 13.2571V7.61723C12.8998 7.54316 12.9325 7.50621 12.9986 7.50621H14.4002C14.466 7.50621 14.4989 7.54321 14.4989 7.61723V13.2571C14.4989 13.3395 14.466 13.3806 14.4002 13.3805H13.0108C12.9367 13.3805 12.8997 13.3394 12.8998 13.2571Z" fill="black"/>
</g>
</g>
<defs>
<clipPath id="clip0_776_1633">
<rect width="19" height="19" fill="white" transform="translate(0.5)"/>
</clipPath>
<clipPath id="clip1_776_1633">
<rect width="18.67" height="18.67" fill="white" transform="translate(0.5)"/>
</clipPath>
</defs>
</svg>
