<svg width="20" height="19" viewBox="0 0 20 19" fill="none" xmlns="http://www.w3.org/2000/svg">
<g clip-path="url(#clip0_776_1622)">
<g clip-path="url(#clip1_776_1622)">
<path d="M0.5 3.25195C0.5 1.45595 1.95595 0 3.75195 0H15.748C17.5441 0 19 1.45595 19 3.25195V15.248C19 17.0441 17.5441 18.5 15.748 18.5H3.75195C1.95595 18.5 0.5 17.0441 0.5 15.248V3.25195Z" fill="#49021F"/>
<path d="M7.07114 5.47338V13.1335C7.07114 13.2152 7.03447 13.2559 6.96113 13.2558H5.5626C5.49711 13.2558 5.46484 13.2152 5.46484 13.1335V5.47338C5.46484 5.40821 5.5013 5.37555 5.57485 5.37555H6.97339C6.98667 5.37366 7.00021 5.37489 7.01294 5.37914C7.02567 5.38339 7.03723 5.39054 7.04671 5.40003C7.0562 5.40952 7.06334 5.42109 7.06758 5.43382C7.07182 5.44655 7.07304 5.46009 7.07114 5.47338Z" fill="#FF3366"/>
<path d="M11.61 13.4217C11.0474 13.4302 10.49 13.3133 9.97819 13.0794C9.50148 12.8588 9.103 12.4986 8.83548 12.0466C8.54141 11.5189 8.39763 10.9206 8.4198 10.3169C8.41524 9.75595 8.55862 9.20367 8.83548 8.71573C9.12061 8.21867 9.54 7.81199 10.0456 7.5423C10.6372 7.23417 11.2978 7.08268 11.9645 7.10227C12.0052 7.10227 12.0581 7.10431 12.1234 7.1084C12.1886 7.11259 12.3314 7.11872 12.4212 7.12671V4.81266C12.4212 4.7558 12.4456 4.72717 12.4946 4.72717H13.9118C13.9218 4.72576 13.9319 4.72669 13.9415 4.72988C13.951 4.73307 13.9596 4.73843 13.9668 4.74554C13.9739 4.75265 13.9792 4.76132 13.9824 4.77085C13.9856 4.78039 13.9865 4.79053 13.9851 4.80048V11.9304C13.9851 12.0691 13.9912 12.2198 14.0034 12.3827C14.0157 12.5458 14.0259 12.6925 14.0339 12.8227C14.0355 12.8481 14.0293 12.8734 14.0162 12.8952C14.0031 12.917 13.9837 12.9344 13.9605 12.945C13.5829 13.1102 13.1882 13.2332 12.7835 13.3117C12.3964 13.3831 12.0036 13.4199 11.61 13.4217ZM12.4212 11.906V8.56903C12.3329 8.55153 12.2436 8.5393 12.1539 8.53241C12.0707 8.524 11.987 8.51991 11.9034 8.52015C11.6068 8.5172 11.3137 8.5842 11.0478 8.71572C10.7629 8.85144 10.5255 9.06975 10.3663 9.34224C10.2072 9.61473 10.1337 9.92881 10.1555 10.2436C10.1495 10.5101 10.193 10.7753 10.2839 11.0259C10.3578 11.2278 10.4745 11.4113 10.626 11.5638C10.7712 11.704 10.947 11.8085 11.1395 11.8693C11.3428 11.9351 11.5553 11.9682 11.769 11.9671C11.8829 11.9671 11.9891 11.9631 12.0868 11.9549C12.1994 11.9478 12.3113 11.9315 12.4212 11.906Z" fill="#FF3366"/>
</g>
</g>
<defs>
<clipPath id="clip0_776_1622">
<rect width="19" height="19" fill="white" transform="translate(0.5)"/>
</clipPath>
<clipPath id="clip1_776_1622">
<rect width="18.5" height="18.5" fill="white" transform="translate(0.5)"/>
</clipPath>
</defs>
</svg>
