<svg width="20" height="19" viewBox="0 0 20 19" fill="none" xmlns="http://www.w3.org/2000/svg">
<g clip-path="url(#clip0_809_4455)">
<path d="M2.46147 0.204552V0.766057H3.45079V7.4239H2.46147V7.97204H8.6915V6.03351H8.04978V7.34369H4.50695V0.766057H5.49627V0.204552H2.46147ZM12.6889 0.792795L9.9081 8.01215H9.22627V8.57365H11.4188V8.01215H10.5632L11.2183 6.31426H14.4804L15.1354 8.01215H14.2664V8.57365H17.1007V8.01215H16.3387L13.5579 0.792795H12.6889ZM12.8627 2.0495L14.2798 5.75276H11.4322L12.8627 2.0495ZM0.242188 8.62713V10.4587H0.883908V9.25548H3.17004V15.8598H2.18072V16.408H5.21552V15.8598H4.2262V9.25548H6.51233V10.4587H7.14068V8.62713H0.242188ZM11.3119 9.17526V9.7234H12.1407L14.4135 13.1325L12.1809 16.3946H11.2851V16.9428H13.852V16.3946H12.8493L14.7477 13.6138L16.606 16.3946H15.6836V16.9428H18.7585V16.3946H17.9296L15.4697 12.7181L17.5285 9.7234H18.4109V9.17526H15.8574V9.7234H16.8601L15.1488 12.2368L13.4777 9.7234H14.4001V9.17526H11.3119ZM5.56312 11.2609V11.809H6.55243V18.4802H5.56312V19.0283H11.9135V17.3037H11.2718V18.3866H7.62197V15.1379H10.1621V16.1139H10.8038V13.5202H10.1621V14.4962H7.62197V11.8892H11.1915V12.9855H11.8333V11.2609H5.56312Z" fill="#1A212B"/>
</g>
<defs>
<clipPath id="clip0_809_4455">
<rect width="19" height="19" fill="white" transform="translate(0.5)"/>
</clipPath>
</defs>
</svg>
