<?xml version="1.0" encoding="utf-8"?>
<!-- Generator: Adobe Illustrator 23.0.3, SVG Export Plug-In . SVG Version: 6.00 Build 0)  -->
<svg version="1.1" id="Capa_1" xmlns="http://www.w3.org/2000/svg" xmlns:xlink="http://www.w3.org/1999/xlink" x="0px" y="0px"
	 viewBox="0 0 54 54" style="enable-background:new 0 0 54 54;" xml:space="preserve">
<g>
	<path d="M41.8,0H12.2C5.5,0,0,5.5,0,12.2v29.6C0,48.5,5.5,54,12.2,54h29.6C48.5,54,54,48.5,54,41.8V12.2C54,5.5,48.5,0,41.8,0z
		 M52,41.8C52,47.4,47.4,52,41.8,52H12.2C6.6,52,2,47.4,2,41.8V12.2C2,6.6,6.6,2,12.2,2h29.6C47.4,2,52,6.6,52,12.2V41.8z"/>
	<path d="M25.7,36.1c-1,0.8-2.4,1.2-4.2,1.2H16v-11V12h-2.9v28h9.1c3.5,0,5.9-1.3,7.2-3.8"/>
	<path d="M37.1,21v-1h-2.8v20h2.9V25.2c0-0.9,0.4-1.6,1.2-2.1c0.8-0.5,1.7-0.8,2.7-0.8c1,0,2,0.1,2.9,0.4l0.7-2.7
		c-1.1-0.2-2.1-0.3-3-0.3C39.8,19.7,38.3,20.1,37.1,21z"/>
</g>
</svg>
