<svg width="20" height="19" viewBox="0 0 20 19" fill="none" xmlns="http://www.w3.org/2000/svg">
<g clip-path="url(#clip0_776_2245)">
<g clip-path="url(#clip1_776_2245)">
<path d="M1 3.28184C1 1.74547 2.24547 0.5 3.78184 0.5H15.8882C17.4245 0.5 18.67 1.74547 18.67 3.28184V15.3882C18.67 16.9245 17.4245 18.17 15.8882 18.17H3.78184C2.24547 18.17 1 16.9245 1 15.3882V3.28184Z" stroke="black"/>
<path d="M10.2667 13.3845H5.40644C5.32423 13.3845 5.28315 13.3393 5.2832 13.2488L5.28896 5.5081C5.28679 5.49302 5.28817 5.47764 5.29298 5.46318C5.29779 5.44872 5.30591 5.43558 5.31668 5.4248C5.32746 5.41403 5.3406 5.40591 5.35506 5.4011C5.36952 5.39629 5.3849 5.39491 5.39998 5.39708H6.82982C6.84154 5.39544 6.85349 5.39653 6.86471 5.40029C6.87594 5.40405 6.88613 5.41036 6.8945 5.41874C6.90287 5.42711 6.90917 5.43731 6.91292 5.44854C6.91667 5.45977 6.91776 5.47171 6.9161 5.48343L6.9361 11.7446H10.5101C10.5841 11.7446 10.6129 11.7816 10.5964 11.8556L10.3899 13.2735C10.3894 13.2917 10.3847 13.3095 10.3762 13.3255C10.3677 13.3416 10.3555 13.3555 10.3407 13.366C10.3178 13.3779 10.2924 13.3842 10.2667 13.3845Z" fill="black"/>
<path d="M11.6335 7.25484H12.9782C13.0147 7.25516 13.0501 7.26737 13.079 7.28963C13.1079 7.31188 13.1288 7.34295 13.1385 7.37815C13.1678 7.43222 13.1886 7.49048 13.2002 7.55087C13.2174 7.63023 13.2297 7.71055 13.2372 7.79139C13.2453 7.87775 13.2494 7.97027 13.2495 8.06895C13.4801 7.80046 13.7582 7.57674 14.0698 7.409C14.3983 7.21991 14.772 7.12395 15.1509 7.13144C15.166 7.1293 15.1813 7.13069 15.1958 7.13552C15.2102 7.14034 15.2234 7.14845 15.2341 7.15922C15.2449 7.16999 15.253 7.18312 15.2578 7.19756C15.2627 7.21201 15.2641 7.22738 15.2619 7.24246V8.73506C15.2619 8.79269 15.2206 8.82141 15.1385 8.82141C14.8878 8.80367 14.6359 8.82237 14.3905 8.87692C14.1699 8.92078 13.9547 8.98903 13.7491 9.0804C13.5687 9.14819 13.4 9.24394 13.2493 9.36415V13.2715C13.2493 13.3455 13.2164 13.3825 13.1505 13.3825H11.7445C11.7278 13.3849 11.7107 13.3834 11.6946 13.378C11.6785 13.3727 11.6639 13.3637 11.652 13.3517C11.64 13.3397 11.631 13.3251 11.6256 13.3091C11.6203 13.293 11.6187 13.2759 11.6211 13.2591V9.01882C11.6211 8.83796 11.6191 8.64674 11.615 8.44515C11.6107 8.24378 11.6046 8.04437 11.5966 7.8469C11.5911 7.67744 11.5746 7.50851 11.5472 7.34119C11.5442 7.32926 11.5442 7.31673 11.5475 7.30484C11.5507 7.29295 11.557 7.28211 11.5657 7.27339C11.5744 7.26467 11.5853 7.25838 11.5972 7.25512C11.609 7.25187 11.6216 7.25177 11.6335 7.25484Z" fill="black"/>
</g>
</g>
<defs>
<clipPath id="clip0_776_2245">
<rect width="19" height="19" fill="white" transform="translate(0.5)"/>
</clipPath>
<clipPath id="clip1_776_2245">
<rect width="18.67" height="18.67" fill="white" transform="translate(0.5)"/>
</clipPath>
</defs>
</svg>
