<svg width="20" height="19" viewBox="0 0 20 19" fill="none" xmlns="http://www.w3.org/2000/svg">
<g clip-path="url(#clip0_776_1626)">
<g clip-path="url(#clip1_776_1626)">
<path d="M1 3.28184C1 1.74547 2.24547 0.5 3.78184 0.5H15.8882C17.4245 0.5 18.67 1.74547 18.67 3.28184V15.3882C18.67 16.9245 17.4245 18.17 15.8882 18.17H3.78184C2.24547 18.17 1 16.9245 1 15.3882V3.28184Z" stroke="black"/>
<path d="M4.66797 13.2701V5.38769C4.66797 5.33023 4.69271 5.30134 4.74204 5.30134C4.87341 5.30134 5.02963 5.29928 5.21071 5.29516C5.39157 5.29109 5.58692 5.28699 5.79675 5.28287C6.00642 5.2788 6.22847 5.27467 6.46289 5.2705C6.6973 5.26643 6.9296 5.26436 7.15979 5.26431C7.69568 5.25056 8.2299 5.32988 8.73868 5.49873C9.12455 5.62927 9.47646 5.84419 9.76881 6.12784C10.0166 6.37372 10.2081 6.67041 10.3301 6.99746C10.4454 7.3158 10.5038 7.65192 10.5027 7.99048C10.526 8.56779 10.3662 9.1377 10.0462 9.61877C9.74001 10.0481 9.3095 10.3731 8.81275 10.5501C8.25911 10.7495 7.67412 10.8477 7.08572 10.84C6.9047 10.84 6.77729 10.838 6.70349 10.8338C6.62942 10.8298 6.5184 10.8277 6.37043 10.8276V13.2578C6.37257 13.2728 6.37118 13.2882 6.36636 13.3027C6.36153 13.3171 6.35342 13.3302 6.34265 13.341C6.33188 13.3518 6.31875 13.3599 6.30431 13.3647C6.28986 13.3695 6.27449 13.3709 6.25941 13.3688H4.75441C4.69678 13.3688 4.66797 13.3359 4.66797 13.2701ZM6.37042 6.78158V9.33501C6.47721 9.34332 6.57586 9.34744 6.66637 9.34739H7.07335C7.37193 9.35179 7.66941 9.3102 7.95534 9.22407C8.1998 9.15148 8.41826 9.01016 8.58468 8.81694C8.75687 8.59112 8.8422 8.31095 8.82512 8.02749C8.83165 7.78888 8.76956 7.55342 8.64622 7.34906C8.51659 7.15146 8.32925 6.99856 8.10968 6.91116C7.82294 6.79966 7.51663 6.7472 7.20913 6.75692C7.01183 6.75692 6.8371 6.75898 6.68495 6.7631C6.53257 6.76734 6.42773 6.7735 6.37042 6.78158Z" fill="black"/>
<path d="M15.3046 8.8416C15.0184 8.72391 14.7205 8.63708 14.4159 8.5826C14.1346 8.51805 13.8471 8.48494 13.5586 8.48387C13.4025 8.47966 13.2466 8.49836 13.096 8.53938C13 8.56072 12.9148 8.61537 12.8554 8.69362C12.8152 8.75619 12.7939 8.82896 12.7938 8.90329C12.796 8.97544 12.822 9.04482 12.8677 9.10068C12.9398 9.18497 13.0279 9.25416 13.1269 9.30424C13.3028 9.39895 13.484 9.48337 13.6696 9.55706C14.0836 9.69569 14.4791 9.88417 14.8476 10.1184C15.0986 10.2768 15.3063 10.4951 15.452 10.7536C15.5746 10.9985 15.636 11.2693 15.6309 11.5431C15.6383 11.9046 15.535 12.2597 15.3348 12.5608C15.1206 12.8665 14.8231 13.1041 14.4776 13.2454C14.0369 13.4222 13.5644 13.5063 13.0898 13.4922C12.7398 13.4957 12.3905 13.4626 12.0474 13.3934C11.7613 13.3431 11.4819 13.2604 11.2146 13.1467C11.1876 13.1328 11.1652 13.1115 11.1499 13.0853C11.1346 13.059 11.1271 13.029 11.1283 12.9987V11.6665C11.1268 11.6534 11.1289 11.6402 11.1344 11.6283C11.1398 11.6163 11.1484 11.6061 11.1593 11.5986C11.1698 11.5926 11.182 11.59 11.1941 11.5911C11.2062 11.5922 11.2177 11.597 11.227 11.6048C11.5396 11.7791 11.8764 11.9059 12.2263 11.981C12.521 12.0549 12.8232 12.0942 13.1269 12.0982C13.3444 12.1117 13.5621 12.0737 13.7621 11.9872C13.8234 11.9591 13.8753 11.9139 13.9114 11.857C13.9475 11.8001 13.9663 11.7339 13.9656 11.6665C13.9604 11.6044 13.941 11.5443 13.9089 11.4908C13.8769 11.4374 13.833 11.392 13.7807 11.3581C13.5472 11.2052 13.2941 11.0848 13.0281 11.0004C12.6408 10.8655 12.2735 10.6788 11.9364 10.4453C11.6953 10.2777 11.4967 10.0559 11.3567 9.79769C11.2353 9.55465 11.1739 9.28603 11.1777 9.01435C11.177 8.68796 11.2667 8.36777 11.4368 8.08922C11.6307 7.78241 11.9092 7.53821 12.2387 7.38602C12.6212 7.17689 13.0511 7.06961 13.487 7.07447C13.8337 7.05636 14.1812 7.06141 14.5272 7.08959C14.8087 7.14688 15.0822 7.23814 15.3417 7.36135C15.3584 7.36615 15.3738 7.37478 15.3867 7.38657C15.3995 7.39835 15.4094 7.41296 15.4156 7.42924C15.424 7.45934 15.4281 7.49046 15.428 7.5217V8.76761C15.4288 8.7821 15.4259 8.79655 15.4194 8.80954C15.4129 8.82252 15.4031 8.83358 15.391 8.8416C15.3781 8.84978 15.3631 8.85412 15.3478 8.85412C15.3325 8.85412 15.3175 8.84978 15.3046 8.8416Z" fill="black"/>
</g>
</g>
<defs>
<clipPath id="clip0_776_1626">
<rect width="19" height="19" fill="white" transform="translate(0.5)"/>
</clipPath>
<clipPath id="clip1_776_1626">
<rect width="18.67" height="18.67" fill="white" transform="translate(0.5)"/>
</clipPath>
</defs>
</svg>
