<svg width="20" height="19" viewBox="0 0 20 19" fill="none" xmlns="http://www.w3.org/2000/svg">
<g clip-path="url(#clip0_776_1650)">
<g clip-path="url(#clip1_776_1650)">
<path d="M0.5 3.28184C0.5 1.46933 1.96933 0 3.78184 0H15.8882C17.7007 0 19.17 1.46933 19.17 3.28184V15.3882C19.17 17.2007 17.7007 18.67 15.8882 18.67H3.78184C1.96933 18.67 0.5 17.2007 0.5 15.3882V3.28184Z" fill="#00005B"/>
<path d="M4.90234 13.2138V5.34575C4.90234 5.27907 4.93568 5.24573 4.96902 5.24573C5.10238 5.24573 5.26908 5.24573 5.43577 5.24573C5.60247 5.24573 5.8025 5.24573 6.03588 5.24573C6.23592 5.24573 6.46929 5.24573 6.70267 5.24573C6.93604 5.24573 7.23609 5.31241 7.46947 5.31241C8.0029 5.31241 8.53633 5.37908 9.03642 5.54578C9.43649 5.67914 9.76988 5.87917 10.0699 6.17923C10.3033 6.4126 10.5033 6.71266 10.6367 7.04605C10.7367 7.37944 10.8034 7.71283 10.8034 8.04623C10.8367 8.613 10.67 9.17976 10.3366 9.67985C10.0366 10.1133 9.60318 10.4467 9.10309 10.6134C8.53633 10.8134 7.96956 10.9134 7.36945 10.9134C7.20275 10.9134 7.0694 10.9134 7.00272 10.9134C6.93604 10.9134 6.63599 10.8467 6.46929 10.8467V13.2805C6.46929 13.3472 6.43595 13.3805 6.36927 13.3805H4.96902C4.93568 13.3138 4.90234 13.2805 4.90234 13.2138ZM6.50263 6.71266V9.27978C6.60265 9.27978 6.9027 9.34646 7.00272 9.34646H7.40279C7.70284 9.34646 8.0029 9.31312 8.26961 9.2131C8.50299 9.14642 8.73636 9.01307 8.90306 8.81303C9.06975 8.57966 9.16977 8.31294 9.13643 8.01289C9.13643 7.77951 9.06975 7.54614 8.96974 7.3461C8.83638 7.14607 8.63634 6.97937 8.43631 6.91269C8.13625 6.81267 7.8362 6.746 7.53615 6.746C7.33611 6.746 7.16942 6.746 7.00272 6.746C6.83602 6.77933 6.53597 6.71266 6.50263 6.71266Z" fill="#9999FF"/>
<path d="M11.8703 7.24609H13.2039C13.2705 7.24609 13.3372 7.31276 13.3706 7.37944C13.4039 7.44612 13.4372 7.47946 13.4372 7.54614C13.4706 7.61282 13.4706 7.71284 13.4706 7.77952C13.4706 7.87953 13.4706 7.94621 13.4706 8.04623C13.7039 7.77952 13.9707 7.54614 14.3041 7.37944C14.6374 7.17941 15.0042 7.07939 15.3709 7.11273C15.4376 7.11273 15.4709 7.14607 15.4709 7.17941V8.71302C15.4709 8.77969 15.4376 8.81303 15.3376 8.81303C15.0709 8.77969 14.8375 8.81303 14.6041 8.87971C14.3707 8.91305 14.1707 8.97973 13.9707 9.07975C13.804 9.14643 13.6039 9.24644 13.4706 9.3798V13.2805C13.4706 13.3472 13.4372 13.3805 13.3706 13.3805H11.9703C11.9036 13.3805 11.8703 13.3472 11.8369 13.2805V9.01307C11.8369 8.84637 11.8369 8.64634 11.8369 8.4463C11.8369 8.24627 11.8369 8.04623 11.8036 7.84619C11.8036 7.6795 11.7703 7.5128 11.7703 7.3461C11.7703 7.31276 11.7703 7.31277 11.8036 7.27943C11.8036 7.24609 11.8369 7.24609 11.8703 7.24609Z" fill="#9999FF"/>
</g>
</g>
<defs>
<clipPath id="clip0_776_1650">
<rect width="19" height="19" fill="white" transform="translate(0.5)"/>
</clipPath>
<clipPath id="clip1_776_1650">
<rect width="18.67" height="18.67" fill="white" transform="translate(0.5)"/>
</clipPath>
</defs>
</svg>
