<svg width="24" height="19" viewBox="0 0 24 19" fill="none" xmlns="http://www.w3.org/2000/svg">
<g clip-path="url(#clip0_776_1598)">
<g clip-path="url(#clip1_776_1598)">
<path d="M23.3595 6.40578L18.519 0.698816C18.4641 0.636323 18.3963 0.586249 18.3203 0.551957C18.2443 0.517665 18.1618 0.49993 18.0784 0.49998L12 0L6 0.5C5.91692 0.499343 5.83466 0.516321 5.75869 0.549767C5.68271 0.583212 5.61477 0.632376 5.55939 0.693986L0.642704 6.40093C0.548519 6.50916 0.497739 6.64813 0.500077 6.79127C0.502415 6.93441 0.557706 7.07167 0.655376 7.1768L11.6441 18.5C11.6989 18.5585 11.7651 18.6051 11.8387 18.6369C11.9123 18.6688 11.9918 18.6853 12.0721 18.6853C12.1524 18.6853 12.2318 18.6688 12.3054 18.6369C12.379 18.6051 12.4453 18.5585 12.5 18.5L23.3468 7.1768C23.4431 7.07196 23.4976 6.9357 23.4999 6.79368C23.5023 6.65165 23.4523 6.51369 23.3595 6.40578ZM6.24056 7.37076L10.2991 15.7588L2.42951 7.37076H6.24056ZM16.2595 7.37076L12.0011 16.8596L7.5 7.37076H16.2595ZM7.80609 6.20696L12.0011 1.55177L15.9535 6.20696H7.80609ZM17.519 7.37076H21.5727L13.7031 15.7588L17.519 7.37076ZM21.6302 6.20696H17.4157L13.1708 1.16384L17.5 1.5L21.6302 6.20696ZM6.5 1.5L10.8313 1.16384L6.34389 6.20696H2.372L6.5 1.5Z" fill="black"/>
</g>
</g>
<defs>
<clipPath id="clip0_776_1598">
<rect width="23" height="19" fill="white" transform="translate(0.5)"/>
</clipPath>
<clipPath id="clip1_776_1598">
<rect width="23" height="19" fill="white" transform="translate(0.5)"/>
</clipPath>
</defs>
</svg>
