<svg width="24" height="19" viewBox="0 0 24 19" fill="none" xmlns="http://www.w3.org/2000/svg">
<g clip-path="url(#clip0_776_1601)">
<g clip-path="url(#clip1_776_1601)">
<path d="M5.50806 0.619264L11.9768 0L18.4456 0.619264L23.4536 6.70694L11.9768 18.8088L0.5 6.70694L5.50806 0.619264Z" fill="#FDB300"/>
<path d="M5.14868 6.70697L11.9768 18.8089L0.5 6.70697H5.14868Z" fill="#EA6C00"/>
<path d="M18.8044 6.70697L11.9763 18.8089L23.4531 6.70697H18.8044Z" fill="#EA6C00"/>
<path d="M5.14844 6.70697H18.8047L11.9766 18.8089L5.14844 6.70697Z" fill="#FDAD00"/>
<path d="M11.9766 0L5.5078 0.619256L5.14844 6.70694L11.9766 0Z" fill="#FDD231"/>
<path d="M11.9765 0L18.4453 0.619256L18.8047 6.70694L11.9765 0Z" fill="#FDD231"/>
<path d="M23.4531 6.70694L18.445 0.619263L18.8044 6.70694H23.4531Z" fill="#FDAD00"/>
<path d="M0.5 6.70694L5.50805 0.619263L5.14869 6.70694H0.5Z" fill="#FDAD00"/>
<path d="M11.9766 0L5.14844 6.70694H18.8047L11.9766 0Z" fill="#FEEEB7"/>
</g>
</g>
<defs>
<clipPath id="clip0_776_1601">
<rect width="23" height="19" fill="white" transform="translate(0.5)"/>
</clipPath>
<clipPath id="clip1_776_1601">
<rect width="23" height="18.8182" fill="white" transform="translate(0.5)"/>
</clipPath>
</defs>
</svg>
