<svg width="19" height="19" viewBox="0 0 19 19" fill="none" xmlns="http://www.w3.org/2000/svg">
<g clip-path="url(#clip0_825_2623)">
<path d="M9.5 0C4.25344 0 0 4.25344 0 9.5C0 14.7466 4.25344 19 9.5 19C14.7466 19 19 14.7466 19 9.5C19 4.25344 14.7466 0 9.5 0ZM9.5 1.09615C14.1415 1.09615 17.9038 4.85852 17.9038 9.5C17.9038 14.1415 14.1415 17.9038 9.5 17.9038C4.85852 17.9038 1.09615 14.1415 1.09615 9.5C1.09615 4.85852 4.85852 1.09615 9.5 1.09615ZM9.5 2.19231C7.01356 2.19231 4.81592 3.44297 3.49542 5.34589C3.60138 5.34589 3.70309 5.34446 3.79443 5.34446C4.56941 5.34446 5.77122 5.2524 5.77122 5.2524C6.16986 5.22938 6.21482 5.8236 5.81618 5.87256C5.81618 5.87256 5.40917 5.94125 4.96267 5.9639L7.65809 14.1387L9.2752 9.17886L8.12981 5.9639C7.73117 5.94089 7.34337 5.87256 7.34337 5.87256C6.94474 5.84954 6.9897 5.22938 7.38833 5.2524C7.38833 5.2524 8.61517 5.34446 9.34229 5.34446C10.1173 5.34446 11.3191 5.2524 11.3191 5.2524C11.7177 5.22938 11.7627 5.8236 11.364 5.87256C11.364 5.87256 10.9541 5.94125 10.5105 5.9639L13.1838 14.0923L13.9253 11.5667C14.2987 10.5849 14.4869 9.7582 14.4869 9.10964C14.4869 8.17389 14.1639 7.54533 13.8803 7.04293C13.5069 6.41995 13.1617 5.87467 13.1617 5.25169C13.1617 4.61263 13.5943 4.02884 14.2293 3.93859C12.9534 2.85194 11.3032 2.19231 9.5 2.19231ZM16.0248 6.22795C16.0329 6.36497 16.0362 6.50568 16.0362 6.65257C16.0362 7.41878 15.8959 8.28329 15.4746 9.36227L13.343 15.7037C15.4187 14.4131 16.8077 12.1187 16.8077 9.5C16.8077 8.32273 16.5214 7.21376 16.0248 6.22795ZM2.7989 6.59262C2.4105 7.48453 2.19231 8.46669 2.19231 9.5C2.19231 12.3241 3.80536 14.7742 6.15587 15.9906L2.7989 6.59262ZM9.63488 10.1658L7.49038 16.5201C8.12981 16.7035 8.80248 16.8077 9.5 16.8077C10.3272 16.8077 11.1193 16.6631 11.8614 16.4088L9.63488 10.1658Z" fill="black"/>
</g>
<defs>
<clipPath id="clip0_825_2623">
<rect width="19" height="19" fill="white"/>
</clipPath>
</defs>
</svg>
