<?xml version="1.0" encoding="utf-8"?>
<!-- Generator: Adobe Illustrator 19.2.1, SVG Export Plug-In . SVG Version: 6.00 Build 0)  -->
<svg version="1.1" xmlns="http://www.w3.org/2000/svg" xmlns:xlink="http://www.w3.org/1999/xlink" x="0px" y="0px"
	 viewBox="0 0 411.1 140.6" style="enable-background:new 0 0 411.1 140.6;" xml:space="preserve">
<style type="text/css">
	.st0{fill:#00806F;}
	.st1{display:none;}
	.st2{display:inline;}
	.st3{fill:#FFFFFF;}
</style>
<g id="pos">
	<g>
		<path class="st0" d="M55,83.7H39.9c-0.5-0.8-1-2.5-1.5-5c-3.8,4.1-9.7,6.2-18,6.2c-5.7,0-10.4-1.3-14-3.9C2.2,78,0,73.5,0,67.7
			c0-8.4,3.3-14.1,9.8-17.3c3-1.5,9.1-2.8,18.3-3.9c6.5-0.8,9.8-2.6,9.8-5.3c0-2.4-1-4.3-2.9-5.7c-2-1.4-4.2-2.1-6.8-2.1
			c-2.7,0-5,0.7-6.9,2.2c-2.1,1.6-3.4,3.9-3.7,6.8H2.1c0.4-5,1.6-9,3.5-12.1c2-3.1,5.1-5.4,9.5-7.1c4.1-1.5,8.7-2.3,13.8-2.3
			C46.3,21,55,29.3,55,45.8V83.7z M37.9,53.8c-1.6,1.3-4.4,2.3-8.5,3.1c-4.6,0.8-7.6,1.7-8.9,2.4c-2.8,1.5-4.2,4-4.2,7.6
			c0,4.6,2.4,6.9,7.2,6.9c2.2,0,4.5-0.5,6.9-1.6c2.4-1,4.2-2.3,5.4-3.7c1.6-2,2.4-4.9,2.4-8.9c0-0.7,0-1.7-0.1-3
			C37.9,55.3,37.9,54.4,37.9,53.8"/>
		<rect x="61.6" y="0.9" class="st0" width="16.2" height="82.8"/>
		<path class="st0" d="M133.4,52.5c0,6.1-0.3,10.7-0.9,13.9c-0.9,5.3-2.7,9.4-5.4,12.4c-4.4,4.8-10.5,7.1-18.4,7.1
			c-4.9,0-9.4-1-13.3-3.1c-4.4-2.3-7.5-5.5-9.3-9.6c-1.6-3.8-2.4-7.9-2.4-12.5V5.9h16.2v16.5h33.6V34H99.8v25.2
			c0,3.1,0.2,5.5,0.7,7.1c1.1,3.7,3.9,5.5,8.5,5.5c2.7,0,4.7-0.8,6.2-2.4c2.1-2.3,3.2-7.3,3.2-14.8V43.4h15.1V52.5z"/>
		<path class="st0" d="M173.8,37.4c-1.5-0.2-3-0.3-4.5-0.3c-9.9,0-14.9,4.9-14.9,14.7v31.9h-16.2V22.3h15.3v4.7c0,1.8,0,2.6,0.1,2.6
			c0.1-0.1,0.2-0.2,0.3-0.2c3.1-3.2,5.5-5.3,7.1-6.2c2.7-1.5,6.2-2.3,10.5-2.3h2.2V37.4z"/>
		<path class="st0" d="M234.1,83.7h-15.3v-5.4c0-2.1,0-3.2-0.1-3.2c0,0.1,0,0.1-0.1,0.1c-4.1,6.9-10.3,10.4-18.6,10.4
			c-5.8,0-10.6-1.9-14.4-5.6c-4.4-4.1-6.6-9.9-6.6-17.2V22.3h16.2v38c0,7.6,3.5,11.4,10.4,11.4c4.1,0,7.2-1.3,9.3-3.9
			c2.1-2.6,3.2-5.9,3.2-10V22.3h16V83.7z"/>
		<path class="st0" d="M257,15.1h-16.2V0H257V15.1z M257,83.7h-16.2V22.3H257V83.7z"/>
		<path class="st0" d="M318.5,64.1c0,4.4-1.1,8.2-3.2,11.4c-4.6,6.7-12.6,10-23.9,10c-7.8,0-14.4-1.8-19.9-5.3
			c-6.1-4-9.3-9.4-9.3-16.1h16.7c0,3,1.3,5.3,3.9,7c2.3,1.5,5.1,2.2,8.5,2.2c3,0,5.6-0.6,7.8-1.8c2.2-1.2,3.3-2.7,3.3-4.7
			c0-2.5-3.3-4.5-9.8-6c-9.7-2.2-15.8-4-18.3-5.2c-6.5-3.1-9.8-8-9.8-14.5c0-3.8,0.9-7.3,2.8-10.5c1.8-3.1,4.9-5.7,9.3-7.5
			c4.4-1.9,9.1-2.8,14.2-2.8c6.9,0,12.7,1.7,17.4,5c5.4,3.7,8.2,8.9,8.6,15.7h-16c-0.8-5.5-4.5-8.2-10.8-8.2c-2.6,0-4.9,0.6-6.8,1.7
			c-1.9,1.2-2.9,2.6-2.9,4.4c0,2.3,3.3,4.2,9.9,5.6c9.6,2.1,15.8,3.9,18.5,5.2C315.2,53,318.5,57.7,318.5,64.1"/>
		<path class="st0" d="M410.5,83.7h-15.9V46.6c0-4-1-7.1-3-9.4c-1.7-2.1-3.8-3.1-6.5-3.1c-2.8,0-5.1,1.1-7.1,3.3
			c-2.1,2.5-3.2,5.7-3.2,9.7v36.6h-16.2V46.9c0-4.1-0.5-7.1-1.5-8.9c-1.5-2.4-4.2-3.6-8.2-3.6c-6.6,0-9.9,4-9.9,12v37.3h-16.2V22.3
			h15.3v5.9c0,2.2,0,3.3,0.1,3.3c0-0.1,0-0.2,0.1-0.2c2.4-3.7,4.8-6.3,7.3-7.9c2.8-1.8,6.2-2.6,10.4-2.6s7.5,0.8,9.9,2.2
			c2.5,1.5,4.9,4,7.1,7.7c2.2-3.3,4.6-5.8,7.2-7.5c2.6-1.7,5.7-2.6,9.4-2.6c3.9,0,7.6,1,11.2,3c3.6,2,6.1,4.6,7.5,7.8
			c1.5,3.2,2.2,6.5,2.2,10V83.7z"/>
		<path class="st0" d="M-0.2,111.3h4.4c0.5,0,0.8,0.1,1.1,0.3c0.3,0.2,0.5,0.5,0.6,0.9l4.8,16.8c0.1,0.4,0.2,0.9,0.3,1.3
			c0.1,0.5,0.2,1,0.3,1.5c0.1-0.5,0.2-1.1,0.3-1.5c0.1-0.5,0.3-0.9,0.4-1.3l5.5-16.8c0.1-0.3,0.3-0.6,0.6-0.8
			c0.3-0.2,0.7-0.4,1.1-0.4h1.5c0.5,0,0.8,0.1,1.1,0.3c0.3,0.2,0.5,0.5,0.6,0.9l5.5,16.8c0.3,0.8,0.5,1.7,0.7,2.8
			c0.1-0.5,0.2-1,0.3-1.5c0.1-0.5,0.2-0.9,0.3-1.3l4.8-16.8c0.1-0.3,0.3-0.6,0.6-0.8c0.3-0.2,0.7-0.3,1.1-0.3h4.1l-8.7,28h-4.7
			l-6.1-19.1c-0.1-0.2-0.2-0.5-0.2-0.8c-0.1-0.3-0.2-0.6-0.2-0.9c-0.1,0.3-0.2,0.6-0.2,0.9c-0.1,0.3-0.2,0.5-0.2,0.8l-6.2,19.1H8.5
			L-0.2,111.3z"/>
		<polygon class="st0" points="66.6,139.3 61.4,139.3 61.4,127.1 48.2,127.1 48.2,139.3 43,139.3 43,111.3 48.2,111.3 48.2,123.3 
			61.4,123.3 61.4,111.3 66.6,111.3 		"/>
		<polygon class="st0" points="89.9,111.3 89.9,115.4 77.5,115.4 77.5,123.2 87.3,123.2 87.3,127.2 77.5,127.2 77.5,135.1 
			89.9,135.1 89.9,139.3 72.3,139.3 72.3,111.3 		"/>
		<path class="st0" d="M97.8,111.3c0.2,0,0.3,0.1,0.4,0.1c0.1,0.1,0.2,0.1,0.4,0.3c0.1,0.1,0.2,0.3,0.4,0.4l14.7,18.7
			c-0.1-0.5-0.1-0.9-0.1-1.3c0-0.4,0-0.8,0-1.2v-17h4.6v28h-2.7c-0.4,0-0.8-0.1-1-0.2c-0.3-0.1-0.5-0.4-0.8-0.7l-14.6-18.7
			c0,0.4,0.1,0.8,0.1,1.2c0,0.4,0,0.8,0,1.1v17.2h-4.6v-28h2.7C97.4,111.3,97.6,111.3,97.8,111.3"/>
		<path class="st0" d="M151.3,111.1v2.4c0,0.3-0.1,0.7-0.2,1c-0.1,0.3-0.3,0.6-0.5,0.9l-13.3,18.9h13.4v5h-21.8v-2.5
			c0-0.3,0.1-0.6,0.2-0.9c0.1-0.3,0.2-0.6,0.4-0.8l13.3-19h-12.8v-5H151.3z"/>
		<polygon class="st0" points="172.5,111.1 172.5,116.1 160.9,116.1 160.9,122.7 169.8,122.7 169.8,127.5 160.9,127.5 160.9,134.3 
			172.5,134.3 172.5,139.3 154.3,139.3 154.3,111.1 		"/>
		<path class="st0" d="M182.8,128.9v10.4h-6.5v-28.2h9.2c2,0,3.8,0.2,5.2,0.6c1.4,0.4,2.6,1,3.5,1.8c0.9,0.8,1.6,1.6,2,2.7
			c0.4,1,0.6,2.1,0.6,3.3c0,0.9-0.1,1.8-0.4,2.6c-0.2,0.8-0.6,1.6-1.1,2.3c-0.5,0.7-1.1,1.3-1.8,1.9c-0.7,0.5-1.5,1-2.4,1.3
			c0.4,0.2,0.9,0.5,1.2,0.8c0.4,0.3,0.7,0.7,1,1.2l6,9.8h-5.9c-1.1,0-1.9-0.4-2.4-1.2l-4.7-8.2c-0.2-0.4-0.4-0.6-0.7-0.8
			c-0.3-0.2-0.7-0.2-1.2-0.2H182.8z M182.8,124.3h2.6c0.9,0,1.6-0.1,2.3-0.3c0.6-0.2,1.1-0.5,1.5-0.9c0.4-0.4,0.7-0.9,0.9-1.4
			c0.2-0.5,0.3-1.1,0.3-1.7c0-1.2-0.4-2.2-1.2-2.9c-0.8-0.7-2.1-1-3.7-1h-2.6V124.3z"/>
		<path class="st0" d="M228.9,125.2c0,2-0.3,3.9-1,5.7c-0.7,1.8-1.7,3.3-3,4.6c-1.3,1.3-2.8,2.3-4.6,3c-1.8,0.7-3.8,1.1-6,1.1
			c-1.2,0-2.4-0.1-3.5-0.3c-1.1-0.2-2.1-0.6-3.1-1l-1.1,1.5c-0.2,0.3-0.5,0.6-0.8,0.8c-0.3,0.2-0.6,0.4-0.9,0.5
			c-0.3,0.1-0.6,0.2-1,0.3c-0.3,0.1-0.6,0.1-1,0.1h-2.6l3.8-5.3c-1.5-1.3-2.7-2.9-3.5-4.8c-0.8-1.9-1.3-3.9-1.3-6.2
			c0-2,0.4-3.9,1.1-5.7c0.7-1.8,1.7-3.3,3-4.6c1.3-1.3,2.8-2.3,4.6-3c1.8-0.7,3.8-1.1,6-1.1c1.4,0,2.6,0.1,3.8,0.4
			c1.2,0.3,2.3,0.7,3.4,1.2l0.8-1.1c0.2-0.3,0.4-0.5,0.6-0.7c0.2-0.2,0.4-0.4,0.6-0.5c0.2-0.1,0.4-0.2,0.7-0.3
			c0.2-0.1,0.5-0.1,0.9-0.1h3.3l-3.6,4.9c1.4,1.3,2.4,2.9,3.1,4.6C228.5,121.2,228.9,123.1,228.9,125.2 M206.2,125.2
			c0,2.5,0.5,4.5,1.6,6l10.2-14.2c-0.5-0.3-1.1-0.5-1.8-0.7c-0.6-0.2-1.3-0.2-2.1-0.2c-1.3,0-2.4,0.2-3.4,0.6c-1,0.4-1.8,1-2.5,1.8
			c-0.7,0.8-1.2,1.7-1.6,2.8C206.4,122.5,206.2,123.8,206.2,125.2 M222.1,125.2c0-1-0.1-2-0.3-2.9c-0.2-0.9-0.5-1.7-0.9-2.4
			l-9.9,13.8c0.9,0.4,2,0.5,3.2,0.5c1.3,0,2.4-0.2,3.4-0.6c1-0.4,1.8-1,2.5-1.8c0.7-0.8,1.2-1.7,1.6-2.8
			C222,127.9,222.1,126.6,222.1,125.2"/>
		<path class="st0" d="M254.6,129c0.2,0.4,0.4,0.9,0.6,1.3c0.2-0.5,0.4-0.9,0.6-1.4c0.2-0.5,0.4-0.9,0.6-1.3l8.3-15.5
			c0.1-0.2,0.2-0.3,0.3-0.5c0.1-0.1,0.2-0.2,0.4-0.3c0.1,0,0.3-0.1,0.5-0.1c0.2,0,0.4,0,0.6,0h3.9v28h-4.6v-18.1c0-0.3,0-0.7,0-1.1
			c0-0.4,0-0.8,0.1-1.2l-8.5,15.9c-0.2,0.4-0.4,0.6-0.8,0.8c-0.3,0.2-0.7,0.3-1.1,0.3h-0.7c-0.4,0-0.8-0.1-1.1-0.3
			c-0.3-0.2-0.6-0.5-0.8-0.8l-8.6-15.9c0,0.4,0.1,0.8,0.1,1.3c0,0.4,0,0.8,0,1.1v18.1H240v-28h3.9c0.2,0,0.4,0,0.6,0
			c0.2,0,0.3,0,0.5,0.1c0.1,0.1,0.3,0.1,0.4,0.3c0.1,0.1,0.2,0.3,0.3,0.5l8.4,15.6C254.3,128.1,254.5,128.5,254.6,129"/>
		<path class="st0" d="M300.6,139.3h-4c-0.5,0-0.8-0.1-1.1-0.3c-0.3-0.2-0.5-0.5-0.6-0.8l-2.1-5.7h-11.6l-2.1,5.7
			c-0.1,0.3-0.3,0.6-0.6,0.8c-0.3,0.2-0.7,0.4-1.1,0.4h-4l11-28h5.3L300.6,139.3z M282.5,128.7h8.9l-3.4-9.3
			c-0.2-0.4-0.3-0.9-0.5-1.5c-0.2-0.6-0.4-1.2-0.6-1.8c-0.2,0.7-0.4,1.3-0.5,1.8c-0.2,0.6-0.3,1.1-0.5,1.5L282.5,128.7z"/>
		<polygon class="st0" points="320.4,111.3 320.4,115.6 312,115.6 312,139.3 306.8,139.3 306.8,115.6 298.3,115.6 298.3,111.3 		"/>
		<polygon class="st0" points="343.4,111.3 343.4,115.6 335,115.6 335,139.3 329.8,139.3 329.8,115.6 321.3,115.6 321.3,111.3 		"/>
		<polygon class="st0" points="364.4,111.3 364.4,115.4 352,115.4 352,123.2 361.8,123.2 361.8,127.2 352,127.2 352,135.1 
			364.4,135.1 364.4,139.3 346.8,139.3 346.8,111.3 		"/>
		<path class="st0" d="M374.3,128.4v10.9h-5.2v-28h8.5c1.9,0,3.5,0.2,4.9,0.6c1.4,0.4,2.5,0.9,3.3,1.7c0.9,0.7,1.5,1.6,1.9,2.5
			c0.4,1,0.6,2.1,0.6,3.3c0,0.9-0.1,1.8-0.4,2.7c-0.3,0.8-0.7,1.6-1.2,2.3c-0.5,0.7-1.2,1.3-1.9,1.8c-0.8,0.5-1.6,0.9-2.6,1.2
			c0.7,0.4,1.2,0.9,1.7,1.6l7,10.3h-4.7c-0.5,0-0.8-0.1-1.2-0.3c-0.3-0.2-0.6-0.4-0.8-0.8l-5.9-9c-0.2-0.3-0.5-0.6-0.7-0.7
			c-0.3-0.1-0.7-0.2-1.2-0.2H374.3z M374.3,124.6h3.3c1,0,1.8-0.1,2.6-0.4c0.7-0.2,1.3-0.6,1.8-1c0.5-0.4,0.8-0.9,1.1-1.5
			c0.2-0.6,0.3-1.2,0.3-2c0-1.4-0.5-2.5-1.4-3.3c-0.9-0.8-2.4-1.1-4.3-1.1h-3.3V124.6z"/>
		<path class="st0" d="M409.3,116.4c-0.1,0.3-0.3,0.5-0.5,0.6c-0.2,0.1-0.4,0.2-0.7,0.2c-0.3,0-0.5-0.1-0.9-0.3
			c-0.3-0.2-0.7-0.4-1.1-0.7c-0.4-0.2-0.9-0.5-1.5-0.7c-0.6-0.2-1.3-0.3-2.1-0.3c-0.7,0-1.3,0.1-1.9,0.3c-0.5,0.2-1,0.4-1.4,0.7
			c-0.4,0.3-0.6,0.7-0.8,1.1c-0.2,0.4-0.3,0.9-0.3,1.4c0,0.7,0.2,1.2,0.6,1.6c0.4,0.4,0.9,0.8,1.5,1.1c0.6,0.3,1.3,0.6,2.1,0.8
			c0.8,0.2,1.6,0.5,2.4,0.8c0.8,0.3,1.6,0.6,2.4,1c0.8,0.4,1.5,0.8,2.1,1.4c0.6,0.6,1.1,1.3,1.5,2.1c0.4,0.8,0.6,1.8,0.6,3
			c0,1.3-0.2,2.5-0.6,3.6c-0.4,1.1-1.1,2.1-1.9,2.9c-0.8,0.8-1.8,1.5-3,1.9c-1.2,0.5-2.6,0.7-4.1,0.7c-0.9,0-1.8-0.1-2.6-0.3
			c-0.9-0.2-1.7-0.4-2.5-0.7c-0.8-0.3-1.5-0.7-2.2-1.2c-0.7-0.5-1.3-1-1.9-1.5l1.5-2.5c0.1-0.2,0.3-0.3,0.5-0.5
			c0.2-0.1,0.4-0.2,0.7-0.2c0.3,0,0.7,0.1,1.1,0.4c0.4,0.3,0.8,0.6,1.3,0.9c0.5,0.3,1.1,0.6,1.8,0.9c0.7,0.3,1.5,0.4,2.5,0.4
			c1.5,0,2.6-0.4,3.4-1.1c0.8-0.7,1.2-1.7,1.2-3c0-0.7-0.2-1.3-0.5-1.8c-0.4-0.5-0.9-0.9-1.5-1.2c-0.6-0.3-1.3-0.6-2.1-0.8
			c-0.8-0.2-1.6-0.5-2.4-0.7c-0.8-0.3-1.6-0.6-2.4-0.9c-0.8-0.4-1.5-0.8-2.1-1.4c-0.6-0.6-1.1-1.3-1.5-2.2c-0.4-0.9-0.6-1.9-0.6-3.2
			c0-1,0.2-2,0.6-3c0.4-1,1-1.8,1.8-2.6c0.8-0.8,1.7-1.4,2.9-1.8c1.1-0.5,2.4-0.7,3.9-0.7c1.7,0,3.2,0.3,4.6,0.8
			c1.4,0.5,2.6,1.2,3.6,2.2L409.3,116.4z"/>
	</g>
</g>
<g id="neg" class="st1">
	<g class="st2">
		<path class="st3" d="M55,83.7H39.9c-0.5-0.8-1-2.5-1.5-5c-3.8,4.1-9.7,6.2-18,6.2c-5.7,0-10.4-1.3-14-3.9C2.2,78,0,73.5,0,67.7
			c0-8.4,3.3-14.1,9.8-17.3c3-1.5,9.1-2.8,18.3-3.9c6.5-0.8,9.8-2.6,9.8-5.3c0-2.4-1-4.3-2.9-5.7c-2-1.4-4.2-2.1-6.8-2.1
			c-2.7,0-5,0.7-6.9,2.2c-2.1,1.6-3.4,3.9-3.7,6.8H2.1c0.4-5,1.6-9,3.5-12.1c2-3.1,5.1-5.4,9.5-7.1c4.1-1.5,8.7-2.3,13.8-2.3
			C46.3,21,55,29.3,55,45.8V83.7z M37.9,53.8c-1.6,1.3-4.4,2.3-8.5,3.1c-4.6,0.8-7.6,1.7-8.9,2.4c-2.8,1.5-4.2,4-4.2,7.6
			c0,4.6,2.4,6.9,7.2,6.9c2.2,0,4.5-0.5,6.9-1.6c2.4-1,4.2-2.3,5.4-3.7c1.6-2,2.4-4.9,2.4-8.9c0-0.7,0-1.7-0.1-3
			C37.9,55.3,37.9,54.4,37.9,53.8"/>
		<rect x="61.6" y="0.9" class="st3" width="16.2" height="82.8"/>
		<path class="st3" d="M133.4,52.5c0,6.1-0.3,10.7-0.9,13.9c-0.9,5.3-2.7,9.4-5.4,12.4c-4.4,4.8-10.5,7.1-18.4,7.1
			c-4.9,0-9.4-1-13.3-3.1c-4.4-2.3-7.5-5.5-9.3-9.6c-1.6-3.8-2.4-7.9-2.4-12.5V5.9h16.2v16.5h33.6V34H99.8v25.2
			c0,3.1,0.2,5.5,0.7,7.1c1.1,3.7,3.9,5.5,8.5,5.5c2.7,0,4.7-0.8,6.2-2.4c2.1-2.3,3.2-7.3,3.2-14.8V43.4h15.1V52.5z"/>
		<path class="st3" d="M173.8,37.4c-1.5-0.2-3-0.3-4.5-0.3c-9.9,0-14.9,4.9-14.9,14.7v31.9h-16.2V22.3h15.3v4.7c0,1.8,0,2.6,0.1,2.6
			c0.1-0.1,0.2-0.2,0.3-0.2c3.1-3.2,5.5-5.3,7.1-6.2c2.7-1.5,6.2-2.3,10.5-2.3h2.2V37.4z"/>
		<path class="st3" d="M234.1,83.7h-15.3v-5.4c0-2.1,0-3.2-0.1-3.2c0,0.1,0,0.1-0.1,0.1c-4.1,6.9-10.3,10.4-18.6,10.4
			c-5.8,0-10.6-1.9-14.4-5.6c-4.4-4.1-6.6-9.9-6.6-17.2V22.3h16.2v38c0,7.6,3.5,11.4,10.4,11.4c4.1,0,7.2-1.3,9.3-3.9
			c2.1-2.6,3.2-5.9,3.2-10V22.3h16V83.7z"/>
		<path class="st3" d="M257,15.1h-16.2V0H257V15.1z M257,83.7h-16.2V22.3H257V83.7z"/>
		<path class="st3" d="M318.5,64.1c0,4.4-1.1,8.2-3.2,11.4c-4.6,6.7-12.6,10-23.9,10c-7.8,0-14.4-1.8-19.9-5.3
			c-6.1-4-9.3-9.4-9.3-16.1h16.7c0,3,1.3,5.3,3.9,7c2.3,1.5,5.1,2.2,8.5,2.2c3,0,5.6-0.6,7.8-1.8c2.2-1.2,3.3-2.7,3.3-4.7
			c0-2.5-3.3-4.5-9.8-6c-9.7-2.2-15.8-4-18.3-5.2c-6.5-3.1-9.8-8-9.8-14.5c0-3.8,0.9-7.3,2.8-10.5c1.8-3.1,4.9-5.7,9.3-7.5
			c4.4-1.9,9.1-2.8,14.2-2.8c6.9,0,12.7,1.7,17.4,5c5.4,3.7,8.2,8.9,8.6,15.7h-16c-0.8-5.5-4.5-8.2-10.8-8.2c-2.6,0-4.9,0.6-6.8,1.7
			c-1.9,1.2-2.9,2.6-2.9,4.4c0,2.3,3.3,4.2,9.9,5.6c9.6,2.1,15.8,3.9,18.5,5.2C315.2,53,318.5,57.7,318.5,64.1"/>
		<path class="st3" d="M410.5,83.7h-15.9V46.6c0-4-1-7.1-3-9.4c-1.7-2.1-3.8-3.1-6.5-3.1c-2.8,0-5.1,1.1-7.1,3.3
			c-2.1,2.5-3.2,5.7-3.2,9.7v36.6h-16.2V46.9c0-4.1-0.5-7.1-1.5-8.9c-1.5-2.4-4.2-3.6-8.2-3.6c-6.6,0-9.9,4-9.9,12v37.3h-16.2V22.3
			h15.3v5.9c0,2.2,0,3.3,0.1,3.3c0-0.1,0-0.2,0.1-0.2c2.4-3.7,4.8-6.3,7.3-7.9c2.8-1.8,6.2-2.6,10.4-2.6s7.5,0.8,9.9,2.2
			c2.5,1.5,4.9,4,7.1,7.7c2.2-3.3,4.6-5.8,7.2-7.5c2.6-1.7,5.7-2.6,9.4-2.6c3.9,0,7.6,1,11.2,3c3.6,2,6.1,4.6,7.5,7.8
			c1.5,3.2,2.2,6.5,2.2,10V83.7z"/>
		<path class="st3" d="M-0.2,111.3h4.4c0.5,0,0.8,0.1,1.1,0.3c0.3,0.2,0.5,0.5,0.6,0.9l4.8,16.8c0.1,0.4,0.2,0.9,0.3,1.3
			c0.1,0.5,0.2,1,0.3,1.5c0.1-0.5,0.2-1.1,0.3-1.5c0.1-0.5,0.3-0.9,0.4-1.3l5.5-16.8c0.1-0.3,0.3-0.6,0.6-0.8
			c0.3-0.2,0.7-0.4,1.1-0.4h1.5c0.5,0,0.8,0.1,1.1,0.3c0.3,0.2,0.5,0.5,0.6,0.9l5.5,16.8c0.3,0.8,0.5,1.7,0.7,2.8
			c0.1-0.5,0.2-1,0.3-1.5c0.1-0.5,0.2-0.9,0.3-1.3l4.8-16.8c0.1-0.3,0.3-0.6,0.6-0.8c0.3-0.2,0.7-0.3,1.1-0.3h4.1l-8.7,28h-4.7
			l-6.1-19.1c-0.1-0.2-0.2-0.5-0.2-0.8c-0.1-0.3-0.2-0.6-0.2-0.9c-0.1,0.3-0.2,0.6-0.2,0.9c-0.1,0.3-0.2,0.5-0.2,0.8l-6.2,19.1H8.5
			L-0.2,111.3z"/>
		<polygon class="st3" points="66.6,139.3 61.4,139.3 61.4,127.1 48.2,127.1 48.2,139.3 43,139.3 43,111.3 48.2,111.3 48.2,123.3 
			61.4,123.3 61.4,111.3 66.6,111.3 		"/>
		<polygon class="st3" points="89.9,111.3 89.9,115.4 77.5,115.4 77.5,123.2 87.3,123.2 87.3,127.2 77.5,127.2 77.5,135.1 
			89.9,135.1 89.9,139.3 72.3,139.3 72.3,111.3 		"/>
		<path class="st3" d="M97.8,111.3c0.2,0,0.3,0.1,0.4,0.1c0.1,0.1,0.2,0.1,0.4,0.3c0.1,0.1,0.2,0.3,0.4,0.4l14.7,18.7
			c-0.1-0.5-0.1-0.9-0.1-1.3c0-0.4,0-0.8,0-1.2v-17h4.6v28h-2.7c-0.4,0-0.8-0.1-1-0.2c-0.3-0.1-0.5-0.4-0.8-0.7l-14.6-18.7
			c0,0.4,0.1,0.8,0.1,1.2c0,0.4,0,0.8,0,1.1v17.2h-4.6v-28h2.7C97.4,111.3,97.6,111.3,97.8,111.3"/>
		<path class="st3" d="M151.3,111.1v2.4c0,0.3-0.1,0.7-0.2,1c-0.1,0.3-0.3,0.6-0.5,0.9l-13.3,18.9h13.4v5h-21.8v-2.5
			c0-0.3,0.1-0.6,0.2-0.9c0.1-0.3,0.2-0.6,0.4-0.8l13.3-19h-12.8v-5H151.3z"/>
		<polygon class="st3" points="172.5,111.1 172.5,116.1 160.9,116.1 160.9,122.7 169.8,122.7 169.8,127.5 160.9,127.5 160.9,134.3 
			172.5,134.3 172.5,139.3 154.3,139.3 154.3,111.1 		"/>
		<path class="st3" d="M182.8,128.9v10.4h-6.5v-28.2h9.2c2,0,3.8,0.2,5.2,0.6c1.4,0.4,2.6,1,3.5,1.8c0.9,0.8,1.6,1.6,2,2.7
			c0.4,1,0.6,2.1,0.6,3.3c0,0.9-0.1,1.8-0.4,2.6c-0.2,0.8-0.6,1.6-1.1,2.3c-0.5,0.7-1.1,1.3-1.8,1.9c-0.7,0.5-1.5,1-2.4,1.3
			c0.4,0.2,0.9,0.5,1.2,0.8c0.4,0.3,0.7,0.7,1,1.2l6,9.8h-5.9c-1.1,0-1.9-0.4-2.4-1.2l-4.7-8.2c-0.2-0.4-0.4-0.6-0.7-0.8
			c-0.3-0.2-0.7-0.2-1.2-0.2H182.8z M182.8,124.3h2.6c0.9,0,1.6-0.1,2.3-0.3c0.6-0.2,1.1-0.5,1.5-0.9c0.4-0.4,0.7-0.9,0.9-1.4
			c0.2-0.5,0.3-1.1,0.3-1.7c0-1.2-0.4-2.2-1.2-2.9c-0.8-0.7-2.1-1-3.7-1h-2.6V124.3z"/>
		<path class="st3" d="M228.9,125.2c0,2-0.3,3.9-1,5.7c-0.7,1.8-1.7,3.3-3,4.6c-1.3,1.3-2.8,2.3-4.6,3c-1.8,0.7-3.8,1.1-6,1.1
			c-1.2,0-2.4-0.1-3.5-0.3c-1.1-0.2-2.1-0.6-3.1-1l-1.1,1.5c-0.2,0.3-0.5,0.6-0.8,0.8c-0.3,0.2-0.6,0.4-0.9,0.5
			c-0.3,0.1-0.6,0.2-1,0.3c-0.3,0.1-0.6,0.1-1,0.1h-2.6l3.8-5.3c-1.5-1.3-2.7-2.9-3.5-4.8c-0.8-1.9-1.3-3.9-1.3-6.2
			c0-2,0.4-3.9,1.1-5.7c0.7-1.8,1.7-3.3,3-4.6c1.3-1.3,2.8-2.3,4.6-3c1.8-0.7,3.8-1.1,6-1.1c1.4,0,2.6,0.1,3.8,0.4
			c1.2,0.3,2.3,0.7,3.4,1.2l0.8-1.1c0.2-0.3,0.4-0.5,0.6-0.7c0.2-0.2,0.4-0.4,0.6-0.5c0.2-0.1,0.4-0.2,0.7-0.3
			c0.2-0.1,0.5-0.1,0.9-0.1h3.3l-3.6,4.9c1.4,1.3,2.4,2.9,3.1,4.6C228.5,121.2,228.9,123.1,228.9,125.2 M206.2,125.2
			c0,2.5,0.5,4.5,1.6,6l10.2-14.2c-0.5-0.3-1.1-0.5-1.8-0.7c-0.6-0.2-1.3-0.2-2.1-0.2c-1.3,0-2.4,0.2-3.4,0.6c-1,0.4-1.8,1-2.5,1.8
			c-0.7,0.8-1.2,1.7-1.6,2.8C206.4,122.5,206.2,123.8,206.2,125.2 M222.1,125.2c0-1-0.1-2-0.3-2.9c-0.2-0.9-0.5-1.7-0.9-2.4
			l-9.9,13.8c0.9,0.4,2,0.5,3.2,0.5c1.3,0,2.4-0.2,3.4-0.6c1-0.4,1.8-1,2.5-1.8c0.7-0.8,1.2-1.7,1.6-2.8
			C222,127.9,222.1,126.6,222.1,125.2"/>
		<path class="st3" d="M254.6,129c0.2,0.4,0.4,0.9,0.6,1.3c0.2-0.5,0.4-0.9,0.6-1.4c0.2-0.5,0.4-0.9,0.6-1.3l8.3-15.5
			c0.1-0.2,0.2-0.3,0.3-0.5c0.1-0.1,0.2-0.2,0.4-0.3c0.1,0,0.3-0.1,0.5-0.1c0.2,0,0.4,0,0.6,0h3.9v28h-4.6v-18.1c0-0.3,0-0.7,0-1.1
			c0-0.4,0-0.8,0.1-1.2l-8.5,15.9c-0.2,0.4-0.4,0.6-0.8,0.8c-0.3,0.2-0.7,0.3-1.1,0.3h-0.7c-0.4,0-0.8-0.1-1.1-0.3
			c-0.3-0.2-0.6-0.5-0.8-0.8l-8.6-15.9c0,0.4,0.1,0.8,0.1,1.3c0,0.4,0,0.8,0,1.1v18.1H240v-28h3.9c0.2,0,0.4,0,0.6,0
			c0.2,0,0.3,0,0.5,0.1c0.1,0.1,0.3,0.1,0.4,0.3c0.1,0.1,0.2,0.3,0.3,0.5l8.4,15.6C254.3,128.1,254.5,128.5,254.6,129"/>
		<path class="st3" d="M300.6,139.3h-4c-0.5,0-0.8-0.1-1.1-0.3c-0.3-0.2-0.5-0.5-0.6-0.8l-2.1-5.7h-11.6l-2.1,5.7
			c-0.1,0.3-0.3,0.6-0.6,0.8c-0.3,0.2-0.7,0.4-1.1,0.4h-4l11-28h5.3L300.6,139.3z M282.5,128.7h8.9l-3.4-9.3
			c-0.2-0.4-0.3-0.9-0.5-1.5c-0.2-0.6-0.4-1.2-0.6-1.8c-0.2,0.7-0.4,1.3-0.5,1.8c-0.2,0.6-0.3,1.1-0.5,1.5L282.5,128.7z"/>
		<polygon class="st3" points="320.4,111.3 320.4,115.6 312,115.6 312,139.3 306.8,139.3 306.8,115.6 298.3,115.6 298.3,111.3 		"/>
		<polygon class="st3" points="343.4,111.3 343.4,115.6 335,115.6 335,139.3 329.8,139.3 329.8,115.6 321.3,115.6 321.3,111.3 		"/>
		<polygon class="st3" points="364.4,111.3 364.4,115.4 352,115.4 352,123.2 361.8,123.2 361.8,127.2 352,127.2 352,135.1 
			364.4,135.1 364.4,139.3 346.8,139.3 346.8,111.3 		"/>
		<path class="st3" d="M374.3,128.4v10.9h-5.2v-28h8.5c1.9,0,3.5,0.2,4.9,0.6c1.4,0.4,2.5,0.9,3.3,1.7c0.9,0.7,1.5,1.6,1.9,2.5
			c0.4,1,0.6,2.1,0.6,3.3c0,0.9-0.1,1.8-0.4,2.7c-0.3,0.8-0.7,1.6-1.2,2.3c-0.5,0.7-1.2,1.3-1.9,1.8c-0.8,0.5-1.6,0.9-2.6,1.2
			c0.7,0.4,1.2,0.9,1.7,1.6l7,10.3h-4.7c-0.5,0-0.8-0.1-1.2-0.3c-0.3-0.2-0.6-0.4-0.8-0.8l-5.9-9c-0.2-0.3-0.5-0.6-0.7-0.7
			c-0.3-0.1-0.7-0.2-1.2-0.2H374.3z M374.3,124.6h3.3c1,0,1.8-0.1,2.6-0.4c0.7-0.2,1.3-0.6,1.8-1c0.5-0.4,0.8-0.9,1.1-1.5
			c0.2-0.6,0.3-1.2,0.3-2c0-1.4-0.5-2.5-1.4-3.3c-0.9-0.8-2.4-1.1-4.3-1.1h-3.3V124.6z"/>
		<path class="st3" d="M409.3,116.4c-0.1,0.3-0.3,0.5-0.5,0.6c-0.2,0.1-0.4,0.2-0.7,0.2c-0.3,0-0.5-0.1-0.9-0.3
			c-0.3-0.2-0.7-0.4-1.1-0.7c-0.4-0.2-0.9-0.5-1.5-0.7c-0.6-0.2-1.3-0.3-2.1-0.3c-0.7,0-1.3,0.1-1.9,0.3c-0.5,0.2-1,0.4-1.4,0.7
			c-0.4,0.3-0.6,0.7-0.8,1.1c-0.2,0.4-0.3,0.9-0.3,1.4c0,0.7,0.2,1.2,0.6,1.6c0.4,0.4,0.9,0.8,1.5,1.1c0.6,0.3,1.3,0.6,2.1,0.8
			c0.8,0.2,1.6,0.5,2.4,0.8c0.8,0.3,1.6,0.6,2.4,1c0.8,0.4,1.5,0.8,2.1,1.4c0.6,0.6,1.1,1.3,1.5,2.1c0.4,0.8,0.6,1.8,0.6,3
			c0,1.3-0.2,2.5-0.6,3.6c-0.4,1.1-1.1,2.1-1.9,2.9c-0.8,0.8-1.8,1.5-3,1.9c-1.2,0.5-2.6,0.7-4.1,0.7c-0.9,0-1.8-0.1-2.6-0.3
			c-0.9-0.2-1.7-0.4-2.5-0.7c-0.8-0.3-1.5-0.7-2.2-1.2c-0.7-0.5-1.3-1-1.9-1.5l1.5-2.5c0.1-0.2,0.3-0.3,0.5-0.5
			c0.2-0.1,0.4-0.2,0.7-0.2c0.3,0,0.7,0.1,1.1,0.4c0.4,0.3,0.8,0.6,1.3,0.9c0.5,0.3,1.1,0.6,1.8,0.9c0.7,0.3,1.5,0.4,2.5,0.4
			c1.5,0,2.6-0.4,3.4-1.1c0.8-0.7,1.2-1.7,1.2-3c0-0.7-0.2-1.3-0.5-1.8c-0.4-0.5-0.9-0.9-1.5-1.2c-0.6-0.3-1.3-0.6-2.1-0.8
			c-0.8-0.2-1.6-0.5-2.4-0.7c-0.8-0.3-1.6-0.6-2.4-0.9c-0.8-0.4-1.5-0.8-2.1-1.4c-0.6-0.6-1.1-1.3-1.5-2.2c-0.4-0.9-0.6-1.9-0.6-3.2
			c0-1,0.2-2,0.6-3c0.4-1,1-1.8,1.8-2.6c0.8-0.8,1.7-1.4,2.9-1.8c1.1-0.5,2.4-0.7,3.9-0.7c1.7,0,3.2,0.3,4.6,0.8
			c1.4,0.5,2.6,1.2,3.6,2.2L409.3,116.4z"/>
	</g>
</g>
</svg>
