<?xml version="1.0" encoding="utf-8"?>
<!-- Generator: Adobe Illustrator 19.2.1, SVG Export Plug-In . SVG Version: 6.00 Build 0)  -->
<svg version="1.1" id="Layer_1" xmlns="http://www.w3.org/2000/svg" xmlns:xlink="http://www.w3.org/1999/xlink" x="0px" y="0px"
	 viewBox="0 0 540 540" style="enable-background:new 0 0 540 540;" xml:space="preserve">
<style type="text/css">
	.st0{fill:#FFFFFF;}
</style>
<path class="st0" d="M319.5,270.1L529,60.7c13.7-13.7,13.7-35.8,0-49.5s-35.8-13.7-49.5,0L270,220.6L60.6,11.2
	c-13.7-13.7-35.8-13.7-49.5,0s-13.7,35.8,0,49.5L220.4,270L11.1,479.6c-13.7,13.6-13.7,35.8,0,49.5c6.8,6.8,15.8,10.3,24.7,10.3
	s17.9-3.4,24.7-10.3l209.4-209.4l209.4,209.4c6.8,6.8,15.8,10.3,24.7,10.3s17.9-3.4,24.7-10.3c13.7-13.7,13.7-35.8,0-49.5
	L319.5,270.1z"/>
</svg>
