<?xml version="1.0" encoding="utf-8"?>
<!-- Generator: Adobe Illustrator 19.2.1, SVG Export Plug-In . SVG Version: 6.00 Build 0)  -->
<svg version="1.1" id="Layer_1" xmlns="http://www.w3.org/2000/svg" xmlns:xlink="http://www.w3.org/1999/xlink" x="0px" y="0px"
	 viewBox="0 0 26 22.3" style="enable-background:new 0 0 26 22.3;" xml:space="preserve">
<style type="text/css">
	.st0{enable-background:new    ;}
	.st1{clip-path:url(#SVGID_2_);}
	.st2{clip-path:url(#SVGID_4_);fill:#F16521;}
</style>
<g class="st0">
	<g>
		<g>
			<defs>
				<path id="SVGID_1_" d="M18.7,0c-2.2,0-4.3,1-5.7,2.7C11.6,1,9.6,0,7.3,0C3.3,0,0,3.3,0,7.4c0,2.4,1.2,4.1,2.1,5.5
					c2.7,4,9.6,8.9,9.9,9.1c0.3,0.2,0.6,0.3,0.9,0.3c0.3,0,0.7-0.1,0.9-0.3c0.3-0.2,7.2-5.1,9.9-9.1c0.9-1.4,2.1-3.1,2.1-5.5
					C26,3.3,22.7,0,18.7,0 M22.5,11.9c-2.6,3.8-9.5,8.7-9.5,8.7s-6.9-4.9-9.5-8.7c-1-1.4-1.8-2.7-1.8-4.6c0-3.2,2.5-5.7,5.7-5.7
					c2.3,0,4.3,1.4,5.2,3.4v0h0c0.1,0.2,0.3,0.4,0.5,0.4c0.2,0,0.4-0.2,0.5-0.4h0c0.9-2,2.9-3.4,5.2-3.4c3.1,0,5.7,2.6,5.7,5.7
					C24.4,9.2,23.5,10.5,22.5,11.9"/>
			</defs>
			<use xlink:href="#SVGID_1_"  style="overflow:visible;fill-rule:evenodd;clip-rule:evenodd;fill:#F16521;"/>
			<clipPath id="SVGID_2_">
				<use xlink:href="#SVGID_1_"  style="overflow:visible;"/>
			</clipPath>
			<g class="st1">
				<defs>
					<rect id="SVGID_3_" width="26" height="23"/>
				</defs>
				<use xlink:href="#SVGID_3_"  style="overflow:visible;fill:#F16521;"/>
				<clipPath id="SVGID_4_">
					<use xlink:href="#SVGID_3_"  style="overflow:visible;"/>
				</clipPath>
				<rect x="-5" y="-5" class="st2" width="36" height="32.3"/>
			</g>
		</g>
	</g>
</g>
</svg>
