<?xml version="1.0" encoding="utf-8"?>
<!-- Generator: Adobe Illustrator 19.2.1, SVG Export Plug-In . SVG Version: 6.00 Build 0)  -->
<svg version="1.1"
	 id="Layer_1" xmlns:cc="http://creativecommons.org/ns#" xmlns:dc="http://purl.org/dc/elements/1.1/" xmlns:inkscape="http://www.inkscape.org/namespaces/inkscape" xmlns:rdf="http://www.w3.org/1999/02/22-rdf-syntax-ns#" xmlns:sodipodi="http://sodipodi.sourceforge.net/DTD/sodipodi-0.dtd" xmlns:svg="http://www.w3.org/2000/svg"
	 xmlns="http://www.w3.org/2000/svg" xmlns:xlink="http://www.w3.org/1999/xlink" x="0px" y="0px" viewBox="0 0 17.4 26.6"
	 style="enable-background:new 0 0 17.4 26.6;" xml:space="preserve">
<style type="text/css">
	.st0{fill:#F16521;}
</style>
<path class="st0" d="M3.8,26c-1.6,0-3-1.4-3-3V3.8c0-1.6,1.4-3,3-3h9.7c1.6,0,3,1.4,3,3V23c0,1.6-1.4,3-3,3H3.8z M1.9,22.9
	c0,1.1,0.8,1.9,1.9,1.9h9.7c0.5,0,1-0.2,1.4-0.6c0.3-0.4,0.5-0.8,0.4-1.3l0-1.8H1.9V22.9z M2,20.1h13.4V4.8H2V20.1z M3.8,1.9
	c-0.9,0-1.7,0.7-1.9,1.6L1.8,3.7h13.5l0-0.2c-0.1-0.9-0.9-1.6-1.8-1.6H3.8z"/>
<circle class="st0" cx="8.7" cy="23" r="0.6"/>
</svg>
