<?xml version="1.0" encoding="utf-8"?>
<!-- Generator: Adobe Illustrator 19.2.1, SVG Export Plug-In . SVG Version: 6.00 Build 0)  -->
<svg version="1.1" id="Layer_1" xmlns="http://www.w3.org/2000/svg" xmlns:xlink="http://www.w3.org/1999/xlink" x="0px" y="0px"
	 viewBox="0 0 26 33.8" style="enable-background:new 0 0 26 33.8;" xml:space="preserve">
<style type="text/css">
	.st0{fill:#F16521;}
</style>
<g>
	<path class="st0" d="M22.2,13.1L18.5,9l3.1-5.6L21.3,3c-1.7-2.4-3.9-1.9-3.9-1.8H17l-0.2,0.3C16.6,2,16.3,2.3,16,2.4
		c-0.2,0-0.4,0-0.5-0.1c-0.9-1.2-1.9-1.8-2.8-1.8c-1.2,0-1.9,0.8-1.9,0.9l0,0c-0.7,0.9-1.2,1-1.4,0.9C8.6,1.4,7.7,1.2,7.1,1.2
		C5.4,1.2,4.2,2.8,4,2.9L3.7,3.4l4,5.5L3,14.6l0,0c-0.1,0.1-1.4,1.9-2,4.6c-0.5,2.5-0.4,6.3,3,10.2l0,0c0.1,0.1,2.1,2,5.1,3
		c1.1,0.4,2.4,0.6,3.8,0.6c2.4,0,5.2-0.8,8-3.1c0.1-0.1,2.2-1.8,3.4-4.8C25.5,22.4,26,18.1,22.2,13.1z M5.8,3.5
		c0.4-0.3,0.9-0.7,1.4-0.7l0,0c0.4,0,0.7,0.2,1,0.6l0.1,0.1l0.1,0.1c0,0,0.6,0.4,1.4,0.3s1.5-0.6,2.2-1.5c0.1-0.1,0.3-0.3,0.7-0.3
		c0.5,0,1.1,0.5,1.7,1.3l0.1,0.1l0.1,0.1c0.1,0.1,0.8,0.6,1.8,0.4c0.7-0.1,1.2-0.6,1.7-1.3c0.3,0,1,0.2,1.6,0.8l-2.6,4.7H9.2
		L5.8,3.5z M22.9,24.5c-1,2.6-2.9,4.2-2.9,4.2c-3.2,2.7-6.7,3.4-10.3,2.2c-2.6-0.9-4.4-2.5-4.6-2.7c-2.4-2.6-3.2-5.6-2.6-8.7
		c0.4-2.3,1.5-3.8,1.7-4l4.9-5.8h8l3.8,4.3C23.6,17.6,24.3,21.1,22.9,24.5z"/>
	<g>
		<path class="st0" d="M12.8,13.9c0.1-0.1,0.3-0.2,0.5-0.2c0.5,0,0.7,0.2,0.7,0.7v0.9c0.8,0.1,1.4,0.3,2,0.6
			c0.3,0.2,0.5,0.4,0.5,0.8c0,0.2-0.1,0.4-0.2,0.5c-0.1,0.2-0.3,0.3-0.5,0.3c-0.2,0-0.4-0.1-0.7-0.2c-0.6-0.2-1.1-0.4-1.7-0.4
			c-0.5,0-0.9,0.2-1.3,0.5c-0.4,0.3-0.6,0.7-0.6,1.1c0,0.2,0,0.4,0.1,0.6c0.1,0.2,0.3,0.3,0.5,0.4c0.2,0.1,0.4,0.2,0.6,0.2
			c0.2,0.1,0.4,0.1,0.8,0.2c0.1,0,0.1,0,0.1,0c1,0.2,1.9,0.6,2.4,1c0.6,0.4,0.8,1.1,0.8,2c0,0.9-0.3,1.6-0.8,2.1
			c-0.5,0.6-1.2,0.9-2.1,1.1l0,1c0,0.5-0.2,0.7-0.7,0.7c-0.5,0-0.7-0.2-0.7-0.6v-1c-1,0-1.8-0.2-2.4-0.6c-0.4-0.2-0.7-0.5-0.7-0.9
			c0-0.2,0.1-0.4,0.2-0.6c0.2-0.2,0.3-0.3,0.5-0.3c0.2,0,0.4,0.1,0.7,0.2c0.7,0.4,1.4,0.5,2,0.5c0.6,0,1-0.1,1.4-0.4
			c0.4-0.3,0.6-0.7,0.6-1.2c0-0.4-0.2-0.8-0.5-1c-0.4-0.2-0.9-0.4-1.5-0.6c-0.5-0.1-0.9-0.2-1.3-0.4c-0.4-0.1-0.7-0.3-1-0.5
			c-0.3-0.2-0.6-0.5-0.8-0.8c-0.2-0.3-0.3-0.7-0.3-1.2c0-0.8,0.3-1.4,0.8-2c0.6-0.6,1.2-1,2-1.1v-1C12.6,14.1,12.7,14,12.8,13.9z"/>
	</g>
</g>
</svg>
