<?xml version="1.0" encoding="utf-8"?>
<!-- Generator: Adobe Illustrator 18.1.1, SVG Export Plug-In . SVG Version: 6.00 Build 0)  -->
<svg version="1.1" id="FLAT" xmlns="http://www.w3.org/2000/svg" xmlns:xlink="http://www.w3.org/1999/xlink" x="0px" y="0px"
	 viewBox="0 0 942.6 317.9" enable-background="new 0 0 942.6 317.9" xml:space="preserve">
<g>
	<g>
		<g>
			<g>
				<path fill="#FFD052" d="M82.7,213V10.4C82.7,4.7,78,0,72.3,0H10.4C4.7,0,0,4.7,0,10.4v297.1c0,5.7,4.7,10.4,10.4,10.4h116
					c4.7,0,8.7-3.1,10-7.6L191,116v191.5c0,5.7,4.7,10.4,10.4,10.4h62.5c5.7,0,10.4-4.7,10.4-10.4V10.4c0-5.7-4.7-10.4-10.4-10.4
					H147.4c-4.7,0-8.8,3.2-10,7.7L82.7,213z"/>
				<path fill="#16C0D5" d="M582.6,317.9h116.3c4.6,0,8.6-3,9.9-7.4l54.4-178.6v175.6c0,5.7,4.7,10.4,10.4,10.4h62.5
					c5.7,0,10.4-4.7,10.4-10.4V10.4c0-5.7-4.7-10.4-10.4-10.4H719.7c-4.7,0-8.8,3.2-10,7.7L654.9,213V10.4c0-5.7-4.7-10.4-10.4-10.4
					H488c-5.7,0-10.4,4.7-10.4,10.4v51.8c0,5.7,4.7,10.4,10.4,10.4h73.7c5.7,0,10.4,4.6,10.4,10.4l0.2,224.5
					C572.2,313.2,576.9,317.9,582.6,317.9z"/>
				<path fill="#FF9B22" d="M359.6,317.9h-62.5c-5.7,0-10.4-4.7-10.4-10.4V10.4c0-5.7,4.7-10.4,10.4-10.4h157.6
					c5.7,0,10.4,4.7,10.4,10.4v51.8c0,5.7-4.7,10.4-10.4,10.4h-74.3c-5.7,0-10.4,4.7-10.4,10.4v224.5
					C370,313.2,365.3,317.9,359.6,317.9z"/>
				<path fill="#00EAAE" d="M869.4,317.9h62.9c5.7,0,10.4-4.7,10.4-10.4V10.4C942.6,4.7,938,0,932.2,0h-62.9
					C863.6,0,859,4.7,859,10.4v297.1C859,313.2,863.6,317.9,869.4,317.9z"/>
			</g>
		</g>
		<path fill="#FF5270" d="M549.1,85.1H392.9c-5.7,0-10.4,4.7-10.4,10.4v212c0,5.7,4.7,10.4,10.4,10.4h156.2
			c5.7,0,10.4-4.7,10.4-10.4v-212C559.5,89.8,554.9,85.1,549.1,85.1z M486.5,234.9c0,5.5-4.5,10-10,10h-11c-5.5,0-10-4.5-10-10
			v-66.8c0-5.5,4.5-10,10-10h11c5.5,0,10,4.5,10,10V234.9z"/>
	</g>
</g>
</svg>
