<?xml version="1.0" encoding="utf-8"?>
<!-- Generator: Adobe Illustrator 19.2.1, SVG Export Plug-In . SVG Version: 6.00 Build 0)  -->
<svg version="1.1" id="FLAT" xmlns="http://www.w3.org/2000/svg" xmlns:xlink="http://www.w3.org/1999/xlink" x="0px" y="0px"
	 viewBox="0 0 942.6 431.3" style="enable-background:new 0 0 942.6 431.3;" xml:space="preserve">
<style type="text/css">
	.st0{fill:#FFD052;}
	.st1{fill:#16C0D5;}
	.st2{fill:#FF9B22;}
	.st3{fill:#00EAAE;}
	.st4{fill:#FF5270;}
	.st5{fill:#808080;}
	.st6{display:none;}
	.st7{display:inline;}
	.st8{fill:none;}
	.st9{fill:#828282;}
	.st10{font-family:'GillSansMTPro-Light';}
	.st11{font-size:87.3255px;}
	.st12{letter-spacing:33;}
	.st13{display:inline;fill:#FF5270;}
	.st14{font-size:87.1598px;}
	.st15{letter-spacing:44;}
</style>
<g>
	<g>
		<g>
			<g>
				<path class="st0" d="M85.6,213.8V12c0-5.7-4.6-10.3-10.3-10.3H13.6C7.9,1.7,3.3,6.3,3.3,12v296c0,5.7,4.6,10.3,10.3,10.3h115.5
					c4.6,0,8.7-3.1,10-7.5l54.4-193.5V308c0,5.7,4.6,10.3,10.3,10.3h62.3c5.7,0,10.3-4.6,10.3-10.3V12c0-5.7-4.6-10.3-10.3-10.3
					h-116c-4.7,0-8.8,3.2-10,7.7L85.6,213.8z"/>
				<path class="st1" d="M583.7,318.4h115.8c4.6,0,8.6-3,9.9-7.3L764,118.6L763.6,308c0,5.7,4.6,10.3,10.3,10.3h62.3
					c5.7,0,10.3-4.6,10.3-10.3V12c0-5.7-4.6-10.3-10.3-10.3h-116c-4.7,0-8.8,3.2-10,7.7l-54.5,204.5V12c0-5.7-4.6-10.3-10.3-10.3
					h-156c-5.7,0-10.3,4.6-10.3,10.3v51.6c0,5.7,4.6,10.3,10.3,10.3h73.4c5.7,0,10.3,4.6,10.3,10.3l0.2,223.7
					C573.4,313.7,578,318.4,583.7,318.4z"/>
				<path class="st2" d="M361.5,318.4h-62.3c-5.7,0-10.3-4.6-10.3-10.3V12c0-5.7,4.6-10.3,10.3-10.3h157c5.7,0,10.3,4.6,10.3,10.3
					v51.6c0,5.7-4.6,10.3-10.3,10.3h-74c-5.7,0-10.3,4.6-10.3,10.3V308C371.9,313.7,367.3,318.4,361.5,318.4z"/>
				<path class="st3" d="M869.4,318.4H932c5.7,0,10.3-4.6,10.3-10.3V12c0-5.7-4.6-10.3-10.3-10.3h-62.6C863.7,1.7,859,6.3,859,12
					v296C859,313.7,863.7,318.4,869.4,318.4z"/>
			</g>
		</g>
		<path class="st4" d="M394.7,318.4h155.6c5.7,0,10.3-4.6,10.3-10.3V96.8c0-5.7-4.6-10.3-10.3-10.3H394.7c-5.7,0-10.3,4.6-10.3,10.3
			V308C384.4,313.7,389,318.4,394.7,318.4z M488,258.1c0,5.5-4.5,9.9-9.9,9.9h-11c-5.5,0-9.9-4.5-9.9-9.9v-66.6
			c0-5.5,4.5-9.9,9.9-9.9h11c5.5,0,9.9,4.5,9.9,9.9V258.1z M458.6,160.8l13.9-24.1l13.9,24.1c2.6,4.5-0.6,10.1-5.8,10.1h-16.1
			C459.3,170.9,456.1,165.3,458.6,160.8z"/>
	</g>
	<g>
		<path class="st5" d="M28.9,357.2c10.7,0,17.5,0,26.2,4.9c11.4,6.5,17.2,18.4,17.2,31.3c0,11.3-4.9,25.4-17.2,31.8
			c-9.5,5-15.4,5-26.2,5H6.7v-73.1h22.2V357.2z M12.4,362v63.8h17.2c8.3,0,13.9-0.2,22.3-5c8.8-5.1,14-16,14-27.1
			c0-8.5-3.1-19.5-14-26.5c-7.5-4.8-12.9-5.1-22.3-5.1L12.4,362L12.4,362z"/>
		<path class="st5" d="M242.9,362h-34.2v29.2H242v4.7h-33.3v29.9h35.1v4.6H203v-73.1h39.9V362z"/>
		<path class="st5" d="M409.2,367.1c-5.9-3.4-10.4-5.8-16.5-5.8c-10.5,0-15.4,7.8-15.4,14c0,9.3,8.3,12.2,16.3,15
			c8.7,3.1,18.7,7.9,18.7,20.8s-11,20.2-21.2,20.2c-6.8,0-13.2-2.7-18.8-6.4v-6.6c6.3,4.5,11.8,7.7,18.5,7.7
			c10.5,0,15.5-7.9,15.5-14.6c0-9.9-9.2-13.6-15-15.5c-9.7-3.3-11.6-4.9-13.2-6.3c-3.9-3.3-6.6-8.1-6.6-13.9
			c0-9.8,8.3-19.3,20.7-19.3c6,0,11.8,1.7,17,4.6V367.1z"/>
		<path class="st5" d="M548.3,430.4h-5.8v-73.1h5.8V430.4z"/>
		<path class="st5" d="M743.5,368.9c-7.8-4.9-16.9-7.3-26.2-7.3c-16,0-31.8,11.7-31.8,32.3c0,20.1,15.9,32.3,31.6,32.3
			c7.6,0,15-1.8,22.1-4.6v-19.7h-15.4V397h21.1v28.1c-8.7,4-18.1,6.2-27.6,6.2c-18.9,0-38.2-14.7-38.2-37.7
			c0-20.9,16.1-37.3,39.2-37.3c11,0,19.2,3.6,25.1,6.2v6.4H743.5z"/>
		<path class="st5" d="M942.9,430.4h-4.7L882.6,366v64.3H877v-73.1h5.3l55,63.9v-63.9h5.7L942.9,430.4L942.9,430.4z"/>
	</g>
</g>
<g class="st6">
	<g class="st7">
		<g>
			<g>
				<path class="st0" d="M85,214V12.1c0-5.7-4.6-10.4-10.4-10.4H12.9C7.2,1.7,2.6,6.3,2.6,12.1v296.2c0,5.7,4.6,10.4,10.4,10.4
					h115.6c4.6,0,8.7-3.1,10-7.6l54.4-193.6v190.8c0,5.7,4.6,10.4,10.4,10.4h62.3c5.7,0,10.4-4.6,10.4-10.4V12.1
					c0-5.7-4.6-10.4-10.4-10.4h-116c-4.7,0-8.8,3.2-10,7.7L85,214z"/>
				<path class="st1" d="M583.4,318.6h115.9c4.6,0,8.6-3,9.9-7.3l54.2-189v186c0,5.7,4.6,10.4,10.4,10.4H836
					c5.7,0,10.4-4.6,10.4-10.4V12.1c0-5.7-4.6-10.4-10.4-10.4H720c-4.7,0-8.8,3.2-10,7.7L655.4,214V12.1c0-5.7-4.6-10.4-10.4-10.4
					H489c-5.7,0-10.4,4.6-10.4,10.4v51.6c0,5.7,4.6,10.4,10.4,10.4h73.5c5.7,0,10.4,4.6,10.4,10.3l0.2,223.8
					C573,313.9,577.6,318.6,583.4,318.6z"/>
				<path class="st2" d="M361.1,318.6h-62.3c-5.7,0-10.4-4.6-10.4-10.4V12.1c0-5.7,4.6-10.4,10.4-10.4h157c5.7,0,10.4,4.6,10.4,10.4
					v51.6c0,5.7-4.6,10.4-10.4,10.4h-74.1c-5.7,0-10.4,4.6-10.4,10.4v223.8C371.4,313.9,366.8,318.6,361.1,318.6z"/>
				<path class="st3" d="M869.2,318.6h62.7c5.7,0,10.4-4.6,10.4-10.4V12.1c0-5.7-4.6-10.4-10.4-10.4h-62.7
					c-5.7,0-10.4,4.6-10.4,10.4v296.2C858.8,313.9,863.5,318.6,869.2,318.6z"/>
			</g>
		</g>
		<rect x="-9.9" y="357.5" class="st8" width="958" height="89.8"/>
		<text transform="matrix(1 0 0 1 88.0378 417.0107)"><tspan x="0" y="0" class="st9 st10 st11 st12">PHOTOGRA</tspan><tspan x="734.8" y="0" class="st9 st10 st11 st12">-</tspan></text>
	</g>
	<path class="st13" d="M550,86.5H394.2c-5.7,0-10.4,4.6-10.4,10.4v211.3c0,5.7,4.6,10.4,10.4,10.4H550c5.7,0,10.4-4.6,10.4-10.4
		V96.9C560.3,91.2,555.7,86.5,550,86.5z M515.4,203.3c0,4-3.2,7.2-7.2,7.2h-28.1v28.1c0,4-3.2,7.2-7.2,7.2h-1.6
		c-4,0-7.2-3.2-7.2-7.2v-28.1H436c-4,0-7.2-3.2-7.2-7.2v-1.6c0-4,3.2-7.2,7.2-7.2h28.1v-28.1c0-4,3.2-7.2,7.2-7.2h1.6
		c4,0,7.2,3.2,7.2,7.2v28.1h28.1c4,0,7.2,3.2,7.2,7.2V203.3z"/>
</g>
<g class="st6">
	<g class="st7">
		<g>
			<g>
				<path class="st0" d="M86.2,214.5V13c0-5.7-4.6-10.3-10.3-10.3H14.3C8.5,2.6,3.9,7.2,3.9,13v295.6c0,5.7,4.6,10.3,10.3,10.3
					h115.4c4.6,0,8.7-3.1,10-7.5l54.3-193.3v190.5c0,5.7,4.6,10.3,10.3,10.3h62.2c5.7,0,10.3-4.6,10.3-10.3V13
					c0-5.7-4.6-10.3-10.3-10.3H150.6c-4.7,0-8.8,3.1-10,7.7L86.2,214.5z"/>
				<path class="st1" d="M583.6,318.9h115.7c4.5,0,8.6-3,9.9-7.3l54.1-188.7v185.7c0,5.7,4.6,10.3,10.3,10.3h62.2
					c5.7,0,10.3-4.6,10.3-10.3V13c0-5.7-4.6-10.3-10.3-10.3H719.9c-4.7,0-8.8,3.1-10,7.7l-54.4,204.2V13c0-5.7-4.6-10.3-10.3-10.3
					H489.4c-5.7,0-10.3,4.6-10.3,10.3v51.5c0,5.7,4.6,10.3,10.3,10.3h73.3c5.7,0,10.3,4.6,10.3,10.3l0.2,223.4
					C573.3,314.3,577.9,318.9,583.6,318.9z"/>
				<path class="st2" d="M361.7,318.9h-62.2c-5.7,0-10.3-4.6-10.3-10.3V13c0-5.7,4.6-10.3,10.3-10.3h156.8c5.7,0,10.3,4.6,10.3,10.3
					v51.5c0,5.7-4.6,10.3-10.3,10.3h-73.9c-5.7,0-10.3,4.6-10.3,10.3v223.4C372,314.3,367.4,318.9,361.7,318.9z"/>
				<path class="st3" d="M868.9,318.9h62.6c5.7,0,10.3-4.6,10.3-10.3V13c0-5.7-4.6-10.3-10.3-10.3h-62.6c-5.7,0-10.3,4.6-10.3,10.3
					v295.6C858.5,314.3,863.2,318.9,868.9,318.9z"/>
			</g>
		</g>
		<rect x="-5.8" y="357.7" class="st8" width="956.2" height="89.6"/>
		<text transform="matrix(1 0 0 1 -5.0928 417.1416)" class="st9 st10 st14 st15">PRODUCTION</text>
	</g>
	<path class="st13" d="M550.3,87.3H394.8c-5.7,0-10.3,4.6-10.3,10.3v210.9c0,5.7,4.6,10.3,10.3,10.3h155.4c5.7,0,10.3-4.6,10.3-10.3
		V97.6C560.6,91.9,556,87.3,550.3,87.3z M452.7,162.3l51.6,36.2c3.7,2.6,3.7,8.1,0,10.7l-51.6,36.2c-4.3,3.1-10.3-0.1-10.3-5.4
		v-72.3C442.4,162.4,448.3,159.3,452.7,162.3z"/>
</g>
</svg>
