<?xml version="1.0" encoding="utf-8"?>
<!-- Generator: Adobe Illustrator 19.2.1, SVG Export Plug-In . SVG Version: 6.00 Build 0)  -->
<svg version="1.1" id="FLAT" xmlns="http://www.w3.org/2000/svg" xmlns:xlink="http://www.w3.org/1999/xlink" x="0px" y="0px"
	 viewBox="0 0 942.6 431.3" style="enable-background:new 0 0 942.6 431.3;" xml:space="preserve">
<style type="text/css">
	.st0{display:none;}
	.st1{display:inline;}
	.st2{fill:#FFD052;}
	.st3{fill:#16C0D5;}
	.st4{fill:#FF9B22;}
	.st5{fill:#00EAAE;}
	.st6{fill:#FF5270;}
	.st7{fill:#808080;}
	.st8{fill:none;}
	.st9{enable-background:new    ;}
	.st10{fill:#828282;}
</style>
<g class="st0">
	<g class="st1">
		<g>
			<g>
				<path class="st2" d="M85.6,213.8V12c0-5.7-4.6-10.3-10.3-10.3H13.6C7.9,1.7,3.3,6.3,3.3,12v296c0,5.7,4.6,10.3,10.3,10.3h115.5
					c4.6,0,8.7-3.1,10-7.5l54.4-193.5V308c0,5.7,4.6,10.3,10.3,10.3h62.3c5.7,0,10.3-4.6,10.3-10.3V12c0-5.7-4.6-10.3-10.3-10.3
					h-116c-4.7,0-8.8,3.2-10,7.7L85.6,213.8z"/>
				<path class="st3" d="M583.7,318.4h115.8c4.6,0,8.6-3,9.9-7.3L764,118.6L763.6,308c0,5.7,4.6,10.3,10.3,10.3h62.3
					c5.7,0,10.3-4.6,10.3-10.3V12c0-5.7-4.6-10.3-10.3-10.3h-116c-4.7,0-8.8,3.2-10,7.7l-54.5,204.5V12c0-5.7-4.6-10.3-10.3-10.3
					h-156c-5.7,0-10.3,4.6-10.3,10.3v51.6c0,5.7,4.6,10.3,10.3,10.3h73.4c5.7,0,10.3,4.6,10.3,10.3l0.2,223.7
					C573.4,313.7,578,318.4,583.7,318.4z"/>
				<path class="st4" d="M361.5,318.4h-62.3c-5.7,0-10.3-4.6-10.3-10.3V12c0-5.7,4.6-10.3,10.3-10.3h157c5.7,0,10.3,4.6,10.3,10.3
					v51.6c0,5.7-4.6,10.3-10.3,10.3h-74c-5.7,0-10.3,4.6-10.3,10.3V308C371.9,313.7,367.3,318.4,361.5,318.4z"/>
				<path class="st5" d="M869.4,318.4H932c5.7,0,10.3-4.6,10.3-10.3V12c0-5.7-4.6-10.3-10.3-10.3h-62.6C863.7,1.7,859,6.3,859,12
					v296C859,313.7,863.7,318.4,869.4,318.4z"/>
			</g>
		</g>
		<path class="st6" d="M394.7,318.4h155.6c5.7,0,10.3-4.6,10.3-10.3V96.8c0-5.7-4.6-10.3-10.3-10.3H394.7c-5.7,0-10.3,4.6-10.3,10.3
			V308C384.4,313.7,389,318.4,394.7,318.4z M488,258.1c0,5.5-4.5,9.9-9.9,9.9h-11c-5.5,0-9.9-4.5-9.9-9.9v-66.6
			c0-5.5,4.5-9.9,9.9-9.9h11c5.5,0,9.9,4.5,9.9,9.9V258.1z M458.6,160.8l13.9-24.1l13.9,24.1c2.6,4.5-0.6,10.1-5.8,10.1h-16.1
			C459.3,170.9,456.1,165.3,458.6,160.8z"/>
	</g>
	<g class="st1">
		<path class="st7" d="M28.9,357.2c10.7,0,17.5,0,26.2,4.9c11.4,6.5,17.2,18.4,17.2,31.3c0,11.3-4.9,25.4-17.2,31.8
			c-9.5,5-15.4,5-26.2,5H6.7v-73.1h22.2C28.9,357.1,28.9,357.2,28.9,357.2z M12.4,362v63.8h17.2c8.3,0,13.9-0.2,22.3-5
			c8.8-5.1,14-16,14-27.1c0-8.5-3.1-19.5-14-26.5c-7.5-4.8-12.9-5.1-22.3-5.1L12.4,362L12.4,362z"/>
		<path class="st7" d="M242.9,362h-34.2v29.2H242v4.7h-33.3v29.9h35.1v4.6H203v-73.1h39.9V362z"/>
		<path class="st7" d="M409.2,367.1c-5.9-3.4-10.4-5.8-16.5-5.8c-10.5,0-15.4,7.8-15.4,14c0,9.3,8.3,12.2,16.3,15
			c8.7,3.1,18.7,7.9,18.7,20.8s-11,20.2-21.2,20.2c-6.8,0-13.2-2.7-18.8-6.4v-6.6c6.3,4.5,11.8,7.7,18.5,7.7
			c10.5,0,15.5-7.9,15.5-14.6c0-9.9-9.2-13.6-15-15.5c-9.7-3.3-11.6-4.9-13.2-6.3c-3.9-3.3-6.6-8.1-6.6-13.9
			c0-9.8,8.3-19.3,20.7-19.3c6,0,11.8,1.7,17,4.6V367.1z"/>
		<path class="st7" d="M548.3,430.4h-5.8v-73.1h5.8V430.4z"/>
		<path class="st7" d="M743.5,368.9c-7.8-4.9-16.9-7.3-26.2-7.3c-16,0-31.8,11.7-31.8,32.3c0,20.1,15.9,32.3,31.6,32.3
			c7.6,0,15-1.8,22.1-4.6v-19.7h-15.4V397h21.1v28.1c-8.7,4-18.1,6.2-27.6,6.2c-18.9,0-38.2-14.7-38.2-37.7
			c0-20.9,16.1-37.3,39.2-37.3c11,0,19.2,3.6,25.1,6.2v6.4L743.5,368.9L743.5,368.9z"/>
		<path class="st7" d="M942.9,430.4h-4.7L882.6,366v64.3H877v-73.1h5.3l55,63.9v-63.9h5.7L942.9,430.4L942.9,430.4z"/>
	</g>
</g>
<g>
	<g>
		<g>
			<g>
				<path class="st2" d="M85,214V12.1c0-5.7-4.6-10.4-10.4-10.4H12.9C7.2,1.7,2.6,6.3,2.6,12.1v296.2c0,5.7,4.6,10.4,10.4,10.4
					h115.6c4.6,0,8.7-3.1,10-7.6L193,117.5v190.8c0,5.7,4.6,10.4,10.4,10.4h62.3c5.7,0,10.4-4.6,10.4-10.4V12.1
					c0-5.7-4.6-10.4-10.4-10.4h-116c-4.7,0-8.8,3.2-10,7.7L85,214z"/>
				<path class="st3" d="M583.4,318.6h115.9c4.6,0,8.6-3,9.9-7.3l54.2-189v186c0,5.7,4.6,10.4,10.4,10.4H836
					c5.7,0,10.4-4.6,10.4-10.4V12.1c0-5.7-4.6-10.4-10.4-10.4H720c-4.7,0-8.8,3.2-10,7.7L655.4,214V12.1c0-5.7-4.6-10.4-10.4-10.4
					H489c-5.7,0-10.4,4.6-10.4,10.4v51.6c0,5.7,4.6,10.4,10.4,10.4h73.5c5.7,0,10.4,4.6,10.4,10.3l0.2,223.8
					C573,313.9,577.6,318.6,583.4,318.6z"/>
				<path class="st4" d="M361.1,318.6h-62.3c-5.7,0-10.4-4.6-10.4-10.4V12.1c0-5.7,4.6-10.4,10.4-10.4h157c5.7,0,10.4,4.6,10.4,10.4
					v51.6c0,5.7-4.6,10.4-10.4,10.4h-74.1c-5.7,0-10.4,4.6-10.4,10.4v223.8C371.4,313.9,366.8,318.6,361.1,318.6z"/>
				<path class="st5" d="M869.2,318.6h62.7c5.7,0,10.4-4.6,10.4-10.4V12.1c0-5.7-4.6-10.4-10.4-10.4h-62.7
					c-5.7,0-10.4,4.6-10.4,10.4v296.2C858.8,313.9,863.5,318.6,869.2,318.6z"/>
			</g>
		</g>
		<rect x="-9.9" y="357.5" class="st8" width="958" height="89.8"/>
		<g class="st9">
			<path class="st10" d="M18,357.5c8.4,0,12.1,0.2,16.2,2.5c4.5,2.5,7.4,7.1,7.4,13.1c0,6.2-3.2,11.4-7.7,13.6
				c-5.1,2.4-8.7,2.4-15.4,2.4h-8.1V417H6v-59.6H18z M10.5,361.2v24.1h8.4c5.9,0,9.8-0.3,13.4-2.6c2.7-1.7,4.3-5.8,4.3-9.4
				c0-3.7-1.6-7.3-4.4-9.3c-2.5-1.7-5.6-2.7-14-2.7H10.5z"/>
			<path class="st10" d="M131.9,417h-4.6v-28.2H87.5V417h-4.5v-59.6h4.5v27.4h39.8v-27.4h4.6V417z"/>
			<path class="st10" d="M206.7,417.8c-17.8,0-31.5-13.5-31.5-30.7c0-16.2,12.5-30.5,31.6-30.5c18.9,0,31.5,14.2,31.5,30.3
				C238.3,404.9,224,417.8,206.7,417.8z M206.8,361.1c-15.2,0-26.5,11.6-26.5,26.2c0,14.1,10.9,26.1,26.2,26.1
				c13.7,0,26.5-10.2,26.5-26.5C233.1,373.3,222.4,361.1,206.8,361.1z"/>
			<path class="st10" d="M318.5,361.3h-22.3V417h-4.7v-55.7h-22.4v-3.8h49.3V361.3z"/>
			<path class="st10" d="M381,417.8c-17.8,0-31.5-13.5-31.5-30.7c0-16.2,12.5-30.5,31.6-30.5c18.9,0,31.5,14.2,31.5,30.3
				C412.6,404.9,398.3,417.8,381,417.8z M381.1,361.1c-15.2,0-26.5,11.6-26.5,26.2c0,14.1,10.9,26.1,26.2,26.1
				c13.7,0,26.5-10.2,26.5-26.5C407.4,373.3,396.7,361.1,381.1,361.1z"/>
			<path class="st10" d="M504.5,367c-6.4-4-13.8-5.9-21.3-5.9c-13,0-25.9,9.5-25.9,26.3c0,16.3,12.9,26.3,25.8,26.3
				c6.2,0,12.2-1.5,18-3.8v-16.1h-12.6v-3.9h17.2v22.9c-7.1,3.2-14.8,5.1-22.4,5.1c-15.4,0-31.1-12-31.1-30.7
				c0-17,13.1-30.4,32-30.4c9,0,15.6,3,20.4,5.1V367z"/>
			<path class="st10" d="M561.7,357.5c6.9,0,10.4,0.3,14.2,1.7c4.7,1.9,9,6.9,9,13.6c0,7.2-4.2,11.9-11.4,14.5
				c3.4,2.2,5,4.5,18.7,25.6l2.8,4.1h-5.5l-11.4-18c-1.8-2.9-5-7.1-7.3-8.7c-2.6-1.8-5.5-1.8-9.9-1.8h-6.4V417h-4.6v-59.6H561.7z
				 M554.6,361.3v23.2h6.4c6.8,0,10.1-0.3,13.4-1.9c3.2-1.6,5.4-5.7,5.4-9.8c0-4.1-2.2-7.9-5.5-9.6c-1.9-1-4.7-1.9-12.1-1.9H554.6z"
				/>
			<path class="st10" d="M685,417h-4.8l-9.4-20.6h-29.1l-9.4,20.6h-4.8l27.3-60h2.7L685,417z M656.2,364.5l-12.8,27.9H669
				L656.2,364.5z"/>
			<path class="st10" d="M737.3,357.5c8.4,0,12.1,0.2,16.2,2.5c4.5,2.5,7.4,7.1,7.4,13.1c0,6.2-3.2,11.4-7.7,13.6
				c-5.1,2.4-8.7,2.4-15.4,2.4h-8.1V417h-4.5v-59.6H737.3z M729.8,361.2v24.1h8.4c5.9,0,9.8-0.3,13.4-2.6c2.7-1.7,4.3-5.8,4.3-9.4
				c0-3.7-1.6-7.3-4.4-9.3c-2.5-1.7-5.6-2.7-14-2.7H729.8z"/>
			<path class="st10" d="M851.2,417h-4.6v-28.2h-39.8V417h-4.5v-59.6h4.5v27.4h39.8v-27.4h4.6V417z"/>
			<path class="st10" d="M918.8,385v32h-4.6v-32l-23.1-27.6h5.6l19.8,23.6l19.9-23.6h5.7L918.8,385z"/>
		</g>
	</g>
	<path class="st6" d="M550,86.5H394.2c-5.7,0-10.4,4.6-10.4,10.4v211.3c0,5.7,4.6,10.4,10.4,10.4H550c5.7,0,10.4-4.6,10.4-10.4V96.9
		C560.3,91.2,555.7,86.5,550,86.5z M515.4,203.3c0,4-3.2,7.2-7.2,7.2h-28.1v28.1c0,4-3.2,7.2-7.2,7.2h-1.6c-4,0-7.2-3.2-7.2-7.2
		v-28.1H436c-4,0-7.2-3.2-7.2-7.2v-1.6c0-4,3.2-7.2,7.2-7.2h28.1v-28.1c0-4,3.2-7.2,7.2-7.2h1.6c4,0,7.2,3.2,7.2,7.2v28.1h28.1
		c4,0,7.2,3.2,7.2,7.2V203.3z"/>
</g>
</svg>
