<?xml version="1.0" encoding="utf-8"?>
<!-- Generator: Adobe Illustrator 19.2.1, SVG Export Plug-In . SVG Version: 6.00 Build 0)  -->
<svg version="1.1" id="FLAT" xmlns="http://www.w3.org/2000/svg" xmlns:xlink="http://www.w3.org/1999/xlink" x="0px" y="0px"
	 viewBox="0 0 942.6 431.3" style="enable-background:new 0 0 942.6 431.3;" xml:space="preserve">
<style type="text/css">
	.st0{display:none;}
	.st1{display:inline;}
	.st2{fill:#FFD052;}
	.st3{fill:#16C0D5;}
	.st4{fill:#FF9B22;}
	.st5{fill:#00EAAE;}
	.st6{fill:#FF5270;}
	.st7{fill:#808080;}
	.st8{fill:none;}
	.st9{enable-background:new    ;}
	.st10{fill:#828282;}
</style>
<g class="st0">
	<g class="st1">
		<g>
			<g>
				<path class="st2" d="M85.6,213.8V12c0-5.7-4.6-10.3-10.3-10.3H13.6C7.9,1.7,3.3,6.3,3.3,12v296c0,5.7,4.6,10.3,10.3,10.3h115.5
					c4.6,0,8.7-3.1,10-7.5l54.4-193.5V308c0,5.7,4.6,10.3,10.3,10.3h62.3c5.7,0,10.3-4.6,10.3-10.3V12c0-5.7-4.6-10.3-10.3-10.3
					h-116c-4.7,0-8.8,3.2-10,7.7L85.6,213.8z"/>
				<path class="st3" d="M583.7,318.4h115.8c4.6,0,8.6-3,9.9-7.3L764,118.6L763.6,308c0,5.7,4.6,10.3,10.3,10.3h62.3
					c5.7,0,10.3-4.6,10.3-10.3V12c0-5.7-4.6-10.3-10.3-10.3h-116c-4.7,0-8.8,3.2-10,7.7l-54.5,204.5V12c0-5.7-4.6-10.3-10.3-10.3
					h-156c-5.7,0-10.3,4.6-10.3,10.3v51.6c0,5.7,4.6,10.3,10.3,10.3h73.4c5.7,0,10.3,4.6,10.3,10.3l0.2,223.7
					C573.4,313.7,578,318.4,583.7,318.4z"/>
				<path class="st4" d="M361.5,318.4h-62.3c-5.7,0-10.3-4.6-10.3-10.3V12c0-5.7,4.6-10.3,10.3-10.3h157c5.7,0,10.3,4.6,10.3,10.3
					v51.6c0,5.7-4.6,10.3-10.3,10.3h-74c-5.7,0-10.3,4.6-10.3,10.3V308C371.9,313.7,367.3,318.4,361.5,318.4z"/>
				<path class="st5" d="M869.4,318.4H932c5.7,0,10.3-4.6,10.3-10.3V12c0-5.7-4.6-10.3-10.3-10.3h-62.6C863.7,1.7,859,6.3,859,12
					v296C859,313.7,863.7,318.4,869.4,318.4z"/>
			</g>
		</g>
		<path class="st6" d="M394.7,318.4h155.6c5.7,0,10.3-4.6,10.3-10.3V96.8c0-5.7-4.6-10.3-10.3-10.3H394.7c-5.7,0-10.3,4.6-10.3,10.3
			V308C384.4,313.7,389,318.4,394.7,318.4z M488,258.1c0,5.5-4.5,9.9-9.9,9.9h-11c-5.5,0-9.9-4.5-9.9-9.9v-66.6
			c0-5.5,4.5-9.9,9.9-9.9h11c5.5,0,9.9,4.5,9.9,9.9V258.1z M458.6,160.8l13.9-24.1l13.9,24.1c2.6,4.5-0.6,10.1-5.8,10.1h-16.1
			C459.3,170.9,456.1,165.3,458.6,160.8z"/>
	</g>
	<g class="st1">
		<path class="st7" d="M28.9,357.2c10.7,0,17.5,0,26.2,4.9c11.4,6.5,17.2,18.4,17.2,31.3c0,11.3-4.9,25.4-17.2,31.8
			c-9.5,5-15.4,5-26.2,5H6.7v-73.1h22.2C28.9,357.1,28.9,357.2,28.9,357.2z M12.4,362v63.8h17.2c8.3,0,13.9-0.2,22.3-5
			c8.8-5.1,14-16,14-27.1c0-8.5-3.1-19.5-14-26.5c-7.5-4.8-12.9-5.1-22.3-5.1L12.4,362L12.4,362z"/>
		<path class="st7" d="M242.9,362h-34.2v29.2H242v4.7h-33.3v29.9h35.1v4.6H203v-73.1h39.9V362z"/>
		<path class="st7" d="M409.2,367.1c-5.9-3.4-10.4-5.8-16.5-5.8c-10.5,0-15.4,7.8-15.4,14c0,9.3,8.3,12.2,16.3,15
			c8.7,3.1,18.7,7.9,18.7,20.8s-11,20.2-21.2,20.2c-6.8,0-13.2-2.7-18.8-6.4v-6.6c6.3,4.5,11.8,7.7,18.5,7.7
			c10.5,0,15.5-7.9,15.5-14.6c0-9.9-9.2-13.6-15-15.5c-9.7-3.3-11.6-4.9-13.2-6.3c-3.9-3.3-6.6-8.1-6.6-13.9
			c0-9.8,8.3-19.3,20.7-19.3c6,0,11.8,1.7,17,4.6V367.1z"/>
		<path class="st7" d="M548.3,430.4h-5.8v-73.1h5.8V430.4z"/>
		<path class="st7" d="M743.5,368.9c-7.8-4.9-16.9-7.3-26.2-7.3c-16,0-31.8,11.7-31.8,32.3c0,20.1,15.9,32.3,31.6,32.3
			c7.6,0,15-1.8,22.1-4.6v-19.7h-15.4V397h21.1v28.1c-8.7,4-18.1,6.2-27.6,6.2c-18.9,0-38.2-14.7-38.2-37.7
			c0-20.9,16.1-37.3,39.2-37.3c11,0,19.2,3.6,25.1,6.2v6.4L743.5,368.9L743.5,368.9z"/>
		<path class="st7" d="M942.9,430.4h-4.7L882.6,366v64.3H877v-73.1h5.3l55,63.9v-63.9h5.7L942.9,430.4L942.9,430.4z"/>
	</g>
</g>
<g>
	<g>
		<g>
			<g>
				<path class="st2" d="M86.2,214.5V13c0-5.7-4.6-10.3-10.3-10.3H14.3C8.5,2.6,3.9,7.2,3.9,13v295.6c0,5.7,4.6,10.3,10.3,10.3
					h115.4c4.6,0,8.7-3.1,10-7.5l54.3-193.3v190.5c0,5.7,4.6,10.3,10.3,10.3h62.2c5.7,0,10.3-4.6,10.3-10.3V13
					c0-5.7-4.6-10.3-10.3-10.3H150.6c-4.7,0-8.8,3.1-10,7.7L86.2,214.5z"/>
				<path class="st3" d="M583.6,318.9h115.7c4.5,0,8.6-3,9.9-7.3l54.1-188.7v185.7c0,5.7,4.6,10.3,10.3,10.3h62.2
					c5.7,0,10.3-4.6,10.3-10.3V13c0-5.7-4.6-10.3-10.3-10.3H719.9c-4.7,0-8.8,3.1-10,7.7l-54.4,204.2V13c0-5.7-4.6-10.3-10.3-10.3
					H489.4c-5.7,0-10.3,4.6-10.3,10.3v51.5c0,5.7,4.6,10.3,10.3,10.3h73.3c5.7,0,10.3,4.6,10.3,10.3l0.2,223.4
					C573.3,314.3,577.9,318.9,583.6,318.9z"/>
				<path class="st4" d="M361.7,318.9h-62.2c-5.7,0-10.3-4.6-10.3-10.3V13c0-5.7,4.6-10.3,10.3-10.3h156.8c5.7,0,10.3,4.6,10.3,10.3
					v51.5c0,5.7-4.6,10.3-10.3,10.3h-73.9c-5.7,0-10.3,4.6-10.3,10.3v223.4C372,314.3,367.4,318.9,361.7,318.9z"/>
				<path class="st5" d="M868.9,318.9h62.6c5.7,0,10.3-4.6,10.3-10.3V13c0-5.7-4.6-10.3-10.3-10.3h-62.6c-5.7,0-10.3,4.6-10.3,10.3
					v295.6C858.5,314.3,863.2,318.9,868.9,318.9z"/>
			</g>
		</g>
		<rect x="-5.8" y="357.7" class="st8" width="956.2" height="89.6"/>
		<g class="st9">
			<path class="st10" d="M13.9,357.7c8.4,0,12,0.2,16.2,2.5c4.5,2.5,7.4,7.1,7.4,13.1c0,6.2-3.2,11.4-7.7,13.6
				c-5.1,2.4-8.7,2.4-15.3,2.4H6.4v27.8H1.9v-59.4H13.9z M6.4,361.4v24.1h8.4c5.8,0,9.8-0.3,13.3-2.6c2.7-1.7,4.3-5.8,4.3-9.4
				c0-3.7-1.6-7.3-4.4-9.3c-2.5-1.7-5.6-2.7-13.9-2.7H6.4V361.4z"/>
			<path class="st10" d="M101.5,357.7c6.9,0,10.4,0.3,14.2,1.7c4.7,1.9,9,6.9,9,13.6c0,7.2-4.2,11.9-11.3,14.5
				c3.4,2.2,5,4.5,18.7,25.5l2.8,4.1h-5.5l-11.4-18c-1.8-2.9-5-7.1-7.3-8.7c-2.6-1.8-5.5-1.8-9.8-1.8h-6.4v28.5h-4.6v-59.4
				L101.5,357.7L101.5,357.7z M94.4,361.5v23.2h6.4c6.8,0,10.1-0.3,13.3-1.9c3.2-1.6,5.4-5.7,5.4-9.8c0-4.1-2.2-7.9-5.5-9.6
				c-1.9-1-4.7-1.9-12.1-1.9L94.4,361.5L94.4,361.5z"/>
			<path class="st10" d="M209.1,417.9c-17.8,0-31.5-13.5-31.5-30.6c0-16.1,12.5-30.4,31.6-30.4c18.9,0,31.5,14.2,31.5,30.2
				C240.7,405,226.4,417.9,209.1,417.9z M209.3,361.4c-15.2,0-26.4,11.6-26.4,26.1c0,14,10.9,26.1,26.1,26.1
				c13.7,0,26.5-10.2,26.5-26.4C235.6,373.6,224.8,361.4,209.3,361.4z"/>
			<path class="st10" d="M313,357.7c8.7,0,14.2,0,21.3,4c9.2,5.3,13.9,15,13.9,25.5c0,9.2-4,20.7-13.9,25.9
				c-7.8,4.1-12.6,4.1-21.3,4.1h-18v-59.4h18V357.7z M299.5,361.5v51.9h13.9c6.7,0,11.3-0.2,18.1-4.1c7.1-4.2,11.4-13,11.4-22.1
				c0-6.9-2.5-15.9-11.4-21.5c-6.1-3.9-10.5-4.2-18.1-4.2L299.5,361.5L299.5,361.5z"/>
			<path class="st10" d="M450.7,387.7c0,8.5-0.5,13.9-4.2,19.5c-3.5,5.5-10.3,10.7-20.4,10.7c-7.6,0-16.5-3-20.7-10.5
				c-4.3-7.3-4.4-12.4-4.4-19.7v-30h4.5v30.9c0,8.2,1.4,12.6,3.2,15.7c2.8,4.8,8.3,9.4,17,9.4c7,0,14.1-3.2,17.1-9.2
				c2.7-5.2,3.3-9.9,3.3-15.9v-30.9h4.5v30H450.7z"/>
			<path class="st10" d="M555.6,366.9c-4.6-2.4-11.2-5.7-20.2-5.7c-15.9,0-26.7,11-26.7,26.1c0,15.4,11.2,26.1,26.4,26.1
				c9.6,0,17.6-4.2,21.1-5.9v4.8c-9.7,5.1-18,5.6-21.1,5.6c-16.3,0-31.6-11.3-31.6-30.4c0-20.3,17.3-30.6,31-30.6
				c7.3,0,14.5,1.9,21.1,5V366.9z"/>
			<path class="st10" d="M652.8,361.5h-22.2v55.6h-4.7v-55.6h-22.3v-3.8h49.2V361.5z"/>
			<path class="st10" d="M708.7,417.1H704v-59.4h4.7V417.1z"/>
			<path class="st10" d="M794.4,417.9c-17.8,0-31.5-13.5-31.5-30.6c0-16.1,12.5-30.4,31.6-30.4c18.9,0,31.5,14.2,31.5,30.2
				C826,405,811.7,417.9,794.4,417.9z M794.6,361.4c-15.2,0-26.4,11.6-26.4,26.1c0,14,10.9,26.1,26.1,26.1
				c13.7,0,26.5-10.2,26.5-26.4C820.8,373.6,810.1,361.4,794.6,361.4z"/>
			<path class="st10" d="M933.8,417.1H930l-45.1-52.3v52.3h-4.6v-59.4h4.3l44.7,51.9v-51.9h4.6v59.4H933.8z"/>
		</g>
	</g>
	<path class="st6" d="M550.3,87.3H394.8c-5.7,0-10.3,4.6-10.3,10.3v210.9c0,5.7,4.6,10.3,10.3,10.3h155.4c5.7,0,10.3-4.6,10.3-10.3
		V97.6C560.6,91.9,556,87.3,550.3,87.3z M452.7,162.3l51.6,36.2c3.7,2.6,3.7,8.1,0,10.7l-51.6,36.2c-4.3,3.1-10.3-0.1-10.3-5.4
		v-72.3C442.4,162.4,448.3,159.3,452.7,162.3z"/>
</g>
</svg>
