<?xml version="1.0" encoding="utf-8"?>
<!-- Generator: Adobe Illustrator 19.2.1, SVG Export Plug-In . SVG Version: 6.00 Build 0)  -->
<svg version="1.1" id="Layer_1" xmlns="http://www.w3.org/2000/svg" xmlns:xlink="http://www.w3.org/1999/xlink" x="0px" y="0px"
	 viewBox="0 0 16.9 30" style="enable-background:new 0 0 16.9 30;" xml:space="preserve">
<style type="text/css">
	.st0{fill:#F16521;}
</style>
<path class="st0" d="M3.6,22c-0.1,0.1-0.2,0.2-0.5,0.2c-0.1,0-0.2,0-0.3-0.2c-0.1-0.1-0.1-0.1-0.2-0.2c-0.9-1.4-1.5-2.6-2-3.8
	c-0.2-0.4-0.3-0.9-0.3-1.5s0.4-1.3,1-1.7l1.9-1.2c0.2-0.2,0.2-0.3,0.2-0.3c-0.2-1.4-0.2-2.7-0.1-3.8c0.2-2,0.9-3.9,2.1-5.7
	c0.8-1.1,1.7-2,2.7-2.8c0.1-0.1,0.3-0.2,0.5-0.2c0,0,0.1,0,0.3,0.1c1.8,1.4,3.2,2.9,4.1,5c0.4,0.8,0.7,1.6,0.8,2.5
	c0.2,1.3,0.2,2.7,0,4.3c0,0.3,0.2,0.6,0.5,0.8c0.5,0.3,1.2,0.7,1.9,1.3c0.6,0.6,0.8,1.2,0.7,1.9c-0.1,0.9-0.5,1.6-1,2.6L15,21.1
	l-0.3,0.5c-0.1,0.3-0.3,0.3-0.5,0.3c-0.1,0-0.1,0-0.2,0c-0.1,0-0.1,0-0.2-0.1c0,0,0,0-0.2-0.2c-0.2-0.3-0.3-0.4-0.4-0.6
	c-0.1-0.2-0.3-0.4-0.4-0.6c-0.3-0.3-0.2-0.3-0.4-0.5c0-0.1-0.1-0.2-0.4-0.6c-0.1-0.2-0.2-0.2-0.4-0.2H11l0.6,3.4h0.1
	c1.2,0.2,2.2,1.2,2.3,2.3v0.1h0.1c1.3,0.3,2.3,1.5,2.3,2.9v0.1l0,0.2c0,0.1,0,0.1,0,0.2c0.1,0.1-0.1,0.2-0.2,0.2
	c-0.3,0-0.5-0.2-0.5-0.5c0-1.1-0.9-2-2-2c-0.3,0-0.5-0.2-0.5-0.5c0-0.8-0.4-1.4-1.1-1.8l-0.3-0.2l0.1,1.2c0.1,0.2,0,0.3,0,0.3
	c-0.1,0.1-0.2,0.1-0.3,0.1c-0.4,0-0.6-0.2-0.6-0.4l-0.9-5.6H6.8L6,24.7c-0.1,0.3-0.3,0.4-0.5,0.4c-0.3,0-0.4-0.1-0.4-0.2
	c0,0,0-0.2,0-0.4l0.2-1L5,23.7c-0.7,0.3-1.1,1-1.1,1.8c0,0.3-0.2,0.5-0.5,0.5c-1.1,0-2,0.9-2,2c0,0.3-0.2,0.5-0.5,0.5
	S0.4,28.3,0.4,28c0-1.4,1-2.5,2.3-2.8h0.1v-0.1C3,23.9,3.9,23,5.1,22.8h0.1l0.7-3.7H5.7c-0.2,0-0.3,0-0.4,0.2L3.6,22z M14.9,19
	c0.4-0.9,0.5-1.6,0.6-2.3c0.1-0.5,0.1-1-0.3-1.3c-0.5-0.5-1-0.9-1.6-1.2L13.3,14l-0.9,4.5v0.1c0.1,0.3,0.1,0.2,0.4,0.6l0.6,0.8
	l0.7,0.9l0.2-0.6L14.9,19z M4.5,19v-0.1v-0.2c-0.1-0.5-0.2-1-0.3-1.4l-0.3-1.5l-0.2-1.5l-0.3,0.1c-0.5,0.2-1.2,0.7-1.7,1.1
	c-0.3,0.4-0.6,0.8-0.5,1.4c0.1,1.3,1,2.5,1.7,3.8L3.1,21l0.7-1L4.5,19z M8,2.3c-1.4,1.2-2.2,2.4-2.8,4c-0.8,1.7-1,3.6-0.7,5.8
	c0.1,1.1,0.3,2.3,0.5,3.2l0.1,0.6l0.1,0.5c0.2,0.9,0.2,0.9,0.2,0.9l0.1,0.2l0.1,0.8h5.8l0.2-1c0-0.2,0.1-0.3,0.1-0.4
	c0-0.1,0-0.2,0-0.3s0.1-0.3,0.1-0.4c0-0.1,0.1-0.3,0.1-0.4c0.5-2.1,0.8-3.9,0.8-5.9c0-1.3-0.2-2.3-0.9-4.1c-0.4-1.1-1-1.8-2.2-3.1
	C9.2,2.3,9.1,2.2,8.8,2c0,0-0.1-0.1-0.2-0.1l0,0C8.6,1.9,8.3,2.1,8,2.3z"/>
<path class="st0" d="M8.5,6.7c-1.1,0-2,0.9-2,2s0.9,2,2,2s2-0.9,2-2S9.6,6.7,8.5,6.7z M8.5,9.8c-0.6,0-1.1-0.5-1.1-1.1
	c0-0.6,0.5-1.1,1.1-1.1s1.1,0.5,1.1,1.1C9.6,9.3,9.1,9.8,8.5,9.8z"/>
</svg>
