<?xml version="1.0" encoding="utf-8"?>
<!-- Generator: Adobe Illustrator 19.2.1, SVG Export Plug-In . SVG Version: 6.00 Build 0)  -->
<svg version="1.1" id="Layer_1" xmlns="http://www.w3.org/2000/svg" xmlns:xlink="http://www.w3.org/1999/xlink" x="0px" y="0px"
	 viewBox="0 0 203.8 65.3" style="enable-background:new 0 0 203.8 65.3;" xml:space="preserve">
<path d="M99.9,17.9c3.5,1.5,5.4,3.4,5.5,5.7l0.5,1.3l-0.6,4.3c0.2,3.4,1.1,7.2,2.8,11.5c-0.4,1.2-0.7,1.8-1.2,1.8l-1.3,0.1
	c-1-0.4-2.1-2.2-3.3-5.4c-3.4,3.1-6,4.7-7.9,4.8c-2.2,0.1-3.7-1.8-4.6-5.8c-0.4-7.1,2.4-13,8.4-17.7L99.9,17.9 M94.1,35.9l0.1,1.3
	l2.6-0.1c3-2.4,4.5-4.5,4.4-6.3l-0.5-8.2l-0.9,0C95.7,26,93.8,30.4,94.1,35.9"/>
<path d="M54.3,18.5c2.1-0.1,3.5,5.1,4.1,15.6l0.4,0l-0.4,0.4l0,0.4l1.5,3.1c-0.2,1.1-0.8,2.1-1.8,2.9c-2.1,0.1-3.5-2.7-4.2-8.5
	l-0.1-1.2l-0.8,0c-2.4,6.2-5,9.4-7.7,9.5c-3.1,0.2-5-4.8-5.6-15.1l-0.5-1.9c-0.1-1.1,0.8-2.2,2.6-3.3c1.1,0.3,1.9,0.9,2.5,1.8
	l0.5,7.9l1.1,5.5l0.8,0c3.3-3.8,5.2-8,5.6-12.6C52,20,52.8,18.6,54.3,18.5"/>
<path d="M15.3,26.6L15.3,26.6L15.3,26.6c-3.3-1.4-5.8-2.5-7.5-3.2c-2.6-1.1-3.7-2.9-3.6-5.6c0-0.1,0-0.3,0-0.4
	c0.2-1.4,0.9-2.4,2.2-3.1c1.2-0.6,2.7-0.9,4.6-0.8l0-0.3l0,0.3c0.1,0,0.3,0,0.5,0c0.6,0.1,1.4,0.2,2.3,0.4c1,0.2,1.8,0.3,2.4,0.4
	c0.2,0,0.4,0,0.6,0c0.5,0,0.9-0.2,1.2-0.6c0.3-0.3,0.4-0.7,0.5-1.1c0-0.1,0-0.1,0-0.2c0-0.8-0.5-1.4-1.3-1.8c-0.8-0.4-2-0.7-3.6-0.9
	c-0.7-0.1-1.5-0.1-2.4-0.2c-2.9-0.1-5.4,0.5-7.3,1.7c-2.1,1.3-3.3,3.3-3.5,5.7c0,0.2,0,0.5-0.1,0.7c-0.2,3.7,1.2,6.5,3.9,8.2l0,0
	l0,0c3.3,1.4,5.8,2.4,7.4,3.1c2.5,1.2,3.7,3,3.6,5.8c0,0.1,0,0.2,0,0.4c-0.2,1.6-1,2.6-2.7,3.4c-1.3,0.6-3.1,0.8-5.1,0.7
	c-0.2,0-0.3,0-0.6,0c-0.4,0-1-0.1-1.7-0.3C4.6,39.1,4,39.1,3.5,39c-0.2,0-0.4,0-0.6,0c-0.8,0-1.5,0.1-2,0.3C0.4,39.5,0.1,40,0,40.6
	c0,0.1,0,0.1,0,0.2c0,0.7,0.5,1.3,1.3,1.7c0.8,0.4,1.9,0.6,3.4,0.8c0.7,0.1,1.5,0.1,2.4,0.2c3.2,0.1,5.8-0.4,8-1.6
	c2.4-1.3,3.8-3.4,4.1-6c0-0.2,0-0.5,0.1-0.7C19.4,31.3,18,28.4,15.3,26.6 M36.3,35.2c-0.3-0.3-0.7-0.5-1.1-0.5c-0.1,0-0.2,0-0.3,0
	c-0.4,0-0.8,0.2-1.1,0.5c-1.7,1.5-3.2,2.2-4.5,2.3c-0.2,0-0.4,0-0.6,0c-1.1-0.1-1.9-0.7-2.6-1.9c-0.6-1.1-1-2.4-1.1-4.1
	c-0.1-0.8,0-1.5,0-2.2c0.1-0.9,0.3-1.8,0.7-2.5c0.8-1.6,1.9-2.5,3.5-2.6c0.3,0,0.6,0,0.9,0c1,0.1,2.1,0.5,3.3,1.2
	c0.3,0.1,0.5,0.2,0.8,0.3c0.1,0,0.2,0,0.3,0c0.5,0,1-0.3,1.3-0.7c0.3-0.3,0.4-0.7,0.5-1.1c0-0.1,0-0.2,0-0.3c0-0.7-0.4-1.2-1.1-1.5
	c-1.8-0.9-3.4-1.5-4.9-1.6c-0.5-0.1-1-0.1-1.4,0c-2.6,0.1-4.7,1.5-6.1,4.1c-0.8,1.5-1.3,3-1.5,4.7c-0.1,0.9-0.1,1.8,0,2.7
	c0.2,2.5,1,4.7,2.4,6.6c1.3,1.8,2.9,2.8,4.8,3h0c0.4,0,0.7,0,1.1,0c2.2-0.1,4.5-1.3,6.9-3.4c0.4-0.3,0.7-0.8,0.7-1.3
	c0-0.1,0-0.2,0-0.3C36.9,36.1,36.7,35.6,36.3,35.2 M88.8,36.8L87,7.7c0-1-0.6-1.7-1.6-1.8c-0.2,0-0.3,0-0.5,0c-1,0-1.7,0.6-1.8,1.6
	c0,0.2,0,0.3,0,0.5L84.9,37c0,1,0.6,1.7,1.5,1.8c0,0,0,0,0.1,0c0.2,0,0.3,0,0.5,0c1,0,1.7-0.6,1.8-1.6C88.8,37.1,88.8,37,88.8,36.8"
	/>
<path d="M73.7,19.7l0.2,0.1l0.9,0c0.3,0,0.6,0,0.8,0.1l0,0l0.1,0l1.2,0.2l0,0l0.2,0c0.7,0.2,1.3,0.4,1.8,0.8c0.3,0,0.5,0.3,0.9,0.8
	c0.2,0,0.3,0.3,0.4,0.8l0.1,0l0,0.2l0.3,0.7l0.1,1.5l0.1,0.1l0,0.1l0.1,1.2l0.1,0.1L81,26.3l0,0.1l0.1,0.1l0,0.9
	c0.1,0,0.1,0.2,0.2,0.5l-0.1,0.2l0.1,0.1l0,0.1l-0.1,0.1l0,0.6l0.1,0.1l0,0.3l-0.1,0.1l0,0.5l-0.1,0.1L81.1,30l-0.2,0.2l0.2,0.1
	l0.2-0.1l0,0.4l-0.1,0.1l0,0.4l-0.4,0.2v0l0.3,0.4c-0.2,0-0.3,0.1-0.3,0.1l0.2,0.2l0,0.1l-0.2,0.4l-0.2,0.5l0,0l0,0.3l-0.1,0.1
	l0,0.4c-0.1,0-0.1,0.2-0.1,0.7l-0.1,0.1l0.1,0.1l-0.2,0.3l0,0.1l0.1,0.1c-0.1,0-0.1,0.2-0.2,0.5l-0.1,0l0.1,0.1
	c-0.2,0.1-0.3,0.4-0.4,1c-0.1,0-0.1,0.1-0.1,0.3c-0.1,0-0.1,0.1-0.1,0.2c-0.2,0.1-0.6,0.4-1.1,0.9c-0.2,0-0.5,0.1-0.7,0.3l-0.7,0.4
	l-0.2,0c0,0-0.1,0.1-0.2,0.1c0,0.1-0.1,0.1-0.4,0.1l-0.1,0.1l-1.4,0.1l-0.1,0.1l-0.1,0l-0.2-0.1l0,0L74,39.6l-0.7,0l-0.2,0.1l-0.4,0
	l-0.2-0.1l-0.1,0.1l-1.3,0.1c-0.1,0-0.2,0.1-0.3,0.3l-0.1,0c0-0.2-0.3-0.3-0.7-0.3l-0.1,0l-0.8,0L69,39.8l-0.1,0
	c-0.2-0.1-0.5-0.1-1-0.1c0,0-0.2-0.1-0.7,0c-0.4-0.1-0.8-0.3-1.4-0.4c0-0.1-0.2-0.2-0.5-0.3c-0.8-0.5-1.3-0.8-1.5-1
	c-0.2,0-0.3-0.3-0.5-0.8c-0.2-0.3-0.3-0.6-0.3-0.9l0-0.3l-0.4-0.5l0-0.2l0.3-0.6c-0.1,0-0.2-0.1-0.2-0.2l-0.1,0l0.1-0.3l0-0.4
	l0.1-0.1l0-0.1l-0.1-0.1l0-0.7l0.2-0.3l0.1,0l0.3,0.1l0.2,0l0.2-0.1l0-0.1c0-0.2-0.1-0.3-0.2-0.3l0.1,0l0,0c0-0.1-0.3-0.1-0.7-0.2
	c0.2-0.2,0.3-0.4,0.3-0.5l0-0.3c0-0.1-0.1-0.1-0.4-0.1c-0.1,0-0.1-0.2-0.2-0.5c-0.1,0-0.1-0.1-0.1-0.2l0.2,0l0-0.1L62.5,30l0-0.2
	l0.1,0l0,0l0.1,0l0.1,0l0.1-0.1l-0.2-0.1l-0.1,0.1l-0.1,0l0.1-0.2l0-0.6l-0.1-0.1l0-0.3l0.1-0.2l-0.1,0l0.1-0.2l0-0.6l0.1-0.1
	l-0.1-0.1l0-0.1l0.1-0.1l0-0.1l-0.1-0.2l0-0.2l0-0.3c0.1,0,0.1-0.3,0.2-0.8l0.1,0l0-0.4l0.3-0.8c0.1,0,0.3-0.2,0.4-0.7l0.1,0l-0.1,0
	l0,0c0.1-0.1,0.2-0.3,0.3-0.5l-0.1,0l0,0l0.9-1.4c0.3-0.1,0.7-0.5,1.3-1c0.1,0,0.4-0.1,0.9-0.4c0.6-0.1,0.9-0.2,1-0.2l1.1,0l0.3,0.2
	l0.1,0l0.2-0.3l0.1,0.1l-0.1,0.1l0,0.1l0.2,0.1l0.1-0.2L69.7,20l0.6,0l0.4,0l1.4-0.1l0.2-0.1l0.5,0l0.2,0L73.7,19.7 M62.8,30.7
	l0,0.1l0.1,0.1l0.1,0l0.2-0.2l0,0l-0.3,0l-0.1,0L62.8,30.7z M63,29.8l0,0.3l0.1,0.2l0.1,0c0.2,0,0.4-0.1,0.4-0.3
	c0-0.2,0-0.3,0.1-0.3l-0.2-0.1l-0.2,0L63,29.8z M63.2,34.9l0,0.2l0.2,0.1l0.2-0.2l0-0.2l-0.2-0.1l-0.1,0L63.2,34.9z M63.3,35.7
	l0.2,0.1l0.2-0.1l-0.2-0.1L63.3,35.7z M63.9,31.3l0.2,0.1l0.2-0.1l-0.1-0.1l-0.1,0L63.9,31.3z M64.5,32.6l0.3,0.2l0.1,0l0.3-0.2
	l-0.1,0l0,0l0.1,0l0,0l-0.2-0.1l-0.1,0L64.5,32.6z M64.6,30.1L64.6,30.1l0.1,0.2l0.2,0l0.2-0.1l0-0.1l-0.2-0.1l-0.1,0L64.6,30.1z
	 M65.2,32.5l0.1,0.1l0.1,0c0.1,0,0.2-0.1,0.2-0.2l-0.1-0.1l-0.1,0L65.2,32.5z M65.6,30L65.6,30l0.1,0l0,0l0.1,0l0,0
	c0.2,0,0.3,0.1,0.3,0.2l0.5,0.2l0.2,0l0.3-0.1c0,0.1,0.1,0.1,0.3,0.1l0.3-0.1c0,0.1,0.2,0.1,0.5,0.1c0.1,0.1,0.2,0.2,0.2,0.2l0.1,0
	c0.1,0,0.2-0.1,0.2-0.2l0.1,0l0.1,0.2l0.1,0c0.1,0,0.2-0.1,0.2-0.2l0.1,0l0.1,0.1l0.4,0l0.2-0.1l0.4,0.2l1,0l0.1-0.1l0-0.1l-0.3-0.2
	l-1,0c-0.2-0.1-0.5-0.2-0.8-0.2l-0.1,0l0,0L69,30.3l-0.1,0c0,0.1,0,0.1-0.1,0.1c-0.1-0.1-0.3-0.1-0.5-0.1l-0.3-0.1l0,0l-0.2,0.1
	l-0.2-0.1l-0.2,0l-0.2,0.1c-0.1,0-0.1-0.1-0.1-0.2l-0.1,0c0-0.1-0.1-0.1-0.3-0.1c0-0.1-0.1-0.3-0.4-0.4c-0.1,0-0.1,0.1-0.1,0.2
	C66,29.7,65.8,29.8,65.6,30 M66,32.6l0.2,0.1l0.8,0l0.2,0.1l1.3-0.1l0.2,0.1l0.1-0.1l0.5,0l0.2,0.1l0.8,0l0.2,0.1l0.1,0l0.2-0.1
	l0.2,0.1c-0.1,0.1-0.2,0.4-0.3,0.8c-0.1,0.1-0.3,0.4-0.6,0.8l0,0.3c0.3,0.4,0.8,0.7,1.5,1l0.1,0l0,0l0.1-0.1
	c-0.7-0.3-1.2-0.7-1.4-1.1l0-0.1c0.6-0.8,0.8-1.3,0.8-1.5c0.1-0.2,0.2-0.3,0.3-0.4l0.2,0l0.2,0l0.1-0.1l0-0.1l-0.1-0.1
	c-0.3,0-0.5,0.1-0.6,0.1l-0.1,0L71,32.4l-0.2,0.1l-0.1,0l-0.2-0.1l-0.1,0l-0.3,0.1l-0.1-0.1l-1.7,0.1l-0.2-0.1l-0.1,0.1l-0.2-0.1
	l-0.2,0.1l-0.1-0.1l-1,0l-0.2-0.1C66.1,32.5,66,32.6,66,32.6 M66.2,29.1l0,0.2l0.2,0.1l0.1,0l0.2-0.1l0-0.1l-0.2-0.1l-0.1,0
	L66.2,29.1z M67.2,35.9c-0.1,0.1-0.2,0.3-0.3,0.6l0,0l0.2,0.1c0.1,0,0.2-0.1,0.2-0.2l0.4-0.4C67.6,36,67.5,35.9,67.2,35.9
	 M66.9,31.7L66.9,31.7l0.1,0.1l0.2-0.1l-0.2-0.1L66.9,31.7z M67.2,35.8l0.2,0.1l0.2-0.1l-0.2-0.1L67.2,35.8z M67.8,34.8l0,0.1L68,35
	l0.2,0l0.2-0.1l0,0L68,34.6l0,0L67.8,34.8z M68.2,26.9l0.2,0.1l0.2-0.1l0,0l-0.2-0.1l-0.1,0L68.2,26.9z M69.1,25.4l-0.1,0.1l0.1,0.1
	l0.2,0l0,0L69.1,25.4z M69.3,23.9l0,0.1l0.2,0.1l0.4-0.2l0-0.1l-0.2-0.1l-0.1,0L69.3,23.9z M70.1,30.9L70,31.1l0.1,0l0,0l0.2-0.1
	L70.1,30.9L70.1,30.9z M69.8,22.5l-0.1,0.2l0,0.1l0.2,0.1l0.2,0l0.2-0.1l0-0.1l-0.2-0.1L69.8,22.5z M71.2,34L71.2,34l0.2,0.1l0.2,0
	l0.2-0.1l-0.2-0.1l-0.1,0L71.2,34z M71.4,26.4l-0.3,0L71,26.4l0,0l0.3,0.2l0.2-0.2l0.1,0l0.2,0l0.2-0.1c-0.1,0-0.1,0-0.1-0.1l-0.1,0
	l-0.1,0c-0.1,0-0.2,0-0.2,0.1L71.4,26.4L71.4,26.4z M72,30.6l-0.2,0.1l-0.2,0l0,0l0,0l0.1,0.1l0.1,0l0.2-0.1l0.2,0.1l0.1,0l0.1-0.2
	L72,30.6z M72.3,30.8L72.3,30.8l0.2,0.2l0.2-0.1l0-0.1l-0.2-0.1L72.3,30.8z M73.5,24.5l-0.1,0.1l-0.4,0l-0.2,0.2l0.2,2l0.1,0.1l0,0
	L72.9,27l0.1,0.1l0.1,1.9L73,29.2l0.1,0.1l0,0.4L73,29.8l0.1,0.1l0,0.1L73,30.1l0,0l0.1,0.1l0,0.1c-0.1,0.1-0.2,0.3-0.4,0.4l0,0.1
	l0.3,0.2l0,0.9l0,0.1l-0.1,0.1l0,0.6l-0.1,0.2l0,1c-0.1,0-0.1,0.2-0.2,0.5l-0.1,0.1l0,0.3l0.1,0.1l0,0.4c0.2,0.3,0.3,0.6,0.3,0.8
	l0.1,1.3l0.3,0.3l0,0l0.2-0.1l1.3-0.1l0,0l0.1,0c0,0,0.2-0.1,0.5-0.1l0.5-0.2c0.5-0.2,0.7-0.6,0.7-1l0.1,0l0.1,0l-0.1,0l0-0.2
	l0.1-0.1l0,0l0-0.2l0-0.7l-0.1-0.1l0.1-0.1l0-0.5l0.1-0.1L76.7,34l0.1-0.1l0-0.1l-0.3-0.3l0-0.1l0.1,0l0,0l-0.1-0.1l0-0.1l0.1-0.1
	l-0.1-0.1l0-0.4l0.1-0.1l-0.1,0l0-0.3l0.1,0l0,0c-0.1,0-0.2-0.1-0.2-0.4l0,0l0-0.1l0.1-0.1l0-0.1l-0.1-0.1l0-0.5l0.1-0.1l0-0.1
	l-0.1-0.1l0-0.6l-0.1-0.1L76,29.2l0.1-0.2L76,28.3l0.1-0.3l-0.2-0.3l0.1-0.1l0-0.6L75.8,27l0-0.4l-0.1-0.1l0-0.4
	c-0.1,0-0.2-0.3-0.3-0.9c-0.9-0.4-1.4-0.6-1.5-0.6C73.7,24.5,73.5,24.5,73.5,24.5 M75.2,24.4l-0.1,0.1c0,0.1,0.3,0.1,0.7,0.3
	l0.2,0.2l0,0l-0.1,0.3l0.3,0.2l-0.1,0.1l0.2,0.1l0.1,0l0-0.1l0,0l0,0l0-0.4l0-0.3C75.9,24.5,75.5,24.3,75.2,24.4 M75.7,23l0,0.1
	c0.1,0,0.2,0,0.2,0.1l0.2,0l0.2-0.1l0,0c-0.1-0.3-0.3-0.4-0.4-0.4c-0.1,0-0.1,0.1-0.1,0.3L75.7,23z M77.5,34.5l0.3,0.1l0.1,0
	l0.1-0.2l-0.2-0.1l-0.1,0L77.5,34.5z M77.5,34.8l0.2,0.1l0.1-0.1l0,0l-0.1-0.1L77.5,34.8z M78.1,29.3L78.1,29.3l0.3,0.2l0.1-0.1l0,0
	l-0.2-0.1L78.1,29.3z M78.8,30.3L78.8,30.3c0,0.1,0.1,0.1,0.3,0.1L79,30.6l0,0l0.2,0.1l-0.5,0.5l0,0.1l0.4,0.1l0.2,0l0.2-0.1l0-0.1
	l-0.2-0.1l0.3-0.2l-0.2-0.1l0.1-0.2l-0.3-0.2l0.1-0.2L79,30.2L78.8,30.3z M79.6,30.7l0.2,0.1l0,0l0.2-0.1l-0.1-0.1l-0.1,0L79.6,30.7
	z M79.9,29.8l-0.1,0.1L80,30l0.1-0.1L79.9,29.8z M80.3,31.3l-0.1,0.1c0.1,0,0.1,0,0.1,0.1l0.1,0l0.2,0l0.2-0.1
	C80.6,31.3,80.4,31.3,80.3,31.3 M80.6,28.7l-0.2,0.4l-0.1,0l0,0.1l0.1,0.1l0,0l-0.1,0.1l0.1,0l-0.1,0.2l0,0.4l-0.2,0.2l0,0l0.4,0.2
	l0.1,0l0.1-0.2l0-0.3l0.2-0.4l0-0.1c-0.1-0.1-0.1-0.1-0.1-0.3l0,0l0-0.2l0-0.2L80.6,28.7z"/>
<polygon points="63.5,36.1 63.6,36.2 63.7,36.2 63.7,36.1 63.8,36.1 63.7,36 63.6,36 "/>
<polygon points="70.2,26.6 70.4,26.7 70.6,26.7 70.7,26.6 70.7,26.5 70.5,26.4 70.4,26.4 "/>
<path d="M137.1,42.5l0.3,0.2l1.7-0.1C138.4,42.4,138,42.6,137.1,42.5 M179.8,43.8l1.5-0.1l-0.2,0C180.7,43.7,180.2,43.7,179.8,43.8
	 M110.1,42.1l0.6-0.3l-1.5,0C108.6,41.8,109.4,42,110.1,42.1 M196.2,44.4c-0.9,0.1-0.1,0.2-0.4,0.4C196.4,44.3,197,44.7,196.2,44.4
	 M118.5,0.4c0.8-0.1,0.1-0.2,0.4-0.4C118.3,0.4,117.8,0,118.5,0.4 M156.2,2.1L153,2.2l0.2,0L156.2,2.1z M173.6,2.1l-0.3-0.2L171.7,2
	C172.3,2.2,172.7,2.1,173.6,2.1 M198.6,2.6l-0.6,0.3l1.4,0C200,2.8,199.3,2.7,198.6,2.6 M115.7,0.6c0.5,0,0.8,0,1-0.1
	C116.1,0.3,116.1,0.5,115.7,0.6 M199.3,44.2c-0.5,0-0.8,0-1.1,0.1C198.9,44.4,198.9,44.2,199.3,44.2 M133.8,0.9L132.4,1l0.2,0
	C132.9,1,133.4,1,133.8,0.9 M155.7,42.6l3.5-0.1l-0.2,0L155.7,42.6z M181.2,43.4c-0.3-0.1-0.6-0.1-0.6-0.2
	C180.3,43.3,180.2,43.4,181.2,43.4 M162.2,30.7c-0.2,0-0.4,0.2-0.6,0.4l-0.4,0.4c-0.2,0-0.2-0.2-0.3-0.7c-0.1-0.9,0.1-2.3,0.6-4.2
	c0.5-1.9,0.7-3.3,0.6-4.3c0-0.4-0.1-1.1-0.3-1.9c-0.2-0.8-0.3-1.5-0.3-1.9c0-0.4,0-1,0-1.7c0-0.8,0-1.4,0-1.7c0-0.1-0.1-0.2-0.4-0.3
	c-0.2-0.1-0.4-0.3-0.4-0.4c-0.6-2.1-1.1-3.6-1.6-4.5c-0.7-1.4-1.7-2.6-3-3.6l-0.7,0c0-0.4-0.2-0.6-0.5-0.6c-0.1,0-0.3,0.1-0.4,0.3
	c-0.1,0.2-0.2,0.3-0.3,0.3c-0.2,0-0.5,0-0.9,0c-0.4,0-0.7,0-0.9,0c-0.3,0-0.7,0.2-1.2,0.5c-0.7,0.4-1.1,0.6-1.2,0.7
	c-0.5,0.2-0.9,0.4-1.1,0.6c-0.4,0.3-0.8,0.9-1.2,1.9c-0.6,1.4-0.9,2.1-0.9,2.3c-0.7,0.5-1.3,1.9-1.7,4.3c-0.4,2-0.5,3.7-0.4,5
	c0.1,0.9,0.3,2.3,0.8,4c0.5,1.8,0.7,3.1,0.8,4c0,0.1-0.2,0.3-0.7,0.9c0.2,0.1,0.6,0.1,1.4,0.2c0.6,0.1,1.1,0.2,1.3,0.4
	c1.6,2.5,2.6,4,2.8,4.3c1.4,1.8,2.6,2.6,3.7,2.5c0.7,0,1.8-0.7,3.5-1.9c1.6-1.2,2.4-2.2,2.3-2.9c0-0.1,0-0.1-0.1-0.2
	c-0.1-0.1-0.1-0.2-0.1-0.2c0-0.1,0-0.1,0.1-0.2c0.2,0.1,0.4,0.2,0.7,0.2c1.4-0.1,2-0.6,2-1.5C162.9,30.8,162.6,30.7,162.2,30.7
	 M192,31.2c-0.2,0-0.4,0.1-0.6,0.4L191,32c-0.1,0-0.2-0.2-0.2-0.7c0-0.8,0.2-2.1,0.6-3.9c0.5-1.8,0.7-3.1,0.6-4c0-0.4-0.1-1-0.3-1.8
	c-0.2-0.8-0.3-1.4-0.3-1.8c0-0.3,0-0.9,0-1.6c0-0.7,0-1.3,0-1.6c0-0.1-0.1-0.2-0.3-0.3c-0.2-0.1-0.3-0.3-0.4-0.4
	c-0.5-2-1-3.4-1.4-4.2c-0.6-1.3-1.6-2.4-2.8-3.4l-0.6,0c0-0.4-0.2-0.6-0.5-0.5c-0.1,0-0.2,0.1-0.4,0.3c-0.1,0.2-0.2,0.3-0.3,0.3
	c-0.2,0-0.5,0-0.8,0c-0.4,0-0.6-0.1-0.8,0c-0.3,0-0.7,0.2-1.1,0.4c-0.6,0.4-1,0.6-1.1,0.6c-0.5,0.2-0.8,0.4-1.1,0.5
	c-0.4,0.3-0.7,0.9-1.1,1.8c-0.5,1.3-0.8,2-0.9,2.1c-0.7,0.4-1.2,1.7-1.6,3.9c-0.4,1.9-0.5,3.4-0.4,4.6c0,0.9,0.3,2.1,0.7,3.8
	c0.4,1.7,0.6,2.9,0.7,3.8c0,0.1-0.2,0.3-0.6,0.8c0.1,0.1,0.6,0.1,1.3,0.2c0.6,0.1,1,0.2,1.2,0.4c1.5,2.4,2.3,3.7,2.5,4
	c1.3,1.7,2.4,2.5,3.4,2.4c0.6,0,1.7-0.6,3.2-1.7c1.5-1.1,2.3-2,2.2-2.6c0-0.1,0-0.1-0.1-0.2c-0.1-0.1-0.1-0.2-0.1-0.2
	c0-0.1,0-0.1,0.1-0.2c0.2,0.1,0.4,0.2,0.6,0.2c1.3-0.1,1.9-0.5,1.8-1.3C192.7,31.4,192.4,31.2,192,31.2 M113.6,39.9l-2.8,0
	c-1.2,0.1,0.4,0.2,1.7,0.3L113.6,39.9z M203.3,42.7L203.3,42.7L203.3,42.7L203.3,42.7L203.3,42.7l0-0.7l0-1.2
	c0.5-7.5,0.5-15.5,0.4-22.5c0-0.3,0-0.7-0.1-1l0.1-2.7l-0.4,0.1c0,0,0-0.1,0-0.1c0,0,0,0.1,0,0.1l-1.3,0.4c0-0.8,0-1.6,0-2.4
	c0-1.3,0-2.6,0-3.9l0-1.9l0-0.3l0-0.2v0c-2-2.1-0.6-0.6-1-1l0,0h0l0,0l-0.1,0l-0.1,0l-0.2,0l-0.9,0c0.3,0,0.7,0.1,1,0.1
	c0.1,0,0.3,0,0.3,0l0,0l0,0h0c0.1,0.1,0.7,0.7,0.9,1c0,0,0,0-0.1-0.1v0l0,0l0,0l0,0c-0.1-0.1-0.3-0.3-0.8-0.9h0l-0.2,0l-0.2,0
	l-0.4,0c-0.2,0-0.4,0-0.6,0c-0.3,0-0.5,0-0.7-0.1c-0.3-0.1-0.3-0.1-0.6-0.2c-1.8,0.1-1.6,0.4-2.6,0.5c-3.6-0.3-4.1-0.1-7.2-0.5
	l0.2,0.3c-1.7-0.2-2.2,0-3.5,0L199.4,3l-3,0c-0.1-0.1-0.1-0.1,0-0.2l-0.9,0.2l-25.4-0.3c0.8-0.1,2.5,0,2.7-0.2
	c-2,0.2-4.9,0.1-7.1,0.2l-14.6-0.2c-0.2-0.1-0.3-0.1-0.4-0.1c0,0,0,0.1,0,0.1l-1.8,0c0,0,0,0,0,0c-0.6,0-1.1,0-1.5-0.1
	c-0.3,0-0.4,0.1-0.4,0.1l-0.9,0c0.1-0.1,0.4-0.3,0-0.5c1.2-0.2,2.7-0.2,3.4-0.3l-2.3,0.1c0.1-0.2-1.5-0.3-0.3-0.4
	c-2.3-0.2-5,0-7.2,0.1c0.3,0.1,0.7,0.1,0.6,0.2c-1.1,0.1-1-0.1-1.2-0.2c-0.8,0.1-0.7,0.4-1.3,0.6c-1.7-0.2-2-0.1-3.4-0.5l0.1,0.3
	c-1-0.2-1.2,0.2-2.3,0c-0.1-0.1,0.4-0.1,0.7-0.2c-1,0.1-0.9-0.2-1.9-0.1l0.8-0.3c-0.8,0-1.9,0.1-1.5-0.2c-1.4,0.3-3.7,0.1-5.4,0.3
	l0.1-0.2c-0.9,0.3-3.2-0.1-4,0.3l-0.1-0.1l-1.7,0.3c-0.8,0-0.5-0.4-0.6-0.3c-1.7,0-3.1,0-4.2-0.1c-0.3,0.3-2.1,0.4-3.5,0.4l-2.6-0.1
	l-1.3,0l-0.7,0l-0.2,0h0c0.1-0.1-1.2,1.1-0.6,0.6l0,0l0,0l0,0.1l0,0.3c-0.1,1.8-0.2,3.6-0.3,5.3c-0.1,3.5-0.2,7-0.2,10.3
	c0,0.3,0,0.6,0,1l-0.2,2.5l0.4-0.1c0,0,0,0.1,0,0.1l0-0.1l1.4-0.3l-0.2,3.8l4.5,14.8l4.7,0.1l-6.2,1.8l3.3,0c0.1,0.1,0.1,0.1,0,0.2
	l0.9-0.2l27.3,0.3c-0.8,0.1-2.6,0-2.9,0.2c2.1-0.2,5.3-0.1,7.6-0.2l15.7,0.2c0.2,0.1,0.3,0.1,0.4,0.1c0,0,0-0.1,0-0.1l2,0
	c0,0,0,0,0,0c0.6,0,1.1,0,1.6,0.1c0.3,0,0.4-0.1,0.5-0.1l1,0c-0.1,0.1-0.4,0.3,0,0.5c-1.3,0.2-2.9,0.2-3.6,0.3l2.5-0.1
	c-0.2,0.2,1.7,0.3,0.4,0.4c2.5,0.2,5.4,0,7.8-0.1c-0.3-0.1-0.8-0.1-0.7-0.2c1.2-0.1,1.1,0.1,1.3,0.2c0.9-0.1,0.8-0.4,1.4-0.6
	c1.9,0.2,2.1,0.1,3.7,0.5l-0.1-0.3c1.1,0.2,1.3-0.2,2.5,0c0.1,0.1-0.4,0.1-0.8,0.2c1.1-0.1,1,0.2,2,0.1l-0.8,0.3
	c0.8,0,2.1-0.1,1.6,0.2c1.5-0.3,4-0.1,5.8-0.3l-0.1,0.2c0.9-0.3,3.4,0.1,4.3-0.3l0.1,0.1l1.9-0.3c0.8,0,0.6,0.4,0.6,0.3
	c1.9,0,3.3,0,4.5,0.1c0.2-0.2,0.7-0.2,1.4-0.3l0.3,0l0.1,0l0,0l0,0l0,0C202.1,43.9,203.5,42.6,203.3,42.7 M137,36.6
	c-1.3,0.1-2.5,0.2-3.5,0.1c-0.7,0-1.8-0.2-3.3-0.4c-1.5-0.3-2.6-0.4-3.3-0.4c-0.3,0-0.8,0.1-1.4,0.2c-0.6,0.2-1.1,0.2-1.4,0.2
	c-0.1,0-0.3-0.1-0.4-0.3c-0.2-0.2-0.3-0.3-0.3-0.3c-0.2,0-0.6,0-1,0.1c-0.5,0.1-0.8,0.1-1,0.2c-0.8,0.1-2.1,0.1-4.1,0
	c-0.2,0-0.3,0.2-0.3,0.5c0,0.1,0,0.3,0.1,0.5c-0.3,0-0.5,0-0.5,0.1c0,0,0,0,0.1,0c-0.1,0-0.1,0-0.1,0c-0.2,0-0.3-0.1-0.4-0.3l0-0.5
	c0-0.1-0.5-0.4-1.4-0.8c-0.2,0-0.5,0-0.9,0.1c-0.4,0.1-0.7,0.1-0.9,0.1c-0.7,0-1-0.5-1-1.4c0-0.3,0.1-0.6,0.2-1
	c0.3-0.2,0.7-0.5,1.1-1l0-0.8l10.4-13.5c0.6-0.5,1.4-1.3,2.5-2.4c0-0.1,0-0.3,0-0.5c0-0.3,0-0.6-0.1-1c0.7-0.2,1.3-0.6,1.7-1.1
	c0.7-1.1,1.4-2.3,2.2-3.5c0.5-0.7,0.7-1.3,0.7-1.9c0-0.5-0.5-1-1.6-1.4c-0.8-0.3-1.6-0.5-2.2-0.5c-0.2,0-0.5,0-1,0.1
	c-0.4,0.1-0.8,0.1-1,0.1L123.3,6c0.1,0,0.1,0-0.1,0c-0.2,0-0.5,0-0.8,0l-0.7,0c-1.6-0.1-2.9,0.4-3.8,1.2c-0.5,0.5-1,1.4-1.7,2.9
	c-0.6,1.3-1.2,2.1-1.9,2.5c-0.1,0-0.3,0.3-0.6,0.6c-0.3,0.4-0.5,0.5-0.5,0.5c-0.1,0-0.2-0.1-0.2-0.2c-0.2-0.2-0.4-0.5-0.4-1
	c0-0.2,0-0.5,0.1-0.9c0.1-0.4,0.1-0.7,0.1-0.9l-0.1-0.8c0-0.4-0.1-0.7-0.1-0.9c0-0.3,0.1-0.8,0.3-1.4c0.2-0.6,0.3-1.1,0.3-1.5
	c0-0.4,0.1-0.6,0.2-0.7c0.8-1,1.9-1.5,3.3-1.4c0.4,0,1,0.1,1.8,0.2c0.8,0.1,1.4,0.2,1.8,0.2l1.2,0l1.7,0l2.8,0.1
	c2.4,0.1,4.5,0.2,6.3,0.5c0.2,0,0.5,0.1,0.9,0.2c0.4,0.1,0.7,0.2,0.9,0.2c0.2,0,0.4,0,0.8-0.1c0.4-0.1,0.6-0.1,0.8-0.1
	c0.3,0,0.6,0.1,1.1,0.1c0.5,0.1,0.9,0.1,1.1,0.1l0.1,0c0.1,0,0.3,0.2,0.5,0.6c0.2,0.5,0.4,0.7,0.5,0.8c0.1,0,0.2-0.2,0.5-0.6
	c0.2-0.4,0.4-0.6,0.5-0.6c0.4,0,0.5,0.4,0.5,1c0,0.3-1.1,2-3.3,5c-2.2,3-3.5,4.8-4.1,5.3c-0.5,0.5-0.8,1-0.7,1.3l0.1,0.4
	c-0.4,0.1-0.8,0.4-1.2,1c-0.5,0.7-0.8,1.1-1.1,1.2c-0.2,0.6-0.6,1.4-1.1,2.4c-0.5,0.4-1.2,1.1-2,2c-0.4,0.6-0.9,1.4-1.7,2.6
	c-0.9,1.1-2.2,2.7-3.7,5c0.5,1,1.4,1.5,2.7,1.5c0.3,0,0.7,0,1.2,0c0.6,0,1,0,1.2,0c0.2,0,0.3-0.2,0.2-0.5c0.1,0,0.1,0,0.2,0
	c0.2,0,0.4,0.1,0.6,0.3l0.3,0.3c0,0,0,0,0.1,0c0.3,0,0.5-0.1,0.9-0.1c0.2,0,0.6,0,1.1,0.1c0.5,0.1,0.9,0.1,1.1,0.1
	c1.1,0,2.2,0,3.2-0.3c0.1,0,0.7-0.6,1.8-1.8c1-1.1,1.8-1.7,2.3-1.6c0.3,0,0.5,0.2,0.8,0.4c0.2,0.3,0.3,0.6,0.3,0.9
	c0,0.1,0,0.1,0,0.3c0,0.2-0.1,0.4-0.2,0.8c-0.2,0.3-0.3,0.6-0.3,0.7c0,0,0,0.1,0,0.1c0.2,0.3,0.3,0.8,0.5,1.5
	C139.9,36.1,138.9,36.4,137,36.6 M166.1,33c-2.8,3.4-5.9,5.2-9.3,5.4c-1.6,0.1-3.4-0.1-5.6-0.5c-2.4-0.5-4.1-1.2-5.2-2
	c-1.5-1.1-2.8-2.4-3.9-3.8c-0.2-0.3-0.3-0.7-0.4-1.3c-1.4-1.8-2.2-3.5-2.3-5c0-0.1-0.1-0.2-0.3-0.3c-0.2-0.1-0.2-0.2-0.2-0.2
	c-0.1-1.8,0.1-3.4,0.7-4.6c0-0.1-0.1-0.3-0.3-0.5c-0.2-0.2-0.3-0.4-0.3-0.5c-0.3-3.9,1.4-7.5,5.1-10.9c0.1-0.1,0.6-0.6,1.6-1.4
	l0.7-0.1l0.7-0.8c0.1,0,0.3,0,0.6,0c0.3,0,0.4,0,0.5,0c0.2,0,0.7-0.4,1.5-1.1c0.8-0.7,1.4-1.1,1.8-1.1c0.2,0,0.4,0,0.7,0.1
	c0.3,0.1,0.6,0.1,0.7,0.1c0.2,0,0.5-0.1,0.9-0.1c0.4-0.1,0.7-0.1,0.9-0.1c0.8-0.1,1.5,0.2,2.1,0.8c1.5-0.1,2.2-0.2,1.9-0.2
	c0.8,0,1.4,0.2,1.8,0.4c2.3,1.6,3.7,2.7,4.3,3.4c0.4,0.4,1.4,2,3,4.7c0.4,0.7,0.7,1.6,0.8,2.8c0.2,1.4,0.4,2.4,0.5,2.8
	c0.3,1.1,0.5,2.2,0.6,3.2C170.1,25.9,168.9,29.6,166.1,33 M195.7,33.4c-2.6,3.1-5.5,4.7-8.8,4.9c-1.5,0.1-3.2-0.1-5.2-0.6
	c-2.2-0.5-3.8-1.2-4.8-1.9c-1.4-1-2.5-2.2-3.5-3.6c-0.2-0.3-0.3-0.7-0.3-1.2c-1.3-1.7-2-3.2-2-4.6c0-0.1-0.1-0.2-0.2-0.3
	c-0.1-0.1-0.2-0.1-0.2-0.2c-0.1-1.7,0.1-3.1,0.7-4.3c0-0.1-0.1-0.2-0.3-0.5c-0.2-0.2-0.2-0.4-0.2-0.5c-0.2-3.6,1.4-7,4.9-10
	c0.1-0.1,0.6-0.6,1.5-1.3l0.7,0l0.6-0.8c0.1,0,0.3,0,0.5,0c0.2,0,0.4,0,0.5,0c0.2,0,0.7-0.3,1.4-1c0.8-0.7,1.3-1,1.7-1
	c0.1,0,0.4,0,0.7,0.1c0.3,0.1,0.5,0.1,0.7,0.1c0.2,0,0.5,0,0.8-0.1c0.4-0.1,0.6-0.1,0.8-0.1c0.8,0,1.4,0.2,2,0.8
	c1.4-0.1,2-0.1,1.8-0.1c0.7,0,1.3,0.2,1.6,0.4c2.1,1.5,3.4,2.6,3.9,3.3c0.3,0.4,1.2,1.9,2.7,4.4c0.4,0.6,0.6,1.5,0.7,2.6
	c0.2,1.3,0.3,2.2,0.4,2.6c0.3,1,0.5,2,0.5,3C199.5,26.9,198.3,30.3,195.7,33.4 M132.5,1.3c0.3,0.1,0.6,0.1,0.6,0.1
	C133.3,1.4,133.4,1.3,132.5,1.3"/>
<path d="M196,2.9c0,0,0.1,0,0.1,0l-0.2,0L196,2.9z"/>
<path d="M113,41.7c0,0-0.1,0-0.1,0l0.3,0L113,41.7z"/>
<path d="M201.8,6.5C201.8,6.5,201.8,6.5,201.8,6.5L201.8,6.5L201.8,6.5L201.8,6.5C201.6,6.3,201.7,6.4,201.8,6.5L201.8,6.5z"/>
<path d="M180.7,43.3l0.2,0L180.7,43.3C180.6,43.2,180.7,43.2,180.7,43.3"/>
<polygon points="133,1.5 132.8,1.5 133,1.5 "/>
<polygon points="5.6,65.2 5.3,65.2 0,52.6 1,52.6 5.4,63.2 9.8,52.6 10.8,52.6 "/>
<rect x="18.7" y="52.6" width="1" height="12.5"/>
<path d="M39.7,65.1h-1l-2-4.3h-6.1l-2,4.3h-1l5.7-12.6h0.6L39.7,65.1z M33.6,54.1L30.9,60h5.4L33.6,54.1z"/>
<path d="M57.1,54.6c-1.3-0.8-2.9-1.2-4.5-1.2c-2.7,0-5.5,2-5.5,5.5c0,3.4,2.7,5.5,5.4,5.5c1.3,0,2.6-0.3,3.8-0.8v-3.4h-2.6v-0.8h3.6
	v4.8c-1.5,0.7-3.1,1.1-4.7,1.1c-3.2,0-6.5-2.5-6.5-6.5c0-3.6,2.8-6.4,6.7-6.4c1.9,0,3.3,0.6,4.3,1.1V54.6z"/>
<path d="M76.3,54.6c-1.3-0.8-2.9-1.2-4.5-1.2c-2.7,0-5.5,2-5.5,5.5c0,3.4,2.7,5.5,5.4,5.5c1.3,0,2.6-0.3,3.8-0.8v-3.4H73v-0.8h3.6
	v4.8c-1.5,0.7-3.1,1.1-4.7,1.1c-3.2,0-6.5-2.5-6.5-6.5c0-3.6,2.8-6.4,6.7-6.4c1.9,0,3.3,0.6,4.3,1.1V54.6z"/>
<rect x="85.3" y="52.6" width="1" height="12.5"/>
<polygon points="113.4,53.4 107.5,53.4 107.5,58.4 113.2,58.4 113.2,59.2 107.5,59.2 107.5,64.3 113.5,64.3 113.5,65.1 106.6,65.1 
	106.6,52.6 113.4,52.6 "/>
<polygon points="126.3,65.2 126,65.2 120.7,52.6 121.7,52.6 126.1,63.2 130.5,52.6 131.5,52.6 "/>
<polygon points="146.2,53.4 140.4,53.4 140.4,58.4 146.1,58.4 146.1,59.2 140.4,59.2 140.4,64.3 146.4,64.3 146.4,65.1 139.4,65.1 
	139.4,52.6 146.2,52.6 "/>
<polygon points="166.3,65.1 165.5,65.1 156,54.1 156,65.1 155,65.1 155,52.6 155.9,52.6 165.3,63.6 165.3,52.6 166.3,52.6 "/>
<polygon points="184.5,53.4 179.9,53.4 179.9,65.1 178.9,65.1 178.9,53.4 174.2,53.4 174.2,52.6 184.5,52.6 "/>
<path d="M197.1,65.3c-3.7,0-6.6-2.8-6.6-6.4c0-3.4,2.6-6.4,6.6-6.4c4,0,6.6,3,6.6,6.4C203.8,62.6,200.7,65.3,197.1,65.3 M197.1,53.4
	c-3.2,0-5.6,2.4-5.6,5.5c0,3,2.3,5.5,5.5,5.5c2.9,0,5.6-2.1,5.6-5.6C202.7,56,200.4,53.4,197.1,53.4"/>
</svg>
