<?xml version="1.0" encoding="utf-8"?>
<!-- Generator: Adobe Illustrator 19.2.1, SVG Export Plug-In . SVG Version: 6.00 Build 0)  -->
<svg version="1.1" id="Isolation_Mode" xmlns="http://www.w3.org/2000/svg" xmlns:xlink="http://www.w3.org/1999/xlink" x="0px"
	 y="0px" viewBox="0 0 369.3 132.4" style="enable-background:new 0 0 369.3 132.4;" xml:space="preserve">
<style type="text/css">
	.st0{fill:#F16521;}
</style>
<g>
	<g>
		<path class="st0" d="M44.1,86.4L40.4,85l-9.1-3.8c-5.5-2.1-8.5-4-11-5.2c-2.2-1.1-4.4-2.5-6.3-4.1C5.9,65,3.1,56.6,3.1,56.6
			c-9.3-24.4,5.7-41.4,5.7-41.4S22.3-3.3,45.2,0.5c15.7,2.6,24.2,12.9,27.9,19.1c1.5,2.5,0.6,5.8-2,7l-20.3,10c0,0,0,0,0,0
			c-0.7,0.3-2.5,1-4-0.6l0,0c-1.6-1.4-3.8-2.2-7.1-1.7c-3.5,0.5-6.4,2.8-7.6,6.2c-1.5,4.3-0.1,8.5,2.8,10.9c0,0,2.1,1.8,12.6,7.5
			s17.8,8.9,17.8,8.9s14.3,5.8,13.5,25.3c-0.8,19.5-14.9,29.7-14.9,29.7s-11.1,9.3-24.5,8.8s-20.4-5.8-20.4-5.8s-14.6-7.9-16.9-23.9
			C0.8,92.1,3.8,83.1,8.5,78c2-2.2,4.6-2.9,7-1.2c5.8,4.1,15,7.3,18.9,8.9c1,0.4,0.8,1.8,0.2,2.8L33,90.9c-0.8,1.3-1.2,2.8-1.2,4.4
			l0,0c0,5.3,4.2,9.6,9.4,9.4c4.8-0.1,8.8-4.3,8.9-9.2c0.1-4.3-2.6-8-6.3-9.2"/>
		<path class="st0" d="M46.4,54.3c6.7,3.5,14.9,8.4,20.2,11.1c1.7,0.9,3.8,0.9,5.5,0l4.4-2.5c3.8-1.6,3.4-4.5,3.4-6.7V36.1
			c0-2.5-2.6-4.2-4.9-3.2c-7.8,3.4-17.9,8.2-28.8,15.4C43.9,49.8,44,53.1,46.4,54.3z"/>
		<path class="st0" d="M84.6,24.7v69.9c0,20.4,16.6,37,37,37h0c4.5,0,8.1-3.6,8.1-8.1v-19.9c0-4.1-3.4-7.5-7.5-7.5h0
			c-3.2,0-5.8-2.6-5.8-5.8V56.6c0-2.6,1.8-4.9,4.3-5.5l5.4-1.3c2.1-0.5,3.6-2.4,3.6-4.6V20.4c0-1.8-1.7-3.2-3.4-2.8l-7.2,1.5
			c-1.9,0.4-3.8-1.1-3.8-3.1V4.1c0-2.2-1.8-4-4-4h-2.1C95.6,0.1,84.6,11.1,84.6,24.7z"/>
		<path class="st0" d="M330.9,105.8c0-2.9-2.4-5.3-5.3-5.3c-4.4,0-8-3.6-8-8V58.8l-1.1-42.6l0-12c0-1-0.8-1.9-1.9-1.9h-2.1
			c-11.9,0-25.6,9.8-25.6,22.4v72.1c0,18.5,17.8,34.8,38.1,34.8c3.3,0,5.9-2.7,5.9-5.9V105.8z"/>
		<g id="_x32__3_">
			<path class="st0" d="M133.7,21l0,105.6c0,2.7,2.2,4.8,4.8,4.8h0c14.3,0,25.8-11.6,25.8-25.8V46.3c0-2.5,2-4.6,4.5-4.6l6-0.2
				c2.3-0.1,3.9-1.7,5.2-3.5c12.5-17.6,20.1-20.2,20.1-20.2c1-2.4-5-6.1-7.6-6.2c-9.2-0.2-35.2-0.1-52.9,2.4
				C136.2,14.5,133.7,17.5,133.7,21z"/>
		</g>
		<path class="st0" d="M228.6,12.8c-28.9,0-52.3,26.8-52.3,59.8s23.4,59.8,52.3,59.8S281,105.6,281,72.6S257.5,12.8,228.6,12.8z
			 M228.6,102.2c-14.3,0-25.9-13.2-25.9-29.6S214.3,43,228.6,43s25.9,13.2,25.9,29.6S242.9,102.2,228.6,102.2z"/>
	</g>
	<path class="st0" d="M369.3,125.6v-19.9c0-2.9-2.4-5.3-5.3-5.3c-4.4,0-8-3.6-8-8V58.8l-1.1-42.6l0-12c0-1-0.8-1.9-1.9-1.9h-2.1
		c-11.9,0-25.6,9.8-25.6,22.4v71.4c0.1,0,0.2,0,0.3,0c5.3,0,9.7,4.3,9.7,9.7v13.9c7.1,7.2,17.2,11.9,28.1,11.9
		C366.6,131.6,369.3,128.9,369.3,125.6z"/>
</g>
</svg>
