<?xml version="1.0" encoding="utf-8"?>
<!-- Generator: Adobe Illustrator 19.2.1, SVG Export Plug-In . SVG Version: 6.00 Build 0)  -->
<svg version="1.1" id="Layer_1" xmlns="http://www.w3.org/2000/svg" xmlns:xlink="http://www.w3.org/1999/xlink" x="0px" y="0px"
	 viewBox="0 0 33.3 32.3" style="enable-background:new 0 0 33.3 32.3;" xml:space="preserve">
<style type="text/css">
	.st0{fill:#F16521;}
</style>
<path class="st0" d="M22.2,24.5H22c-2-0.5-4.3-1-4.8-1.9c-0.1-0.3-0.1-0.8,0.3-1.4c2.6-4.9,3.1-8.7,1.4-11.6c-1.1-2-3.3-3.1-5.9-3.1
	S8.2,7.6,7.1,9.6c-1.7,2.9-1.2,6.7,1.4,11.5c0.3,0.6,0.4,1,0.3,1.4c-0.4,0.9-2.3,1.4-4.7,1.9l-0.2,0.1c-4,0.9-3.9,3.2-3.9,6.1
	c0,0.7,0.6,1.4,1.3,1.5l0,0h23.4c0.8,0,1.5-0.7,1.5-1.5C26.1,27.7,26.2,25.4,22.2,24.5z M23.7,30.5H2.3c-0.2,0-0.4-0.1-0.5-0.2
	S1.6,30,1.6,29.8c0-2.2,0.2-3.1,2.6-3.7L4.4,26c2.6-0.6,5-1.2,5.8-2.8c0.4-0.8,0.3-1.8-0.3-2.8C7.5,16,7,12.8,8.5,10.4
	C9.4,8.9,11,8,13,8s3.6,0.8,4.5,2.3c1.4,2.3,1,5.5-1.4,10c-0.6,1-0.7,1.9-0.3,2.8c0.8,1.7,3.2,2.2,5.9,2.8h0.1
	c2.4,0.6,2.6,1.5,2.6,3.6c0,0.2-0.1,0.5-0.3,0.7C24.1,30.4,23.9,30.5,23.7,30.5z"/>
<path class="st0" d="M26.8,26c-0.2,1,0.5,1.6,0.5,1.6H31c0.8,0,1.5-0.7,1.5-1.5c-0.1-2.9,0-5.2-4-6.1h-0.2c-2-0.5-4.3-1-4.8-1.9
	c-0.1-0.3-0.1-0.8,0.3-1.4c2.6-4.9,3.1-8.7,1.4-11.6c-1.1-2-3.3-3.1-5.9-3.1s-4.4,0.8-5.5,2.8c0.3,0.9,1.4,0.8,1.4,0.8
	c0.9-1.5,2.1-2.1,4.1-2.1s3.6,0.8,4.5,2.3c1.4,2.3,1,5.5-1.4,10c-0.6,1-0.7,1.9-0.3,2.8c0.8,1.7,3.2,2.2,5.9,2.8h0.1
	c2.4,0.6,2.6,1.5,2.6,3.6c0,0.2,0.1,0.6-0.1,0.8c0,0.2-0.4,0.2-0.6,0.2L26.8,26z"/>
</svg>
