<?xml version="1.0" encoding="utf-8"?>
<!-- Generator: Adobe Illustrator 19.2.1, SVG Export Plug-In . SVG Version: 6.00 Build 0)  -->
<svg version="1.1" id="Layer_1" xmlns="http://www.w3.org/2000/svg" xmlns:xlink="http://www.w3.org/1999/xlink" x="0px" y="0px"
	 viewBox="0 0 25.1 23.7" style="enable-background:new 0 0 25.1 23.7;" xml:space="preserve">
<style type="text/css">
	.st0{fill:#F16521;}
</style>
<path class="st0" d="M23.4,8.4l-1.7-0.5c-0.1-0.1-0.3-0.2-0.3-0.3c-0.1-0.2-0.1-0.3-0.1-0.4c0.1-0.3,0.3-0.5,0.6-0.5H22l1.7,0.5
	c0.1,0.1,0.3,0.2,0.3,0.3c0.1,0.1,0.1,0.3,0.1,0.5c-0.1,0.3-0.3,0.3-0.5,0.3H23.4z"/>
<path class="st0" d="M17.3,3.3c-0.3,0-0.5-0.2-0.6-0.4L16.2,1c0-0.1,0-0.3,0.1-0.4c0.1-0.1,0.2-0.2,0.4-0.3l0.1,0
	c0.3,0,0.5,0.1,0.6,0.4l0.5,1.8c0,0.1,0,0.3-0.1,0.4c-0.1,0.1-0.2,0.2-0.3,0.3H17.3z"/>
<path class="st0" d="M20.9,4.2c-0.2,0-0.3,0-0.4,0c-0.1-0.1-0.2-0.3-0.2-0.4c0-0.2,0-0.3,0-0.4L21.7,2C21.9,2,22,1.9,22.1,1.9
	c0.2,0,0.3,0,0.4,0c0.1,0.1,0.2,0.3,0.2,0.4c0,0.2,0,0.3,0,0.4L21.3,4C21.1,4.1,21,4.2,20.9,4.2z"/>
<path class="st0" d="M3.3,23.4c-0.5,0-1.1-0.3-1.5-0.7c-0.4-0.4-0.7-0.9-0.7-1.5c0-0.5,0.3-1.1,0.7-1.5L16,5.5
	c0.3-0.4,0.9-0.7,1.5-0.7c0.5,0,1.1,0.3,1.5,0.7c0.4,0.4,0.7,0.9,0.7,1.5c0,0.5-0.3,1.1-0.7,1.5L4.8,22.7
	C4.4,23.1,3.9,23.4,3.3,23.4z M2.6,20.4c-0.2,0.2-0.3,0.5-0.3,0.8c0,0.3,0.2,0.6,0.3,0.8c0.1,0.1,0.4,0.3,0.8,0.3
	c0.1,0,0.5,0,0.8-0.3l11.1-11.1l-1.5-1.5L2.6,20.4z M17.5,5.9c-0.3,0-0.6,0.2-0.8,0.3l-2.3,2.4l1.5,1.5l2.3-2.4
	c0.3-0.1,0.3-0.5,0.3-0.8c0-0.3-0.2-0.6-0.3-0.8C18.1,6,17.8,5.9,17.5,5.9z"/>
</svg>
