<svg width="101" height="34" viewBox="0 0 101 34" fill="none" xmlns="http://www.w3.org/2000/svg">
<g id="ntoni logo">
<path id="Subtract" d="M80.0919 25.2443L80.0922 25.2386L80.0925 25.2322C80.1016 25.074 80.1061 24.9153 80.1061 24.7565V24.6969L80.0919 24.6977V8.77006C80.0919 8.06562 80.6629 7.49455 81.3674 7.49455C82.0718 7.49455 82.6429 8.06562 82.6429 8.77006V25.0999C82.6433 26.1596 82.8523 27.2089 83.2578 28.188C83.6638 29.1681 84.2588 30.0586 85.009 30.8088C85.7591 31.5589 86.6496 32.1539 87.6297 32.5599C88.4786 32.9115 89.3804 33.1154 90.2959 33.1636L90.2959 8.97106L90.2959 8.94069V8.93957L90.2959 8.90919V8.45844L90.2824 8.43501L90.2759 8.33674C89.9658 3.68724 86.0957 0.0115648 81.3674 0.0115648C76.4916 0.0115648 72.5286 3.91986 72.4403 8.77441L72.4388 8.85732V24.2462C72.4388 24.53 72.3456 24.7932 72.1884 25.0053L72.1496 25.0577L72.1475 25.0689L72.1255 25.0902L72.07 25.1651L72.0466 25.1664C71.8178 25.3861 71.5059 25.5218 71.1633 25.5218C70.8173 25.5218 70.5027 25.3834 70.2734 25.16L70.2506 25.1582L70.1965 25.0847L70.1429 25.0321V25.0118L70.1352 25.0013C69.9797 24.7899 69.8878 24.5282 69.8878 24.2462V8.80729C69.8878 6.16489 68.9869 3.90892 67.429 2.34662C65.8736 0.786855 63.6338 -0.111573 60.8932 0.0111392L60.8837 0.0115648H52.0306V7.66462H58.4082C58.9107 7.66462 59.4083 7.7636 59.8725 7.95589C60.3368 8.1482 60.7586 8.43005 61.1139 8.78538C61.4693 9.14071 61.7511 9.56254 61.9434 10.0268C62.1357 10.491 62.2347 10.9886 62.2347 11.4911V24.7565C62.2347 25.8508 62.4503 26.9344 62.869 27.9455C63.2878 28.9565 63.9017 29.8752 64.6755 30.649C65.4493 31.4228 66.368 32.0367 67.379 32.4555C68.0601 32.7376 68.7741 32.9274 69.502 33.0213L69.5136 33.0228L69.5252 33.025C70.0559 33.1233 70.6034 33.1748 71.1633 33.1748C71.7126 33.1748 72.25 33.1253 72.7713 33.0305L72.7832 33.0283L72.7952 33.0268C73.5383 32.935 74.2672 32.7432 74.9618 32.4555C75.9729 32.0367 76.8915 31.4228 77.6654 30.649C78.4392 29.8752 79.053 28.9565 79.4718 27.9455C79.8282 27.085 80.0375 26.1718 80.0919 25.2443Z" fill="#29AFE9"/>
<path id="Union (Stroke)" d="M0.501374 9.20237L0.500005 33.1633L8.15966 33.1749C8.15966 33.1749 8.16115 8.79615 8.16198 8.78913C8.19122 8.5421 8.29097 8.31691 8.43982 8.13437L8.44249 8.11987L8.52795 8.03682L8.6317 7.93072L8.65022 7.92965C8.86544 7.76374 9.13575 7.66466 9.42859 7.66466C10.133 7.66466 10.7041 8.23571 10.7041 8.94015V22.8215C10.7041 23.0811 10.7081 23.3398 10.7193 23.5961L10.7196 23.6036L10.7196 23.6048L10.7199 23.6102L10.7217 23.6511L10.7199 23.676C10.7095 23.8169 10.7041 23.978 10.7041 24.1613V24.8415C10.7041 25.9359 10.9196 27.0195 11.3384 28.0306C11.7572 29.0416 12.371 29.9603 13.1449 30.7341C13.9187 31.5079 14.8373 32.1217 15.8484 32.5405C16.8345 32.949 17.8897 33.1641 18.9566 33.1745L18.9973 33.1749H20.568C21.6624 33.1749 22.746 32.9593 23.7571 32.5405C24.7681 32.1217 25.6868 31.5079 26.4606 30.7341C27.2344 29.9603 27.8482 29.0416 28.267 28.0306C28.6858 27.0195 28.9014 25.9359 28.9014 24.8415V24.3442L28.9014 24.3407C28.9028 24.2556 28.9028 24.1697 28.9014 24.0831L28.8944 23.6511H28.9028V10.2157H20.9932V24.234C20.9932 24.9452 20.4166 25.5218 19.7054 25.5218C18.9941 25.5218 18.4176 24.9452 18.4176 24.234V8.56386L18.4422 8.56577V8.34493C18.4422 7.25058 18.2266 6.16695 17.8078 5.15589C17.3891 4.14486 16.7752 3.22619 16.0014 2.45237C15.2276 1.67855 14.3089 1.06472 13.2979 0.645928C12.3862 0.268321 11.4156 0.0559608 10.4313 0.0178384L10.2702 0.0115967H8.83333C7.73898 0.0115967 6.65534 0.227136 5.64429 0.645927C4.63326 1.06472 3.7146 1.67855 2.94077 2.45237C2.16695 3.22619 1.55312 4.14486 1.13433 5.15589C0.71554 6.16694 0.5 7.25058 0.5 8.34493V8.40439L0.535801 8.4023L0.512263 8.87551C0.507774 8.96575 0.504496 9.05634 0.502461 9.14725L0.502485 9.14796L0.50222 9.1599C0.501896 9.17446 0.501604 9.18853 0.501374 9.20237Z" fill="#FFA83F"/>
<path id="Subtract_2" d="M92.847 8.51504L92.8669 0.0115967H100.5V25.1C100.5 26.1597 100.291 27.209 99.885 28.1881C99.4791 29.1682 98.8841 30.0587 98.1339 30.8088C97.3838 31.559 96.4933 32.154 95.5131 32.56C94.6642 32.9116 93.7625 33.1154 92.8469 33.1637L92.847 9.14174L92.8469 9.1108L92.847 8.51504Z" fill="#00DCA4"/>
<path id="Subtract_3" fill-rule="evenodd" clip-rule="evenodd" d="M42.435 28.1555C42.0644 27.2608 41.8598 26.307 41.8303 25.3404L41.8271 25.0911C41.8267 25.0646 41.8265 25.038 41.8265 25.0116V10.2156L58.4082 10.2156C59.1126 10.2156 59.6837 10.7867 59.6837 11.4912V25.0116C59.6837 29.52 56.0289 33.1748 51.5204 33.1748H50.6669L50.6636 33.1749C50.0791 33.1837 49.518 33.1386 48.9819 33.0466L48.969 33.0444L48.9559 33.043C48.2027 32.9611 47.4635 32.7724 46.7609 32.4814C45.7911 32.0797 44.9099 31.4909 44.1677 30.7486C43.4255 30.0064 42.8367 29.1252 42.435 28.1555ZM50.7551 16.3381C50.0507 16.3381 49.4796 16.9092 49.4796 17.6136V24.4163C49.4796 25.1208 50.0507 25.6918 50.7551 25.6918C51.4596 25.6918 52.0306 25.1208 52.0306 24.4163V17.6136C52.0306 16.9092 51.4596 16.3381 50.7551 16.3381Z" fill="#EF3B5B"/>
<path id="Subtract_4" d="M36.9332 30.7071C35.535 32.2193 33.5962 33.0468 31.4524 33.1622V7.66466H20.9943C21.0029 6.7519 21.0679 5.87143 21.3297 5.04947C21.9036 3.24825 22.8932 2.00156 24.1915 1.19848C25.4974 0.390703 27.1488 0.0115967 29.0714 0.0115967L49.4796 0.0116068V7.66433H39.1905V23.4807H39.5288L39.5288 23.4847L39.1908 23.4977C39.3149 26.7239 38.4051 29.1152 36.9332 30.7071Z" fill="#FB8951"/>
</g>
</svg>
